<?xml version="1.0" encoding="UTF-8"?>
<svg id="a" data-name="Hopper-1" xmlns="http://www.w3.org/2000/svg" width="398.97" height="496" xmlns:xlink="http://www.w3.org/1999/xlink" viewBox="0 0 398.97 496">
  <defs>
    <style>
      .af, .ag, .ah, .ai, .aj {
        fill-rule: evenodd;
      }

      .af, .ag, .ai {
        fill: #a67c52;
      }

      .af, .ah, .ak, .aj, .al, .am, .an, .ao, .ap, .aq {
        stroke-width: 0px;
      }

      .ag {
        stroke: #754c24;
      }

      .ag, .ai, .ar {
        stroke-miterlimit: 10;
      }

      .ah {
        filter: url(#w);
      }

      .ah, .as, .aj, .am {
        fill: #000;
      }

      .as {
        font-family: MyriadPro-Regular, 'Myriad Pro';
        font-size: 12px;
      }

      .ai {
        stroke: #8c6239;
      }

      .ak {
        fill: #e6e6e6;
        opacity: .75;
      }

      .al {
        fill: #da00f9;
      }

      .ar {
        stroke: red;
      }

      .ar, .ap, .aq {
        fill: #fff;
      }

      .am {
        filter: url(#j);
      }

      .an {
        fill: url(#b);
      }

      .ao {
        fill: url(#f);
      }

      .ap {
        filter: url(#ad);
      }

      .aq {
        filter: url(#ab);
      }
    </style>
    <linearGradient id="b" x1="170.93" y1="281.1" x2="69.25" y2="109.59" gradientUnits="userSpaceOnUse">
      <stop offset=".18" stop-color="#fff"/>
      <stop offset=".67" stop-color="#dffffc"/>
      <stop offset=".99" stop-color="#c9fffa"/>
    </linearGradient>
    <linearGradient id="f" x1="64.92" y1="352.32" x2="249" y2="352.32" gradientUnits="userSpaceOnUse">
      <stop offset="0" stop-color="#9e005d"/>
      <stop offset=".05" stop-color="#b60045"/>
      <stop offset=".16" stop-color="#dd001f"/>
      <stop offset=".24" stop-color="#f60008"/>
      <stop offset=".28" stop-color="red"/>
      <stop offset=".29" stop-color="#fe0404"/>
      <stop offset=".37" stop-color="#f46363"/>
      <stop offset=".44" stop-color="#ecaaaa"/>
      <stop offset=".48" stop-color="#e7d5d5"/>
      <stop offset=".51" stop-color="#e6e6e6"/>
      <stop offset=".54" stop-color="#e5dadb"/>
      <stop offset=".59" stop-color="#e5babf"/>
      <stop offset=".65" stop-color="#e58792"/>
      <stop offset=".73" stop-color="#e44154"/>
      <stop offset=".8" stop-color="#e4001a"/>
      <stop offset="1" stop-color="#9e005d"/>
    </linearGradient>
    <filter id="j" data-name="drop-shadow-1" filterUnits="userSpaceOnUse">
      <feOffset dx="3" dy="3"/>
      <feGaussianBlur result="k" stdDeviation="5"/>
      <feFlood flood-color="#494949" flood-opacity=".75"/>
      <feComposite in2="k" operator="in"/>
      <feComposite in="SourceGraphic"/>
    </filter>
    <filter id="w" data-name="drop-shadow-2" filterUnits="userSpaceOnUse">
      <feOffset dx="5" dy="5"/>
      <feGaussianBlur result="x" stdDeviation="3"/>
      <feFlood flood-color="#494949" flood-opacity=".38"/>
      <feComposite in2="x" operator="in"/>
      <feComposite in="SourceGraphic"/>
    </filter>
    <filter id="ab" data-name="drop-shadow-3" filterUnits="userSpaceOnUse">
      <feOffset dx="3" dy="3"/>
      <feGaussianBlur result="ac" stdDeviation="5"/>
      <feFlood flood-color="#494949" flood-opacity=".75"/>
      <feComposite in2="ac" operator="in"/>
      <feComposite in="SourceGraphic"/>
    </filter>
    <filter id="ad" data-name="drop-shadow-4" filterUnits="userSpaceOnUse">
      <feOffset dx="3" dy="3"/>
      <feGaussianBlur result="ae" stdDeviation="5"/>
      <feFlood flood-color="#494949" flood-opacity=".75"/>
      <feComposite in2="ae" operator="in"/>
      <feComposite in="SourceGraphic"/>
    </filter>
  </defs>
  <path id="c" data-name="Lights On" class="an" d="M150,396h-12.87c2.99-26-20.84-25.89-32.71-37.16,7.82.08,12.42.16,14.14.12l-.13-12.96h-53.43v-70h36v-12.21l-36-30.65v-36.72c0-1.05.02-1.45,0-3.42h36v-11.74l-36-30.65v-35.98c0-1.05-1.95-1.63-1.11-1.63h23.11v-13.19c-6,.01-12.11.03-18.23.09,27.56-15.72,57.31-29.31,85.67-44.21,31.41,12.53,59.39,29.31,89.2,43.47-5.42.16-10.63.28-15.63.39v13.45h21v37.61l-36,30.65v11.74h36v40.14l-36,30.65v12.21h15.64c3.76,0,4.98,0,4.93,0h15.42v70h-54v12.23c4,0,8.48.05,12.9-.01-10.76,12.65-36.31,8.78-33.06,37.78h-24.84ZM65,359h12v48h-12v-48ZM249,407h-14v-48h14v48Z"/>
  <g id="d" data-name="20">
    <g id="e" data-name="Level">
      <path id="g" data-name="20" class="ao" d="M248.69,323h.06c-.04-2.13-.06-3.16-.06-3.16,0-12.39-10.83,4.35-12.91-6.84-6.8-4.37-8.17-.75-13.02,0l-12.06,5.83c-3.31-.17-19.72-.48-15.3-.61-29.81-14.17-6.96,5.36-38.38-7.17-28.36,14.9-5.49-13.05-33.04,2.66,5.4-.04-17.51,2.47-18.75,3.06l-15.93-2.53c-7.84,0-4.52-2-11.49.79-.78.31.74,9.15-3.95,0-5.42-10.57-8.5-7.37-8.5,4.57,0,0-.02,1.26-.04,3.39h.04c-.04.49-.34,3.71-.34,5.85-.18.28,0,.33,0,.48v20.67h53.42l-1.05,7.29c-1.72.04-2.71-.79-3.94-.76.3-.08-4.32,1.9-12.14,1.82,11.87,11.08,38.83,12.3,35.84,37.64h37.71c-3.25-28.39,23.97-26.01,34.73-38.44-4.41.06-10.56-.88-14.56-.87v-6.69h54v-21.15c0-3.83-.28-5.61-.31-5.85Z"/>
      <g id="h" data-name="Label Qty">
        <path class="ar" d="M193.74,320.07c0-4.32,3.5-7.82,7.82-7.82s7.82,3.5,7.82,7.82-3.5,7.82-7.82,7.82-7.82-3.5-7.82-7.82Z"/>
        <text id="i" data-name="30" class="as" transform="translate(195.41 324.2)"><tspan x="0" y="0">20</tspan></text>
      </g>
    </g>
  </g>
  <path id="l" data-name="HopperBody" class="am" d="M260.05,137.47c0-14.72.12-31.76-.89-39.79-.96-7.65-8.45-9.18-22.92-16.05-27.45-13.04-49.58-25.63-76.58-39.63h-7.25c-23.66,12-51.52,26.53-77.59,39.63-9,4.53-19.85,9.62-22.43,15.76-3.02,7.19-.12,300.05-.12,322.07,6.04,0,35.09-.06,35.09-.06,0,0,.81-39.3.52-56.97,12.77,7.41,25.19,15.38,36.93,23.83-2.06,17.29,4.25,20.78,18.25,21.45v70.28h7v-82h-12.87c2.99-26-20.84-25.89-32.71-37.16,7.82.08,12.42.16,14.14.12l-.13-12.96h-53.43v-70h36v-12.21l-36-30.65v-36.72c0-1.05.02-1.45,0-3.42h36v-11.74l-36-30.65v-35.98c0-1.05-1.95-1.63-1.11-1.63h23.11v-13.19c-6,.01-12.11.03-18.23.09,27.56-15.72,57.31-29.31,85.67-44.21,31.41,12.53,59.39,29.31,89.2,43.47-5.42.16-10.63.28-15.63.39v13.45h21v37.61l-36,30.65v11.74h36v40.14l-36,30.65v12.21h15.64c3.76,0,4.98,0,4.93,0h15.42v70h-54v12.23c4,0,8.48.05,12.9-.01-10.76,12.65-36.31,8.78-33.06,37.78h-10.84v82h7v-70.54c12-1.17,19.45-5.5,16.19-21.67,12.59-6.61,25.03-18.01,36.96-22.83.33,14.29.38,57.05.38,57.05h35.68s-.22-200.37-.22-282.53ZM65.05,359h12v48h-12v-48ZM249.05,407h-14v-48h14v48Z"/>
  <g id="m" data-name="Flow">
    <polygon id="n" data-name="flow8" class="ag" points="159.13 404.18 152.83 403.04 154.02 396.26 160.32 397.4 159.13 404.18"/>
    <polygon id="o" data-name="flow7" class="ai" points="159.69 410.94 153.75 410.34 154.34 404.31 160.28 404.91 159.69 410.94"/>
    <polygon id="p" data-name="flow6" class="af" points="156.71 417.52 151.92 416.74 152.68 411.88 157.47 412.65 156.71 417.52"/>
    <polygon id="q" data-name="flow5" class="af" points="163.09 420.69 158.08 423.22 155.59 418.14 160.59 415.6 163.09 420.69"/>
    <polygon id="r" data-name="flow4" class="af" points="159.8 434.37 153.62 433.74 154.24 427.47 160.41 428.09 159.8 434.37"/>
    <polygon id="s" data-name="flow3" class="af" points="157.09 447.35 151.39 446.43 152.3 440.63 158.01 441.55 157.09 447.35"/>
    <polygon id="t" data-name="flow2" class="af" points="160.04 460.88 153.33 460.21 154 453.4 160.7 454.07 160.04 460.88"/>
    <polygon id="u" data-name="flow1" class="af" points="157.15 467.66 151.31 466.71 152.24 460.77 158.09 461.71 157.15 467.66"/>
  </g>
  <g id="v" data-name="Stirrer">
    <path class="aj" d="M152,80v222.3c2.33.24,4.68.23,7-.02V80h-7Z"/>
    <path id="y" data-name="90 degrees" class="ah" d="M183.23,255.37c-4.87-8.93-8.85-14.68-15.53-21.91-2.39-2.59-6.94-6.77-8.34-10.22l-.36-1.55V80h-7v144h.51c-.98,2-2.98,3.11-4.24,4.48-4.6,5-10.26,10.85-13.57,15.27-4.64,6.2-11.6,15.98-12.04,25.67-.44,9.59,3.85,17.59,9.51,23.33,13.09,13.29,34.08,12.65,46.52.03,5.55-5.62,10.18-13.69,9.57-23.73-.33-5.49-2.83-9.65-5.03-13.68ZM151.72,295.09c-14.07-.88-26.81-17.79-20.09-33.33,4.26-9.86,14.38-19.77,19.63-26.48,1.06,19.02.15,40.02.46,59.81ZM159,295.09v-58.89c0-.81.45-.94.47-.46,5.74,6.4,15.34,16.11,19.63,26.02,6.45,14.93-3.1,32.3-20.1,33.33Z"/>
    <g id="z" data-name="Rotation Direction">
      <path class="al" d="M164.5,101.99c-.21-1.04,2.92-1.8,3.66-2.2,1.48-.79,3.77-2.33,2.83-4.47-.72-1.64-3.36-2.96-5.93-3.81v-1.77c3.66,1.07,9.74,3.5,8.13,7.85-.59,1.59-2.37,2.95-4.19,3.85-.84.41-4.21,2.02-4.5.55Z"/>
      <path class="al" d="M151.42,107.49c-.55-1.23,2.43-1.94,2.83-2.83-4.71-.16-8.38-.63-12.04-1.65-3.87-1.07-9.3-3.22-8.7-7.3.41-2.79,4.5-4.84,8.27-5.96.07-.02.14-.04.21-.06v1.78c-2.65.86-5.33,2.19-6.08,3.78-.41.88-.11,1.97.42,2.67,1.49,1.96,4.33,2.91,7.33,3.69,3.11.8,6.65,1.25,10.37,1.41-.54-1.21-2.98-1.32-2.72-2.67.07-.35.65-.67.94-.71,1.17-.13,2.32,1.26,3.14,1.88.98.73,2.58,1.48,2.62,2.28.05.96-3.13,2.74-4.08,3.45-.64.48-2.03,1.33-2.51.24Z"/>
      <path class="al" d="M164.54,91.27c.85.25,1.25.41,2.48.79l.37-1.5c-1.24-.37-1.73-.54-2.68-.81.55-.71,3.39-.69,3.17-1.91-.19-1.08-1.63-.63-2.31-.34-1.01.43-4.26,1.33-4.43,2.2-.14.72,1.13,1.75,1.85,2.62.61.74,1.33,2.24,2.41,2.39.27.04.86-.13,1-.43.53-1.15-1.65-1.79-1.87-3Z"/>
    </g>
  </g>
  <path id="aa" data-name="Light Off" class="ak" d="M150,396h-12.87c2.99-26-20.84-25.89-32.71-37.16,7.82.08,12.42.16,14.14.12l-.13-12.96h-53.43v-70h36v-12.21l-36-30.65v-36.72c0-1.05.02-1.45,0-3.42h36v-11.74l-36-30.65v-35.98c0-1.05-1.95-1.63-1.11-1.63h23.11v-13.19c-6,.01-12.11.03-18.23.09,27.56-15.72,57.31-29.31,85.67-44.21,31.41,12.53,59.39,29.31,89.2,43.47-5.42.16-10.63.28-15.63.39v13.45h21v37.61l-36,30.65v11.74h36v40.14l-36,30.65v12.21h15.64c3.76,0,4.98,0,4.93,0h15.42v70h-54v12.23c4,0,8.48.05,12.9-.01-10.76,12.65-36.31,8.78-33.06,37.78h-24.84ZM65,359h12v48h-12v-48ZM249,407h-14v-48h14v48Z"/>
  <path class="aq" d="M65,359h12v48h-12v-48Z"/>
  <path class="ap" d="M249,407h-14v-48h14v48Z"/>
</svg>