<?xml version="1.0" encoding="UTF-8"?>
<svg id="a" data-name="Hopper-1" xmlns="http://www.w3.org/2000/svg" width="398.97" height="496" xmlns:xlink="http://www.w3.org/1999/xlink" viewBox="0 0 398.97 496">
  <defs>
    <style>
      .bn, .bo, .bp {
        fill: #a67c52;
      }

      .bn, .bo, .bp, .bq {
        fill-rule: evenodd;
      }

      .bn, .br, .bq, .bs, .bt, .bu, .bv, .bw, .bx, .by, .bz, .ca, .cb, .cc, .cd, .ce {
        stroke-width: 0px;
      }

      .bo, .cf {
        stroke: #754c24;
      }

      .bo, .cf, .bp, .cg {
        stroke-miterlimit: 10;
      }

      .cf, .cg, .cd, .ce {
        fill: #fff;
      }

      .ch {
        font-family: MyriadPro-Regular, 'Myriad Pro';
        font-size: 12px;
      }

      .ch, .bq, .bx {
        fill: #000;
      }

      .bp {
        stroke: #8c6239;
      }

      .br {
        fill: #e6e6e6;
        opacity: .75;
      }

      .bs {
        fill: #da00f9;
      }

      .cg {
        stroke: red;
      }

      .bt {
        fill: url(#ag);
      }

      .bu {
        fill: url(#aa);
      }

      .bv {
        fill: url(#aq);
      }

      .bw {
        fill: url(#ak);
      }

      .bx {
        filter: url(#au);
      }

      .by {
        fill: url(#b);
      }

      .bz {
        fill: url(#v);
      }

      .ca {
        fill: url(#f);
      }

      .cb {
        fill: url(#p);
      }

      .cc {
        fill: url(#k);
      }

      .cd {
        filter: url(#bj);
      }

      .ce {
        filter: url(#bl);
      }
    </style>
    <linearGradient id="b" x1="170.93" y1="281.1" x2="69.25" y2="109.59" gradientUnits="userSpaceOnUse">
      <stop offset=".18" stop-color="#fff"/>
      <stop offset=".67" stop-color="#dffffc"/>
      <stop offset=".99" stop-color="#c9fffa"/>
    </linearGradient>
    <linearGradient id="f" x1="64.92" y1="352.32" x2="249" y2="352.32" gradientUnits="userSpaceOnUse">
      <stop offset="0" stop-color="#9e005d"/>
      <stop offset=".05" stop-color="#b60045"/>
      <stop offset=".16" stop-color="#dd001f"/>
      <stop offset=".24" stop-color="#f60008"/>
      <stop offset=".28" stop-color="red"/>
      <stop offset=".29" stop-color="#fe0404"/>
      <stop offset=".37" stop-color="#f46363"/>
      <stop offset=".44" stop-color="#ecaaaa"/>
      <stop offset=".48" stop-color="#e7d5d5"/>
      <stop offset=".51" stop-color="#e6e6e6"/>
      <stop offset=".54" stop-color="#e5dadb"/>
      <stop offset=".59" stop-color="#e5babf"/>
      <stop offset=".65" stop-color="#e58792"/>
      <stop offset=".73" stop-color="#e44154"/>
      <stop offset=".8" stop-color="#e4001a"/>
      <stop offset="1" stop-color="#9e005d"/>
    </linearGradient>
    <linearGradient id="k" x1="64.92" y1="339.82" x2="249" y2="339.82" gradientUnits="userSpaceOnUse">
      <stop offset="0" stop-color="#603813"/>
      <stop offset=".02" stop-color="rgba(106, 65, 28, 1)" stop-opacity="1"/>
      <stop offset=".08" stop-color="rgba(132, 91, 51, .98)" stop-opacity=".98"/>
      <stop offset=".15" stop-color="rgba(151, 109, 68, .98)" stop-opacity=".98"/>
      <stop offset=".22" stop-color="rgba(162, 120, 78, .97)" stop-opacity=".97"/>
      <stop offset=".31" stop-color="#a67c52" stop-opacity=".97"/>
      <stop offset=".48" stop-color="#c69c6d"/>
      <stop offset=".68" stop-color="#c69c6d"/>
      <stop offset=".74" stop-color="#c19768"/>
      <stop offset=".81" stop-color="#b3895c"/>
      <stop offset=".88" stop-color="#9c7348"/>
      <stop offset=".95" stop-color="#7c532c"/>
      <stop offset="1" stop-color="#603813"/>
    </linearGradient>
    <linearGradient id="p" y1="327.32" y2="327.32" xlink:href="#k"/>
    <linearGradient id="v" y1="314.82" y2="314.82" xlink:href="#k"/>
    <linearGradient id="aa" y1="302.32" y2="302.32" xlink:href="#k"/>
    <linearGradient id="ag" x1="65" y1="289.12" y2="289.12" xlink:href="#k"/>
    <linearGradient id="ak" y1="277.32" y2="277.32" xlink:href="#k"/>
    <linearGradient id="aq" y1="264.82" y2="264.82" xlink:href="#k"/>
    <filter id="au" data-name="drop-shadow-1" filterUnits="userSpaceOnUse">
      <feOffset dx="3" dy="3"/>
      <feGaussianBlur result="av" stdDeviation="5"/>
      <feFlood flood-color="#494949" flood-opacity=".75"/>
      <feComposite in2="av" operator="in"/>
      <feComposite in="SourceGraphic"/>
    </filter>
    <filter id="bj" data-name="drop-shadow-2" filterUnits="userSpaceOnUse">
      <feOffset dx="3" dy="3"/>
      <feGaussianBlur result="bk" stdDeviation="5"/>
      <feFlood flood-color="#494949" flood-opacity=".75"/>
      <feComposite in2="bk" operator="in"/>
      <feComposite in="SourceGraphic"/>
    </filter>
    <filter id="bl" data-name="drop-shadow-3" filterUnits="userSpaceOnUse">
      <feOffset dx="3" dy="3"/>
      <feGaussianBlur result="bm" stdDeviation="5"/>
      <feFlood flood-color="#494949" flood-opacity=".75"/>
      <feComposite in2="bm" operator="in"/>
      <feComposite in="SourceGraphic"/>
    </filter>
  </defs>
  <path id="c" data-name="Lights On" class="by" d="M150,396h-12.87c2.99-26-20.84-25.89-32.71-37.16,7.82.08,12.42.16,14.14.12l-.13-12.96h-53.43v-70h36v-12.21l-36-30.65v-36.72c0-1.05.02-1.45,0-3.42h36v-11.74l-36-30.65v-35.98c0-1.05-1.95-1.63-1.11-1.63h23.11v-13.19c-6,.01-12.11.03-18.23.09,27.56-15.72,57.31-29.31,85.67-44.21,31.41,12.53,59.39,29.31,89.2,43.47-5.42.16-10.63.28-15.63.39v13.45h21v37.61l-36,30.65v11.74h36v40.14l-36,30.65v12.21h15.64c3.76,0,4.98,0,4.93,0h15.42v70h-54v12.23c4,0,8.48.05,12.9-.01-10.76,12.65-36.31,8.78-33.06,37.78h-24.84ZM65,359h12v48h-12v-48ZM249,407h-14v-48h14v48Z"/>
  <g id="d" data-name="20">
    <g id="e" data-name="Level">
      <path id="g" data-name="20" class="ca" d="M248.69,323h.06c-.04-2.13-.06-3.16-.06-3.16,0-12.39-10.83,4.35-12.91-6.84-6.8-4.37-8.17-.75-13.02,0l-12.06,5.83c-3.31-.17-19.72-.48-15.3-.61-29.81-14.17-6.96,5.36-38.38-7.17-28.36,14.9-5.49-13.05-33.04,2.66,5.4-.04-17.51,2.47-18.75,3.06l-15.93-2.53c-7.84,0-4.52-2-11.49.79-.78.31.74,9.15-3.95,0-5.42-10.57-8.5-7.37-8.5,4.57,0,0-.02,1.26-.04,3.39h.04c-.04.49-.34,3.71-.34,5.85-.18.28,0,.33,0,.48v20.67h53.42l-1.05,7.29c-1.72.04-2.71-.79-3.94-.76.3-.08-4.32,1.9-12.14,1.82,11.87,11.08,38.83,12.3,35.84,37.64h37.71c-3.25-28.39,23.97-26.01,34.73-38.44-4.41.06-10.56-.88-14.56-.87v-6.69h54v-21.15c0-3.83-.28-5.61-.31-5.85Z"/>
      <g id="h" data-name="Label Qty">
        <path class="cg" d="M193.74,320.07c0-4.32,3.5-7.82,7.82-7.82s7.82,3.5,7.82,7.82-3.5,7.82-7.82,7.82-7.82-3.5-7.82-7.82Z"/>
        <text id="i" data-name="30" class="ch" transform="translate(195.41 324.2)"><tspan x="0" y="0">20</tspan></text>
      </g>
    </g>
  </g>
  <g id="j" data-name="30">
    <path class="cc" d="M248.69,298h.06c-.04-2.13-.06-3.16-.06-3.16,0-12.39-12.91,4.16-12.91-6.84-1.85-3.03-4.07-3.54-13.02,0l-12.06,5.83c-3.31-.17-19.72-.48-15.3-.61-29.81-14.17-6.96,5.36-38.38-7.17-28.36,14.9-5.49-13.05-33.04,2.66,5.4-.04-17.51,2.47-18.75,3.06l-15.93-2.53c-7.84,0-3.33-3.42-11.49.79-.75.39.74,9.15-3.95,0-5.42-10.57-8.5-7.37-8.5,4.57,0,0-.02,1.26-.04,3.39h.04c-.04.95-.34,7.13-.34,11.25-.18.54,0,.64,0,.92v40.83h52.87l-.03,7.04c-1.74.04-3.21.25-4.46.29.3-.08-1.77-.16-9.7-.24,12.04,11.5,36.2,11.91,33.17,37.91h38.24c-3.29-30,22.84-25.64,33.75-38.55-4.47.06-8.86.03-12.86.04v-6.49h53v-41.75c0-7.36-.28-10.78-.31-11.25Z"/>
    <g id="l" data-name="Level">
      <g id="m" data-name="Label Qty">
        <path class="cf" d="M193.74,295.07c0-4.32,3.5-7.82,7.82-7.82s7.82,3.5,7.82,7.82-3.5,7.82-7.82,7.82-7.82-3.5-7.82-7.82Z"/>
        <text id="n" data-name="30" class="ch" transform="translate(195.41 299.2)"><tspan x="0" y="0">30</tspan></text>
      </g>
    </g>
  </g>
  <g id="o" data-name="40">
    <path class="cb" d="M248.69,273h.06c-.04-2.13-.06-3.16-.06-3.16,0-12.39-12.91,4.16-12.91-6.84h-13.02l-12.06,5.83c-3.31-.17-19.72-.48-15.3-.61-29.81-14.17-6.96,5.36-38.38-7.17-28.36,14.9-5.49-13.05-33.04,2.66,5.4-.04-17.51,2.47-18.75,3.06l-15.93-2.53c-7.84,0-3.65.79-11.49.79-.85,0,.74,9.15-3.95,0-5.42-10.57-8.5-7.37-8.5,4.57,0,0-.02,1.26-.04,3.39h.04c-.04,1.4-.34,10.53-.34,16.61-.18.79,0,.95,0,1.36v60.03h52.87l-.03,7.04c-1.74.04-3.21.25-4.46.29.3-.08-1.77-.16-9.7-.24,12.04,11.5,36.2,11.91,33.17,37.91h38.24c-3.29-30,22.84-25.64,33.75-38.55-4.47.06-8.86.03-12.86.04v-6.49h53v-61.39c0-10.86-.28-15.92-.31-16.61Z"/>
    <g id="q" data-name="Level">
      <g id="r" data-name="Label Qty">
        <path class="cf" d="M193.74,270.07c0-4.32,3.5-7.82,7.82-7.82s7.82,3.5,7.82,7.82-3.5,7.82-7.82,7.82-7.82-3.5-7.82-7.82Z"/>
        <text id="s" data-name="40" class="ch" transform="translate(195.41 274.2)"><tspan x="0" y="0">40</tspan></text>
      </g>
    </g>
  </g>
  <g id="t" data-name="50">
    <g id="u" data-name="Level">
      <path class="bz" d="M248.69,248h.06c-.04-2.13-.06-3.16-.06-3.16,0-12.39-12.91,4.16-12.91-6.84-7.65-3.5-9.87-1.67-13.02,0l-12.06,5.83c-3.31-.17-19.72-.48-15.3-.61-29.81-14.17-6.96,5.36-38.38-7.17-28.36,14.9-5.49-13.05-33.04,2.66,5.4-.05-17.51,2.47-18.75,3.06l-15.93-2.53c-7.84,0-3.67-4.75-11.49.79-.69.49.74,9.15-3.95,0-5.42-10.57-8.5-7.37-8.5,4.57,0,0-.02,1.26-.04,3.39h.04c-.04,1.84-.34,13.92-.34,21.94-.18,1.05,0,1.25,0,1.8v79.26h52.87l-.03,7.04c-1.74.04-3.21.25-4.46.29.3-.08-1.77-.16-9.7-.24,12.04,11.5,36.2,11.91,33.17,37.91h38.24c-3.29-30,22.84-25.64,33.75-38.55-4.47.06-8.86.03-12.86.04v-6.49h53v-81.05c0-14.36-.28-21.03-.31-21.95Z"/>
      <g id="w" data-name="Label Qty">
        <circle class="cf" cx="201.56" cy="245.07" r="7.82"/>
        <text id="x" data-name="50" class="ch" transform="translate(195.41 249.2)"><tspan x="0" y="0">50</tspan></text>
      </g>
    </g>
  </g>
  <g id="y" data-name="60">
    <g id="z" data-name="Level">
      <path id="ab" data-name="60" class="bu" d="M248.69,223h.06c-.04-2.13-.06-3.16-.06-3.16,0-12.39-12.91,4.16-12.91-6.84-.49-3.12-3.39-3.46-13.02,0l-12.06,5.83c-3.31-.17-19.72-.48-15.3-.61-29.81-14.17-6.96,5.36-38.38-7.17-28.36,14.9-5.49-13.05-33.04,2.66,5.4-.05-17.51,2.47-18.75,3.06l-15.93-2.53c-7.84,0-7.18-6.14-11.49.79-1.57,2.52.74,9.15-3.95,0-5.42-10.57-8.5-7.37-8.5,4.57,0,0-.02,1.26-.04,3.39h.04c-.04,2.3-.34,17.38-.34,27.4-.18,1.3,0,1.56,0,2.24v98.35h52.87l-.03,7.04c-1.74.04-3.21.25-4.46.29.3-.08-1.77-.16-9.7-.24,12.04,11.5,36.2,11.91,33.17,37.91h38.24c-3.29-30,22.84-25.64,33.75-38.55-4.47.06-8.86.03-12.86.04v-6.49h53v-100.59c0-17.93-.28-26.26-.31-27.41Z"/>
      <g id="ac" data-name="Label Qty">
        <circle class="cf" cx="201.56" cy="220.07" r="7.82"/>
        <text id="ad" data-name="60" class="ch" transform="translate(195.41 224.2)"><tspan x="0" y="0">60</tspan></text>
      </g>
    </g>
  </g>
  <g id="ae" data-name="70">
    <g id="af" data-name="Level">
      <path class="bt" d="M248.69,198h.06c-.04-2.13-.06-3.16-.06-3.16,0-12.39-12.91,4.16-12.91-6.84h-13.02l-12.06,5.83c-3.31-.17-19.72-.48-15.3-.61-29.81-14.17-6.96,5.36-38.38-7.17-28.36,14.9-5.49-13.05-33.04,2.66,5.4-.05-17.51,2.47-18.75,3.06l-15.93-2.53c-7.84,0-3.65.79-11.49.79-.85,0,.44,6.96-4.25-2.19-5.42-10.57-8.55-5.01-8.55,6.93,0,0,.02,1.07,0,3.21v150.02h52.88l-.04,10.04c-1.74.04-3.21.25-4.46.29.3-.08-1.77-.16-9.7-.24,12.04,11.5,36.2,11.91,33.17,37.91h38.24c-3.29-30,22.84-25.64,33.75-38.55-4.47.06-8.86.03-12.86.04v-9.49h53v-117.66c0-21.15-.28-30.98-.31-32.34Z"/>
      <g id="ah" data-name="Label Qty">
        <circle class="cf" cx="201.56" cy="195.07" r="7.82"/>
        <text id="ai" data-name="70" class="ch" transform="translate(195.41 199.2)"><tspan x="0" y="0">70</tspan></text>
      </g>
    </g>
  </g>
  <g id="aj" data-name="80">
    <path class="bw" d="M248.69,173h.06c-.04-2.13-.06-3.16-.06-3.16,0-12.39-12.91,4.16-12.91-6.84h-13.02l-12.06,5.83c-3.31-.17-19.72-.48-15.3-.61-29.81-14.17-6.96,5.36-38.38-7.17-28.36,14.9-5.49-13.05-33.04,2.66,5.4-.05-17.51,2.47-18.75,3.06l-15.93-2.53c-7.84,0-3.65.79-11.49.79-.85,0,.74,9.15-3.95,0-5.42-10.57-8.5-7.37-8.5,4.57,0,0-.02,1.26-.04,3.39h.04c-.04,3.21-.34,24.22-.34,38.18-.18,1.82,0,2.17,0,3.12v135.7h52.87l-.03,8.04c-1.74.04-3.21.25-4.46.29.3-.08-1.77-.16-9.7-.24,12.04,11.5,36.2,11.91,33.17,37.91h38.24c-3.29-30,22.84-25.64,33.75-38.55-4.47.06-8.86.03-12.86.04v-7.49h53v-138.8c0-24.98-.28-36.59-.31-38.2Z"/>
    <g id="al" data-name="Level">
      <g id="am" data-name="Label Qty">
        <circle class="cf" cx="201.56" cy="170.07" r="7.82"/>
        <text id="an" data-name="80" class="ch" transform="translate(195.41 174.2)"><tspan x="0" y="0">80</tspan></text>
      </g>
    </g>
  </g>
  <g id="ao" data-name="90">
    <g id="ap" data-name="Level">
      <path id="ar" data-name="90" class="bv" d="M248.69,148h.06c-.04-2.13-.06-3.16-.06-3.16,0-12.39-12.91,4.16-12.91-6.84-1-2.87-4.75-4.37-13.02,0l-12.06,5.83c-3.31-.17-19.72-.48-15.3-.61-29.81-14.17-6.96,5.36-38.38-7.17-28.36,14.9-5.49-13.05-33.04,2.66,5.4-.05-17.51,2.47-18.75,3.06l-15.93-2.53c-7.84,0-6.15-4.58-11.49.79-1.74,1.75.74,9.15-3.95,0-5.42-10.57-8.5-7.37-8.5,4.57,0,0-.02,1.26-.04,3.39h.04c-.04,3.66-.34,27.62-.34,43.54-.18,2.07,0,2.48,0,3.56v154.89h52.87l-.03,8.04c-1.74.04-3.21.25-4.46.29.3-.08-1.77-.16-9.7-.24,12.04,11.5,36.2,11.91,33.17,37.91h38.24c-3.29-30,22.84-25.64,33.75-38.55-4.47.06-8.86.03-12.86.04v-7.49h53v-158.44c0-28.49-.28-41.73-.31-43.56Z"/>
      <g id="as" data-name="Label Qty">
        <circle class="cf" cx="201.56" cy="145.07" r="7.82"/>
        <text id="at" data-name="80" class="ch" transform="translate(195.41 149.2)"><tspan x="0" y="0">90</tspan></text>
      </g>
    </g>
  </g>
  <path id="aw" data-name="HopperBody" class="bx" d="M260.05,137.47c0-14.72.12-31.76-.89-39.79-.96-7.65-8.45-9.18-22.92-16.05-27.45-13.04-49.58-25.63-76.58-39.63h-7.25c-23.66,12-51.52,26.53-77.59,39.63-9,4.53-19.85,9.62-22.43,15.76-3.02,7.19-.12,300.05-.12,322.07,6.04,0,35.09-.06,35.09-.06,0,0,.81-39.3.52-56.97,12.77,7.41,25.19,15.38,36.93,23.83-2.06,17.29,4.25,20.78,18.25,21.45v70.28h7v-82h-12.87c2.99-26-20.84-25.89-32.71-37.16,7.82.08,12.42.16,14.14.12l-.13-12.96h-53.43v-70h36v-12.21l-36-30.65v-36.72c0-1.05.02-1.45,0-3.42h36v-11.74l-36-30.65v-35.98c0-1.05-1.95-1.63-1.11-1.63h23.11v-13.19c-6,.01-12.11.03-18.23.09,27.56-15.72,57.31-29.31,85.67-44.21,31.41,12.53,59.39,29.31,89.2,43.47-5.42.16-10.63.28-15.63.39v13.45h21v37.61l-36,30.65v11.74h36v40.14l-36,30.65v12.21h15.64c3.76,0,4.98,0,4.93,0h15.42v70h-54v12.23c4,0,8.48.05,12.9-.01-10.76,12.65-36.31,8.78-33.06,37.78h-10.84v82h7v-70.54c12-1.17,19.45-5.5,16.19-21.67,12.59-6.61,25.03-18.01,36.96-22.83.33,14.29.38,57.05.38,57.05h35.68s-.22-200.37-.22-282.53ZM65.05,359h12v48h-12v-48ZM249.05,407h-14v-48h14v48Z"/>
  <g id="ax" data-name="Flow">
    <polygon id="ay" data-name="flow8" class="bo" points="159.13 404.18 152.83 403.04 154.02 396.26 160.32 397.4 159.13 404.18"/>
    <polygon id="az" data-name="flow7" class="bp" points="159.69 410.94 153.75 410.34 154.34 404.31 160.28 404.91 159.69 410.94"/>
    <polygon id="ba" data-name="flow6" class="bn" points="156.71 417.52 151.92 416.74 152.68 411.88 157.47 412.65 156.71 417.52"/>
    <polygon id="bb" data-name="flow5" class="bn" points="163.09 420.69 158.08 423.22 155.59 418.14 160.59 415.6 163.09 420.69"/>
    <polygon id="bc" data-name="flow4" class="bn" points="159.8 434.37 153.62 433.74 154.24 427.47 160.41 428.09 159.8 434.37"/>
    <polygon id="bd" data-name="flow3" class="bn" points="157.09 447.35 151.39 446.43 152.3 440.63 158.01 441.55 157.09 447.35"/>
    <polygon id="be" data-name="flow2" class="bn" points="160.04 460.88 153.33 460.21 154 453.4 160.7 454.07 160.04 460.88"/>
    <polygon id="bf" data-name="flow1" class="bn" points="157.15 467.66 151.31 466.71 152.24 460.77 158.09 461.71 157.15 467.66"/>
  </g>
  <g id="bg" data-name="Stirrer">
    <path class="bq" d="M152,80v222.3c2.33.24,4.68.23,7-.02V80h-7Z"/>
    <g id="bh" data-name="Rotation Direction">
      <path class="bs" d="M164.5,101.99c-.21-1.04,2.92-1.8,3.66-2.2,1.48-.79,3.77-2.33,2.83-4.47-.72-1.64-3.36-2.96-5.93-3.81v-1.77c3.66,1.07,9.74,3.5,8.13,7.85-.59,1.59-2.37,2.95-4.19,3.85-.84.41-4.21,2.02-4.5.55Z"/>
      <path class="bs" d="M151.42,107.49c-.55-1.23,2.43-1.94,2.83-2.83-4.71-.16-8.38-.63-12.04-1.65-3.87-1.07-9.3-3.22-8.7-7.3.41-2.79,4.5-4.84,8.27-5.96.07-.02.14-.04.21-.06v1.78c-2.65.86-5.33,2.19-6.08,3.78-.41.88-.11,1.97.42,2.67,1.49,1.96,4.33,2.91,7.33,3.69,3.11.8,6.65,1.25,10.37,1.41-.54-1.21-2.98-1.32-2.72-2.67.07-.35.65-.67.94-.71,1.17-.13,2.32,1.26,3.14,1.88.98.73,2.58,1.48,2.62,2.28.05.96-3.13,2.74-4.08,3.45-.64.48-2.03,1.33-2.51.24Z"/>
      <path class="bs" d="M164.54,91.27c.85.25,1.25.41,2.48.79l.37-1.5c-1.24-.37-1.73-.54-2.68-.81.55-.71,3.39-.69,3.17-1.91-.19-1.08-1.63-.63-2.31-.34-1.01.43-4.26,1.33-4.43,2.2-.14.72,1.13,1.75,1.85,2.62.61.74,1.33,2.24,2.41,2.39.27.04.86-.13,1-.43.53-1.15-1.65-1.79-1.87-3Z"/>
    </g>
  </g>
  <path id="bi" data-name="Light Off" class="br" d="M150,396h-12.87c2.99-26-20.84-25.89-32.71-37.16,7.82.08,12.42.16,14.14.12l-.13-12.96h-53.43v-70h36v-12.21l-36-30.65v-36.72c0-1.05.02-1.45,0-3.42h36v-11.74l-36-30.65v-35.98c0-1.05-1.95-1.63-1.11-1.63h23.11v-13.19c-6,.01-12.11.03-18.23.09,27.56-15.72,57.31-29.31,85.67-44.21,31.41,12.53,59.39,29.31,89.2,43.47-5.42.16-10.63.28-15.63.39v13.45h21v37.61l-36,30.65v11.74h36v40.14l-36,30.65v12.21h15.64c3.76,0,4.98,0,4.93,0h15.42v70h-54v12.23c4,0,8.48.05,12.9-.01-10.76,12.65-36.31,8.78-33.06,37.78h-24.84ZM65,359h12v48h-12v-48ZM249,407h-14v-48h14v48Z"/>
  <path class="cd" d="M65,359h12v48h-12v-48Z"/>
  <path class="ce" d="M249,407h-14v-48h14v48Z"/>
</svg>