<?xml version="1.0" encoding="UTF-8"?>
<svg id="a" data-name="Tank-1" xmlns="http://www.w3.org/2000/svg" width="398.97" height="490" xmlns:xlink="http://www.w3.org/1999/xlink" viewBox="0 0 398.97 490">
  <defs>
    <style>
      .f {
        fill: none;
        stroke: #000;
        stroke-miterlimit: 10;
        stroke-width: 2px;
      }

      .g {
        letter-spacing: 0em;
      }

      .h {
        fill: red;
        filter: url(#d);
        font-family: OpenSans-Regular, 'OpenSans Regular';
        font-size: 48px;
      }

      .i {
        fill: #ffc;
      }

      .i, .j {
        fill-rule: evenodd;
        stroke-width: 0px;
      }

      .j {
        fill: #000;
      }
    </style>
    <filter id="d" data-name="drop-shadow-1" filterUnits="userSpaceOnUse">
      <feOffset dx="5" dy="5"/>
      <feGaussianBlur result="e" stdDeviation="3"/>
      <feFlood flood-color="#494949" flood-opacity=".8"/>
      <feComposite in2="e" operator="in"/>
      <feComposite in="SourceGraphic"/>
    </filter>
  </defs>
  <path class="j" d="M248.52,115h14.48v-15h-14.48c-3.17,0-5.83-2.66-6.21-7.27-2.14-25.87-8.92-45.16-25.13-49.79-29-8.29-91.35-6.64-120.75.13-17.77,4.09-26.55,24.46-30.95,50.69-.69,4.11-3.2,6.25-6.08,6.25h-15.4v15.54s13.29-.17,14.39-.09c3.33.25,5.61,4.29,5.61,9.18v195.46c0,5.07-2.2,7.92-5.66,7.92h-14.94c-.05,5,0,6.46.06,9.67.02,1.04.04,3.33.05,3.33h14.83c3.46,0,5.66,5.03,5.66,10.11v68.89h9v-56.48c0-3.33,1.33-6.39,3.31-8.02.95-.78,2.06-1.17,3.11-1.17,1.13,0,2.3.45,3.3,1.35,10.21,9.18,20.82,18.38,30.98,27.28,8.3,7.27,16.3,14.69,25.3,22.21v30.83h9v-37.47c-11-10.35-22.8-20.23-34.17-29.79-3.52-2.96-7.04-5.92-10.55-8.89-2.41-2.05-3.61-6.19-2.95-10.16.67-3.97,3.04-7.42,5.82-7.59,10.58-.63,22.01-.91,37.07-.91,7.05,0,14.26.06,21.22.12,6.95.06,14.14.26,21.16.26,5.43,0,10.26-.57,14.77-.57h.07c2.77,0,5.21,3.12,6,7.02.8,3.93-.28,8.4-2.64,10.61-13.59,12.72-28.41,24.83-42.29,36.43-1.02.85-2.53,1.82-3.53,2.67v38.27h10v-30.83c20-16.96,38.1-33.94,56.27-48.9.95-.78,2.03-1.17,3.09-1.17s2.38.42,3.35,1.26c1.92,1.65,3.29,4.67,3.29,7.93v55.71h8.33c.02-6-.03-14.04-.08-20.83-.11-16.25-.23-33.64.55-49.07.25-4.8,2.97-9.1,6.25-9.1h13.95v-11.78s-1.02.04-1.64.06c-1.66.06-3.29.12-4.98.12-3.87,0-5.8-.33-8.3-1.09-2.91-.88-4.08-4.64-4.08-9V124.63c0-5.08,1.06-9.63,4.52-9.63ZM76.58,96.33c-.89-1.74-1.32-3.43-1.25-5.34-.06,1.9.37,3.58,1.25,5.32,1.18,2.32,3.03,2.91,5,2.91-1.97,0-3.82-.57-5-2.89ZM232.01,97.01c1.13-1.83,1.69-3.89,1.61-6.32,0,.01,0,.03,0,.04.16,2.59-.43,4.36-1.61,6.28Z"/>
  <path id="b" data-name="Background" class="i" d="M73.21,125.89c-.3-10.11,5.25-11.59,5.89-11.73.3-.06.6-.09.89-.09h147.39c3.46,0,6.26,4.14,6.26,9.25v196.64c0,5.11-2.8,9.25-6.26,9.25H79.47c-3.46,0-6.26-4.14-6.26-9.25V125.89ZM143.23,341.18c-15.06,0-26.49.28-37.07.91-2.78.16-5.16,3-5.82,6.95-.67,3.95.53,8.07,2.94,10.11,3.51,2.96,7.02,5.91,10.54,8.85,11.89,9.95,23.92,20.94,35.42,31.77,1.03.97,2.48.75,3.66.75,1.07,0,2.14-.4,3.1-1.2,2-1.67,4-3.33,6-5,13.87-11.55,28.22-23.49,41.81-36.15,2.36-2.2,3.43-6.41,2.64-10.33-.79-3.88-3.23-6.54-6-6.54h-.07c-4.5.07-9.34.11-14.77.11-7.02,0-14.2-.06-21.16-.12-6.96-.06-14.17-.12-21.22-.12ZM128.37,50.56c-21.9,0-45.84,2.93-52.8,37.87-.54,2.74-.17,5.69,1.01,7.97,1.18,2.28,3.03,3.62,5,3.62h145.8c1.76,0,3.44-1.07,4.62-2.96,1.19-1.88,1.77-4.4,1.61-6.94-2.5-39.58-31.6-39.58-45.59-39.58l-59.67.02Z"/>
  <g id="c" data-name="Empty">
    <line class="f" x1="97" y1="206" x2="206" y2="206"/>
    <text class="h" transform="translate(87 200.47)"><tspan x="0" y="0">Emp</tspan><tspan class="g" x="90.96" y="0">t</tspan><tspan x="107.28" y="0">y</tspan></text>
  </g>
  <path class="j" d="M164.02,433h-20.42c-.11,0,5.4,2.29,5.4,5.1v39.9h9.01c.24-13.06.38-39.03.81-39.91,1.28-2.64,5.08-5.09,5.21-5.09Z"/>
</svg>