<?xml version="1.0" encoding="UTF-8"?>
<svg id="a" data-name="Screw" xmlns="http://www.w3.org/2000/svg" width="880.06" height="498.36" xmlns:xlink="http://www.w3.org/1999/xlink" viewBox="0 0 880.06 498.36">
  <defs>
    <style>
      .n {
        fill: url(#e);
        filter: url(#f);
      }

      .n, .o, .p, .q, .r {
        stroke-width: 0px;
      }

      .o {
        fill: url(#b);
        filter: url(#c);
      }

      .p {
        fill: #000;
      }

      .q {
        fill: red;
        filter: url(#j);
      }

      .r {
        fill: url(#i);
      }
    </style>
    <radialGradient id="b" cx="746.73" cy="429.97" fx="746.73" fy="429.97" r="47.18" gradientUnits="userSpaceOnUse">
      <stop offset="0" stop-color="#f2f2f2"/>
      <stop offset=".28" stop-color="#f6f6f6"/>
      <stop offset=".5" stop-color="#fff"/>
      <stop offset=".56" stop-color="rgba(232, 232, 232, .98)" stop-opacity=".98"/>
      <stop offset=".71" stop-color="rgba(177, 177, 177, .93)" stop-opacity=".93"/>
      <stop offset=".84" stop-color="rgba(136, 136, 136, .9)" stop-opacity=".9"/>
      <stop offset=".94" stop-color="rgba(111, 111, 111, .88)" stop-opacity=".88"/>
      <stop offset="1" stop-color="#666" stop-opacity=".87"/>
      <stop offset="1" stop-color="#000" stop-opacity=".82"/>
    </radialGradient>
    <filter id="c" data-name="drop-shadow-1" filterUnits="userSpaceOnUse">
      <feOffset dx="3" dy="-1"/>
      <feGaussianBlur result="d" stdDeviation="3"/>
      <feFlood flood-color="#494949" flood-opacity="1"/>
      <feComposite in2="d" operator="in"/>
      <feComposite in="SourceGraphic"/>
    </filter>
    <radialGradient id="e" cx="754.43" cy="185.36" fx="754.43" fy="185.36" r="48.94" gradientTransform="translate(1247.41 775.38) rotate(-141) scale(1 .8)" gradientUnits="userSpaceOnUse">
      <stop offset="0" stop-color="#f2f2f2"/>
      <stop offset=".37" stop-color="#f3f3f3"/>
      <stop offset=".5" stop-color="#fafafa"/>
      <stop offset=".54" stop-color="#fff"/>
      <stop offset=".61" stop-color="rgba(214, 214, 214, .97)" stop-opacity=".97"/>
      <stop offset=".7" stop-color="rgba(174, 174, 174, .93)" stop-opacity=".93"/>
      <stop offset=".79" stop-color="rgba(142, 142, 142, .9)" stop-opacity=".9"/>
      <stop offset=".87" stop-color="rgba(120, 120, 120, .89)" stop-opacity=".89"/>
      <stop offset=".94" stop-color="rgba(106, 106, 106, .87)" stop-opacity=".87"/>
      <stop offset="1" stop-color="#666" stop-opacity=".87"/>
      <stop offset="1" stop-color="#000" stop-opacity=".82"/>
    </radialGradient>
    <filter id="f" data-name="drop-shadow-2" filterUnits="userSpaceOnUse">
      <feOffset dx="2" dy="5"/>
      <feGaussianBlur result="g" stdDeviation="3"/>
      <feFlood flood-color="#494949" flood-opacity="1"/>
      <feComposite in2="g" operator="in"/>
      <feComposite in="SourceGraphic"/>
    </filter>
    <radialGradient id="i" cx="753.2" cy="316.9" fx="753.2" fy="316.9" r="101.5" gradientUnits="userSpaceOnUse">
      <stop offset="0" stop-color="#f2f2f2"/>
      <stop offset=".4" stop-color="#f6f6f6"/>
      <stop offset=".72" stop-color="#fff"/>
      <stop offset=".77" stop-color="rgba(228, 228, 228, .98)" stop-opacity=".98"/>
      <stop offset=".9" stop-color="rgba(159, 159, 159, .92)" stop-opacity=".92"/>
      <stop offset="1" stop-color="#666" stop-opacity=".87"/>
      <stop offset="1" stop-color="#000" stop-opacity=".82"/>
    </radialGradient>
    <filter id="j" data-name="drop-shadow-3" filterUnits="userSpaceOnUse">
      <feOffset dx="3" dy="2"/>
      <feGaussianBlur result="k" stdDeviation="3"/>
      <feFlood flood-color="#494949" flood-opacity=".86"/>
      <feComposite in2="k" operator="in"/>
      <feComposite in="SourceGraphic"/>
    </filter>
  </defs>
  <polygon class="o" points="703.92 405 738.38 465 765.14 465 799.59 405 703.92 405"/>
  <polygon class="n" points="704.92 171 739.38 231 766.14 231 800.59 171 704.92 171"/>
  <g id="h" data-name="Body">
    <path class="r" d="M753.2,418.4c-55.97,0-101.5-45.53-101.5-101.5s45.53-101.5,101.5-101.5,101.5,45.53,101.5,101.5-45.53,101.5-101.5,101.5Z"/>
    <path class="r" d="M753.2,418.4c-55.97,0-101.5-45.53-101.5-101.5s45.53-101.5,101.5-101.5,101.5,45.53,101.5,101.5-45.53,101.5-101.5,101.5ZM753.2,218.4c-54.31,0-98.5,44.19-98.5,98.5s44.19,98.5,98.5,98.5,98.5-44.19,98.5-98.5-44.19-98.5-98.5-98.5Z"/>
  </g>
  <path id="l" data-name="Centre" class="q" d="M753.06,286.98c-16.57,0-30,13.43-30,30s13.43,30,30,30,30-13.43,30-30-13.43-30-30-30ZM753.06,340.98c-13.25,0-24-10.75-24-24s10.75-24,24-24,24,10.75,24,24-10.74,24-24,24Z"/>
  <path id="m" data-name="Centre" class="p" d="M733.06,316.98c0-11.04,8.96-20,20-20s20,8.96,20,20-8.95,20-20,20-20-8.96-20-20Z"/>
</svg>