<?xml version="1.0" encoding="UTF-8"?>
<svg id="a" data-name="Screw" xmlns="http://www.w3.org/2000/svg" width="880.06" height="498.36" viewBox="0 0 880.06 498.36">
  <defs>
    <style>
      .c {
        fill: #000;
        stroke-width: 0px;
      }
    </style>
  </defs>
  <path id="b" data-name="Rotor" class="c" d="M679.57,265.23c.9-2.35,3.21-5.68,6.7-7.51,3.78-1.99,15.91-4.53,18.05-4.78,5.5-.66,16.62-1.2,22.15-.84,4.06.26,12.17,1.72,16.04,2.73,2.56.67,8.27,3.25,10.68,4.22,8.66,3.5,25.98,16.77,25.98,16.77l5.16,6.19h-1.66l-6.21-3.29-8.01-6.04-7.47-4.17-8.77-3.58s-6.11-1.65-8.2-1.93c-3.74-.5-14.98-.99-18.73-.7-5.16.41-15.61,3.53-15.61,3.53,0,0-8.34,3.24-10.32,4.21-.84.41-5.57,1.9-5.57,1.9,0,0-3.24.89-4.34,1.09-1.73.3-5.46.39-7.03-.41-1.22-.63-2.19-1.51-2.83-2.71-.7-1.32-.41-3.57,0-4.66ZM667.81,336.78c1.31.39,2.62.31,3.92-.12,1.67-.56,4.21-3.28,5.21-4.73.63-.92,2.27-3.86,2.27-3.86,0,0,2.25-4.42,2.54-5.3.69-2.09,4.22-10.31,4.22-10.31,0,0,5.08-9.65,8.41-13.62,2.42-2.89,10.64-10.58,13.61-12.89,1.66-1.29,7.11-4.51,7.11-4.51l8.68-3.77,8.18-2.44,9.86-1.55,6.58-2.25,1.16-1.18-7.92-.54s-21.48,3.19-30.04,6.93c-2.38,1.04-8.22,3.32-10.49,4.67-3.43,2.05-10.15,6.83-13.18,9.54-4.13,3.7-11.53,12.01-14.9,16.41-1.32,1.71-7.99,12.15-9.22,16.24-1.13,3.77-.37,7.75.68,10.04.49,1.06,1.9,2.84,3.33,3.26ZM706.68,389.66c1.21-.63,2.1-1.59,2.74-2.81.82-1.56.75-5.29.47-7.02-.18-1.1-1.05-4.35-1.05-4.35,0,0-1.45-4.74-1.85-5.58-.95-1.98-4.12-10.35-4.12-10.35,0,0-3.04-10.48-3.4-15.64-.27-3.76.32-15,.85-18.73.3-2.08,1.98-8.18,1.98-8.18l3.63-8.74,4.19-7.43,6.02-7.96,3.18-6.19v-1.66s-6.06,5.11-6.06,5.11c0,0-13.25,17.21-16.82,25.84-.99,2.4-3.62,8.09-4.31,10.64-1.05,3.86-2.57,11.96-2.87,16.02-.4,5.53.04,16.65.66,22.16.24,2.15,2.68,14.3,4.63,18.09,1.8,3.5,5.11,5.84,7.46,6.76,1.08.42,3.34.73,4.66.04ZM772.96,402.43c.39-1.31.32-2.62-.11-3.92-.55-1.67-3.27-4.22-4.72-5.22-.92-.63-3.86-2.27-3.86-2.27,0,0-4.41-2.26-5.3-2.55-2.08-.69-10.3-4.24-10.3-4.24,0,0-9.64-5.11-13.6-8.44-2.88-2.43-10.55-10.66-12.86-13.64-1.29-1.66-4.5-7.12-4.5-7.12l-3.75-8.69-2.42-8.18-1.53-9.87-2.23-6.59-1.18-1.17-.55,7.92s3.14,21.49,6.86,30.06c1.03,2.38,3.3,8.23,4.65,10.5,2.04,3.44,6.8,10.17,9.51,13.2,3.69,4.14,11.99,11.55,16.37,14.94,1.71,1.32,12.13,8.02,16.22,9.26,3.77,1.14,7.75.39,10.04-.65,1.06-.49,2.84-1.9,3.27-3.32ZM733.88,231.69c-.37,1.31-.27,2.62.18,3.92.58,1.66,3.35,4.16,4.81,5.14.93.62,3.9,2.21,3.9,2.21,0,0,4.45,2.18,5.34,2.46,2.1.66,10.37,4.07,10.37,4.07,0,0,9.73,4.95,13.74,8.21,2.93,2.38,10.73,10.48,13.09,13.42,1.32,1.64,4.62,7.04,4.62,7.04l3.9,8.63,2.56,8.14,1.69,9.84,2.34,6.55,1.2,1.15.42-7.92s-3.5-21.43-7.37-29.94c-1.07-2.37-3.43-8.17-4.82-10.42-2.1-3.4-6.98-10.05-9.74-13.04-3.76-4.07-12.18-11.35-16.62-14.66-1.73-1.29-12.27-7.82-16.37-8.98-3.79-1.08-7.76-.26-10.03.83-1.05.5-2.81,1.94-3.21,3.38ZM800.19,243.38c-1.2.65-2.07,1.63-2.69,2.86-.79,1.57-.65,5.3-.33,7.03.21,1.1,1.13,4.33,1.13,4.33,0,0,1.54,4.71,1.96,5.55.99,1.96,4.32,10.27,4.32,10.27,0,0,3.23,10.42,3.7,15.57.33,3.76-.04,15-.5,18.74-.26,2.09-1.83,8.22-1.83,8.22l-3.47,8.81-4.05,7.51-5.87,8.07-3.06,6.25.02,1.66,5.97-5.22s12.92-17.45,16.33-26.15c.95-2.42,3.46-8.16,4.11-10.72.97-3.88,2.34-12.01,2.56-16.07.3-5.54-.35-16.65-1.08-22.14-.28-2.14-2.95-14.24-4.97-18-1.87-3.46-5.22-5.74-7.58-6.61-1.09-.4-3.35-.66-4.66.05ZM838.9,297.41c-1.3-.38-2.62-.31-3.92.13-1.67.56-4.21,3.29-5.2,4.74-.63.92-2.26,3.87-2.26,3.87,0,0-2.24,4.42-2.53,5.31-.69,2.09-4.2,10.32-4.2,10.32,0,0-5.07,9.66-8.38,13.64-2.41,2.9-10.62,10.6-13.59,12.92-1.66,1.29-7.1,4.52-7.1,4.52l-8.68,3.79-8.17,2.45-9.86,1.57-6.58,2.26-1.16,1.19,7.92.52s21.48-3.23,30.03-6.98c2.38-1.04,8.21-3.33,10.48-4.69,3.43-2.05,10.14-6.84,13.16-9.56,4.12-3.71,11.51-12.04,14.87-16.44,1.31-1.71,7.97-12.17,9.19-16.26,1.12-3.77.36-7.75-.7-10.04-.49-1.06-1.9-2.84-3.34-3.26ZM827.33,364.43c-.63-1.21-1.59-2.11-2.8-2.75-1.56-.82-5.29-.76-7.02-.48-1.1.18-4.36,1.04-4.36,1.04,0,0-4.74,1.44-5.58,1.84-1.98.95-10.36,4.1-10.36,4.1,0,0-10.49,3.02-15.65,3.37-3.76.26-15-.35-18.73-.89-2.08-.3-8.18-2-8.18-2l-8.73-3.65-7.42-4.21-7.95-6.04-6.18-3.2-1.66-.02,5.1,6.08s17.18,13.29,25.8,16.87c2.4,1,8.08,3.63,10.63,4.33,3.86,1.06,11.96,2.59,16.01,2.9,5.53.41,16.65,0,22.16-.61,2.15-.24,14.3-2.65,18.1-4.6,3.5-1.79,5.85-5.1,6.77-7.44.42-1.08.73-3.34.05-4.66Z"/>
</svg>