<?xml version="1.0" encoding="UTF-8"?>
<svg id="a" data-name="Layer 1" xmlns="http://www.w3.org/2000/svg" width="270" height="647" xmlns:xlink="http://www.w3.org/1999/xlink" viewBox="0 0 270 647">
  <defs>
    <style>
      .e {
        fill: #ffff3c;
        filter: url(#b);
      }

      .e, .f, .g, .h {
        stroke-width: 0px;
      }

      .f {
        fill: #da0000;
      }

      .g {
        fill: #979797;
      }

      .i {
        fill: none;
        stroke: #000;
        stroke-miterlimit: 10;
        stroke-width: 4px;
      }

      .h {
        fill: #e4e4e4;
      }
    </style>
    <filter id="b" data-name="drop-shadow-1" filterUnits="userSpaceOnUse">
      <feOffset dx="3" dy="3"/>
      <feGaussianBlur result="c" stdDeviation="3"/>
      <feFlood flood-color="#000" flood-opacity=".4"/>
      <feComposite in2="c" operator="in"/>
      <feComposite in="SourceGraphic"/>
    </filter>
  </defs>
  <g>
    <line class="i" x1="2" x2="2" y2="570"/>
    <line class="i" x1="2" y1="568" x2="181" y2="568"/>
    <line class="i" x1="179" y1="568" x2="179" y2="624"/>
  </g>
  <polygon class="e" points="185.29 624 179.22 634.51 173.16 624 185.29 624"/>
  <g id="d" data-name="Valve Open">
    <g>
      <circle class="h" cx="118.07" cy="567.81" r="7.71"/>
      <path class="g" d="M118.07,575.81c-4.41,0-8-3.59-8-8s3.59-8,8-8,8,3.59,8,8-3.59,8-8,8ZM118.07,560.39c-4.09,0-7.42,3.33-7.42,7.42s3.33,7.42,7.42,7.42,7.42-3.33,7.42-7.42-3.33-7.42-7.42-7.42Z"/>
    </g>
    <path class="f" d="M122.45,569.03c.65,0,1.19-.52,1.19-1.18s-.53-1.02-1.19-1.02c-.03,0-.07.17-.1.17h-10.35v2h10.35s.07.03.1.03Z"/>
  </g>
</svg>