<?xml version="1.0" encoding="UTF-8"?>
<svg id="a" data-name="Collector" xmlns="http://www.w3.org/2000/svg" width="253" height="237.19" viewBox="0 0 253 237.19">
  <defs>
    <style>
      .b {
        fill: #8fff3c;
      }

      .b, .c {
        stroke-width: 0px;
      }

      .c {
        fill: #000;
      }
    </style>
  </defs>
  <g>
    <polygon class="b" points="143 51.87 143 44.87 137 44.87 137 51.87 132.67 51.87 141 60.95 149.34 51.87 143 51.87"/>
    <path class="c" d="M141,61.19l-9.47-10.32h5.47v-7h7v7h6.48l-9.47,10.32ZM133.8,51.87l7.2,7.84,7.2-7.84h-5.2v-7h-5v7h-4.2Z"/>
  </g>
  <g>
    <g>
      <polygon class="b" points="117.36 8 117.36 1 111.36 1 111.36 8 107.03 8 115.36 17.08 123.7 8 117.36 8"/>
      <path class="c" d="M115.36,17.32l-9.47-10.32h5.47V0h7v7h6.48l-9.47,10.32ZM108.17,8l7.2,7.84,7.2-7.84h-5.2V1h-5v7h-4.2Z"/>
    </g>
    <g>
      <polygon class="b" points="170.36 8 170.36 1 164.36 1 164.36 8 160.03 8 168.36 17.08 176.7 8 170.36 8"/>
      <path class="c" d="M168.36,17.32l-9.47-10.32h5.47V0h7v7h6.48l-9.47,10.32ZM161.17,8l7.2,7.84,7.2-7.84h-5.2V1h-5v7h-4.2Z"/>
    </g>
    <g>
      <polygon class="b" points="143.36 8 143.36 1 137.36 1 137.36 8 133.03 8 141.36 17.08 149.7 8 143.36 8"/>
      <path class="c" d="M141.36,17.32l-9.47-10.32h5.47V0h7v7h6.48l-9.47,10.32ZM134.17,8l7.2,7.84,7.2-7.84h-5.2V1h-5v7h-4.2Z"/>
    </g>
  </g>
  <g>
    <g>
      <polygon class="b" points="156 30.87 156 23.87 150 23.87 150 30.87 145.67 30.87 154 39.95 162.34 30.87 156 30.87"/>
      <path class="c" d="M154,40.19l-9.47-10.32h5.47v-7h7v7h6.48l-9.47,10.32ZM146.8,30.87l7.2,7.84,7.2-7.84h-5.2v-7h-5v7h-4.2Z"/>
    </g>
    <g>
      <polygon class="b" points="129 30.87 129 23.87 123 23.87 123 30.87 118.67 30.87 127 39.95 135.34 30.87 129 30.87"/>
      <path class="c" d="M127,40.19l-9.47-10.32h5.47v-7h7v7h6.48l-9.47,10.32ZM119.8,30.87l7.2,7.84,7.2-7.84h-5.2v-7h-5v7h-4.2Z"/>
    </g>
  </g>
</svg>