<?xml version="1.0" encoding="UTF-8"?>
<svg id="a" data-name="Portioner" xmlns="http://www.w3.org/2000/svg" width="267.25" height="355.36" xmlns:xlink="http://www.w3.org/1999/xlink" viewBox="0 0 267.25 355.36">
  <defs>
    <style>
      .f, .g, .h, .i {
        stroke-width: 0px;
      }

      .f, .h {
        fill: #000;
      }

      .g {
        fill: #fff;
      }

      .h {
        fill-rule: evenodd;
      }

      .i {
        fill: url(#d);
      }
    </style>
    <linearGradient id="d" x1="186.01" y1="181.31" x2="264.81" y2="137.83" gradientUnits="userSpaceOnUse">
      <stop offset="0" stop-color="#fff"/>
      <stop offset="1" stop-color="#000"/>
    </linearGradient>
  </defs>
  <g id="b" data-name="Portioner">
    <path id="c" data-name="Level" class="h" d="M207.25,178v2.51c-28-.51-56.95-1.3-85.31-2.23-3.07,8.77-10.57,15.11-24.11,14.14-9.78-.7-21.11-6.42-23-14.42h-4.85c2.9,13,19.63,20.77,34.71,19.17,9.9-1.06,17.1-7.07,21.5-13.91,29,.67,58.06,1.55,87.06,2.27v-7.53h-6Z"/>
    <g>
      <path class="g" d="M176.18,129h43.14c13.76,0,24.93,11.17,24.93,24.93v43.14c0,13.76-11.17,24.93-24.93,24.93h-43.14c-13.76,0-24.93-11.17-24.93-24.93v-43.14c0-13.76,11.17-24.93,24.93-24.93Z"/>
      <path class="i" d="M177.78,129h42.94c12.99,0,23.53,10.54,23.53,23.53v42.94c0,12.99-10.54,23.53-23.53,23.53h-42.94c-12.99,0-23.53-10.54-23.53-23.53v-42.94c0-12.99,10.54-23.53,23.53-23.53Z"/>
      <path class="f" d="M247.25,195.67c0,14.54-11.79,26.33-26.33,26.33h-43.33c-14.54,0-26.33-11.79-26.33-26.33v-43.33c0-14.54,11.79-26.33,26.33-26.33h43.33c14.54,0,26.33,11.79,26.33,26.33v43.33ZM244.25,152.53c0-12.99-10.53-23.53-23.53-23.53h-42.95c-12.99,0-23.53,10.53-23.53,23.53v42.94c0,12.99,10.53,23.53,23.53,23.53h42.95c12.99,0,23.53-10.53,23.53-23.53v-42.94Z"/>
    </g>
  </g>
</svg>