<?xml version="1.0" encoding="UTF-8"?>
<svg id="a" data-name="Portioner" xmlns="http://www.w3.org/2000/svg" width="267.25" height="355.36" xmlns:xlink="http://www.w3.org/1999/xlink" viewBox="0 0 267.25 355.36">
  <defs>
    <style>
      .h, .i, .j, .k {
        stroke-width: 0px;
      }

      .h, .j {
        fill: #000;
      }

      .i {
        fill: #fff;
      }

      .j {
        fill-rule: evenodd;
      }

      .k {
        fill: url(#f);
      }
    </style>
    <linearGradient id="f" x1="186.01" y1="181.31" x2="264.81" y2="137.83" gradientUnits="userSpaceOnUse">
      <stop offset="0" stop-color="#fff"/>
      <stop offset="1" stop-color="#000"/>
    </linearGradient>
  </defs>
  <g id="b" data-name="Portioner">
    <path id="c" data-name="Level" class="j" d="M207.25,178v2.51c-28-.51-56.95-1.3-85.31-2.23-3.07,8.77-10.57,15.11-24.11,14.14-9.78-.7-21.11-6.42-23-14.42h-4.85c2.9,13,19.63,20.77,34.71,19.17,9.9-1.06,17.1-7.07,21.5-13.91,29,.67,58.06,1.55,87.06,2.27v-7.53h-6Z"/>
    <g id="d" data-name="Calibration">
      <g>
        <path class="j" d="M103.02,202.28h5.02c-.14,1.53.3,3.65-.28,4.74h-4.46c-.59-1.09-.14-3.21-.28-4.74Z"/>
        <path class="j" d="M98.28,216.5h4.74v4.74c-1.54-.14-3.66.3-4.74-.28v-4.46Z"/>
        <path class="j" d="M88.79,221.25h4.74v4.74h-4.74v-4.74Z"/>
        <path class="j" d="M84.05,230.73h4.74v4.74h-4.74v-4.74Z"/>
        <path class="j" d="M103.02,235.48h5.02v4.74h-5.02v-4.74Z"/>
        <path class="j" d="M88.79,240.22h4.74v4.74h-4.74v-4.74Z"/>
        <path class="j" d="M84.05,211.76v-4.74h4.74v4.74h4.74v4.74h-4.74v-4.46c-1.03-.65-3.25-.1-4.74-.28Z"/>
      </g>
      <path class="j" d="M82.93,174.66c-3.88-3.11,2.65-6.24,5.3-7.54,3.65-1.78,6.62-2.8,10.32-3.07,8.51-.62,16.07,3.42,18.13,8.09,1.12,2.54,1,6.46-1.95,6.14-2.31-.25-2.37-4.34-3.91-5.86-4.7-4.64-13.82-4.25-20.09-1.39-2.62,1.2-4.61,3.77-7.81,3.63Z"/>
      <path id="e" data-name="Empty Spoon" class="j" d="M212.66,166.28v19.25c-28.94-.72-57.77-1.56-86.77-2.23-4.4,6.84-11.3,12.89-21.2,13.95-15.38,1.64-32.48-7.04-34.87-19.81v-3.06c.53-1.87,1.13-4.34,2.23-6.14,8.76-14.36,36.18-18.38,48.83-6.14,1.94,1.88,2.85,4.3,5.02,6.42,29.15-.52,57.99-1.35,86.77-2.23ZM98.28,159.31c-9.81.76-23.55,7-23.72,16.46-.16,9.01,12.68,15.97,23.44,16.74,13.53.97,21.21-5.46,24.27-14.23,28.36.93,56.87,1.72,85.65,2.23v-9.21c-28.75.64-57.3,1.48-85.93,2.23-2.39-9.23-11.81-15.16-23.71-14.23Z"/>
    </g>
    <g>
      <path class="i" d="M176.18,129h43.14c13.76,0,24.93,11.17,24.93,24.93v43.14c0,13.76-11.17,24.93-24.93,24.93h-43.14c-13.76,0-24.93-11.17-24.93-24.93v-43.14c0-13.76,11.17-24.93,24.93-24.93Z"/>
      <path class="k" d="M177.78,129h42.94c12.99,0,23.53,10.54,23.53,23.53v42.94c0,12.99-10.54,23.53-23.53,23.53h-42.94c-12.99,0-23.53-10.54-23.53-23.53v-42.94c0-12.99,10.54-23.53,23.53-23.53Z"/>
      <path class="h" d="M247.25,195.67c0,14.54-11.79,26.33-26.33,26.33h-43.33c-14.54,0-26.33-11.79-26.33-26.33v-43.33c0-14.54,11.79-26.33,26.33-26.33h43.33c14.54,0,26.33,11.79,26.33,26.33v43.33ZM244.25,152.53c0-12.99-10.53-23.53-23.53-23.53h-42.95c-12.99,0-23.53,10.53-23.53,23.53v42.94c0,12.99,10.53,23.53,23.53,23.53h42.95c12.99,0,23.53-10.53,23.53-23.53v-42.94Z"/>
    </g>
  </g>
</svg>