<?xml version="1.0" encoding="UTF-8"?>
<svg id="a" data-name="Silo" xmlns="http://www.w3.org/2000/svg" width="398.97" height="490" xmlns:xlink="http://www.w3.org/1999/xlink" viewBox="0 0 398.97 490">
  <defs>
    <style>
      .k {
        stroke-width: 2px;
      }

      .k, .l, .m, .n, .o, .p {
        stroke-miterlimit: 10;
      }

      .k, .m, .q, .n, .r, .s, .o, .t, .u, .v, .p {
        fill-rule: evenodd;
      }

      .k, .m, .n, .s, .o, .p {
        fill: #a52b31;
      }

      .k, .n {
        stroke: #fff;
      }

      .l {
        stroke: blue;
      }

      .l, .u {
        fill: #fff;
      }

      .w {
        font-family: OpenSans-Regular, 'OpenSans Regular';
        font-size: 11px;
      }

      .w, .v {
        fill: #000;
      }

      .m {
        stroke: #f2f2f2;
      }

      .x {
        fill: #666;
      }

      .x, .q, .r, .s, .y, .t, .u, .v {
        stroke-width: 0px;
      }

      .q {
        fill: url(#c);
      }

      .r {
        fill: #b3b3b3;
        opacity: .75;
      }

      .o {
        stroke: #e6e6e6;
      }

      .y {
        fill: #e6e6e6;
        opacity: .9;
      }

      .t {
        fill: #ff0;
      }

      .p {
        filter: url(#f);
        stroke: #ccc;
      }
    </style>
    <linearGradient id="c" x1="87" y1="76" x2="219" y2="76" gradientUnits="userSpaceOnUse">
      <stop offset="0" stop-color="#603813"/>
      <stop offset=".03" stop-color="rgba(108, 72, 38, 1)" stop-opacity="1"/>
      <stop offset=".14" stop-color="rgba(152, 127, 103, .99)" stop-opacity=".99"/>
      <stop offset=".24" stop-color="rgba(189, 172, 157, .98)" stop-opacity=".98"/>
      <stop offset=".34" stop-color="rgba(217, 208, 199, .98)" stop-opacity=".98"/>
      <stop offset=".42" stop-color="rgba(238, 233, 230, .97)" stop-opacity=".97"/>
      <stop offset=".5" stop-color="rgba(250, 249, 248, .97)" stop-opacity=".97"/>
      <stop offset=".55" stop-color="#fff" stop-opacity=".97"/>
      <stop offset=".6" stop-color="rgba(250, 249, 248, .97)" stop-opacity=".97"/>
      <stop offset=".66" stop-color="rgba(239, 235, 231, .97)" stop-opacity=".97"/>
      <stop offset=".72" stop-color="rgba(219, 211, 203, .98)" stop-opacity=".98"/>
      <stop offset=".8" stop-color="rgba(193, 177, 163, .98)" stop-opacity=".98"/>
      <stop offset=".88" stop-color="rgba(158, 134, 112, .99)" stop-opacity=".99"/>
      <stop offset=".96" stop-color="rgba(117, 82, 50, 1)" stop-opacity="1"/>
      <stop offset="1" stop-color="#603813"/>
    </linearGradient>
    <filter id="f" data-name="drop-shadow-1" filterUnits="userSpaceOnUse">
      <feOffset dx="3" dy="3"/>
      <feGaussianBlur result="g" stdDeviation="2"/>
      <feFlood flood-color="#666" flood-opacity=".88"/>
      <feComposite in2="g" operator="in"/>
      <feComposite in="SourceGraphic"/>
    </filter>
  </defs>
  <g id="b" data-name="Top Back">
    <polygon class="q" points="219 101 87 101 98.22 73.65 126.26 71.98 125.1 51 182.08 51 181.05 71.98 212.09 73.1 219 101"/>
  </g>
  <path class="v" d="M260,426h-4.69c-7.98-28.46-16.05-56.82-24.2-85.06,2.61-7.84,11.45-11.63,11.71-20.07.39-12.66.18-89.2.18-120.42v-105.67c-4,.07-14.68-.45-20.93-.86-3.17-8.17-4.84-17.9-9.63-23.93-7.82-.88-16.44-.26-25.44-.77v-12.22h8c2.75,0,5-2.25,5-5s-2.25-5-5-5h-80c-2.75,0-5,2.25-5,5s2.25,5,5,5h8.36c0,3.92.06,8-.08,12.22-8.41.49-17.75-.11-26.28.77-4.16,6.86-6.12,16.64-9.96,23.93-6.14.4-12.85.21-18.74.77-1.34,72.58-.39,151.81-1.17,226.95,3.08,7.78,8.91,11.93,11.71,20.07-8.79,27.37-15.74,57.17-24.72,84.29h-5.11c-2.75,0-5,2.25-5,5s2.25,5,5,5h36c2.75,0,5-2.25,5-5s-2.25-5-5-5h-2.67c8.04-16.72,15.04-38.28,23.44-50h29.23v110h11v-7h-6v-108h6v-4.45l-10.16-2.55-40-11.82c-3.34-5.08-6.57-10.31-9.87-15.45l50.09-11.46c3.3-.01,6.61-.02,9.95,0v-11.27h-13.65l-22.84-18.87-33.79-29.26c0-53.27-.08-108.87-.08-160.87h160.36v160.81l-33.7,29.32-22.76,18.87h-11.54v11.37c4,.02,7.97.05,11.93.07l44.58,11.25c-3.3,4.96-7.07,10.32-10.79,15.72l-35.73,11.66v-.08l-10,2.55v4.45h6v108h-6v7h10v-110h26.75c7.14,14.46,15.28,32.7,22.6,50h-3.36c-2.75,0-5,2.25-5,5s2.25,5,5,5h36c2.75,0,5-2.25,5-5s-2.25-5-5-5ZM98.75,370.72c-7.43,19.35-16.64,35.24-24.41,55.28h-11.97c6.97-27.18,14.45-51.49,21.74-77.04,5.2,6.79,9.71,14.63,14.64,21.76ZM130,57h50v12h-50v-12ZM95.23,94c1.63-5.13,3.58-13,5.86-19h107.18c3.24,2,4.49,13.87,6.44,19h-119.48ZM235.58,426c-7.95-20.06-16.43-36.25-24.39-54.65,4.07-8.27,9.79-14.23,14.06-22.24,8.31,24.45,15.06,49.66,22.31,76.89h-11.97Z"/>
  <g id="d" data-name="Aggregate 90">
    <g id="e" data-name="Aggregrate 90">
      <path class="s" d="M121.19,338.35c0-6,4.86-10.86,10.85-10.86s10.85,4.86,10.85,10.86-4.86,10.86-10.85,10.86-10.85-4.86-10.85-10.86Z"/>
      <path class="s" d="M98.22,342.35c0-4.32,3.5-7.83,7.83-7.83s7.83,3.51,7.83,7.83-3.51,7.83-7.83,7.83-7.83-3.51-7.83-7.83Z"/>
      <path class="s" d="M170.19,337.35c0-6,4.86-10.86,10.85-10.86s10.85,4.86,10.85,10.86-4.86,10.86-10.85,10.86-10.85-4.86-10.85-10.86Z"/>
      <path class="s" d="M196.01,344.35c0-4.44,3.6-8.04,8.04-8.04s8.04,3.6,8.04,8.04-3.6,8.04-8.04,8.04-8.04-3.6-8.04-8.04Z"/>
      <path class="s" d="M180.3,289c0-5.99,4.86-10.85,10.85-10.85s10.86,4.86,10.86,10.85-4.86,10.85-10.86,10.85-10.85-4.86-10.85-10.85Z"/>
      <path class="s" d="M182.68,261.29c0-5.99,4.86-10.85,10.85-10.85s10.86,4.86,10.86,10.85-4.86,10.85-10.86,10.85-10.85-4.86-10.85-10.85Z"/>
      <path class="s" d="M111.6,292.17c0-5.99,4.86-10.86,10.85-10.86s10.85,4.86,10.85,10.86-4.86,10.85-10.85,10.85-10.85-4.86-10.85-10.85Z"/>
      <path class="s" d="M202.39,272.34c0-5.99,4.86-10.85,10.85-10.85s10.85,4.86,10.85,10.85-4.86,10.85-10.85,10.85-10.85-4.86-10.85-10.85Z"/>
      <path class="s" d="M89.7,271.51c0-5.99,4.86-10.85,10.85-10.85s10.85,4.86,10.85,10.85-4.86,10.85-10.85,10.85-10.85-4.86-10.85-10.85Z"/>
      <path class="s" d="M171.49,186.96c0-5.99,4.86-10.85,10.85-10.85s10.85,4.86,10.85,10.85-4.86,10.85-10.85,10.85-10.85-4.86-10.85-10.85Z"/>
      <path class="s" d="M185.49,197.96c0-5.99,4.86-10.85,10.85-10.85s10.85,4.86,10.85,10.85-4.86,10.85-10.85,10.85-10.85-4.86-10.85-10.85Z"/>
      <path class="s" d="M185.49,218.96c0-5.99,4.86-10.85,10.85-10.85s10.85,4.86,10.85,10.85-4.86,10.85-10.85,10.85-10.85-4.86-10.85-10.85Z"/>
      <path class="s" d="M126.49,188.96c0-5.99,4.86-10.85,10.85-10.85s10.85,4.86,10.85,10.85-4.86,10.85-10.85,10.85-10.85-4.86-10.85-10.85Z"/>
      <path class="s" d="M129.49,209.96c0-5.99,4.86-10.85,10.85-10.85s10.85,4.86,10.85,10.85-4.86,10.85-10.85,10.85-10.85-4.86-10.85-10.85Z"/>
      <path class="s" d="M181.49,155.96c0-5.99,4.86-10.85,10.85-10.85s10.85,4.86,10.85,10.85-4.86,10.85-10.85,10.85-10.85-4.86-10.85-10.85Z"/>
      <path class="s" d="M208.49,157.96c0-5.99,4.86-10.85,10.85-10.85s10.85,4.86,10.85,10.85-4.86,10.85-10.85,10.85-10.85-4.86-10.85-10.85Z"/>
      <path class="m" d="M187.49,175.96c0-5.99,4.86-10.85,10.85-10.85s10.85,4.86,10.85,10.85-4.86,10.85-10.85,10.85-10.85-4.86-10.85-10.85Z"/>
      <path class="s" d="M208.49,179.96c0-5.99,4.86-10.85,10.85-10.85s10.85,4.86,10.85,10.85-4.86,10.85-10.85,10.85-10.85-4.86-10.85-10.85Z"/>
      <path class="s" d="M212.49,205.96c0-5.99,4.86-10.85,10.85-10.85s10.85,4.86,10.85,10.85-4.86,10.85-10.85,10.85-10.85-4.86-10.85-10.85Z"/>
      <path class="s" d="M208.49,228.96c0-5.99,4.86-10.85,10.85-10.85s10.85,4.86,10.85,10.85-4.86,10.85-10.85,10.85-10.85-4.86-10.85-10.85Z"/>
      <path class="s" d="M208.49,251.96c0-5.99,4.86-10.85,10.85-10.85s10.85,4.86,10.85,10.85-4.86,10.85-10.85,10.85-10.85-4.86-10.85-10.85Z"/>
      <path class="s" d="M163.49,232.96c0-5.99,4.86-10.85,10.85-10.85s10.85,4.86,10.85,10.85-4.86,10.85-10.85,10.85-10.85-4.86-10.85-10.85Z"/>
      <path class="s" d="M159.49,168.96c0-5.99,4.86-10.85,10.85-10.85s10.85,4.86,10.85,10.85-4.86,10.85-10.85,10.85-10.85-4.86-10.85-10.85Z"/>
      <path class="o" d="M158.49,199.96c0-5.99,4.86-10.85,10.85-10.85s10.85,4.86,10.85,10.85-4.86,10.85-10.85,10.85-10.85-4.86-10.85-10.85Z"/>
      <path class="s" d="M143.49,228.96c0-5.99,4.86-10.85,10.85-10.85s10.85,4.86,10.85,10.85-4.86,10.85-10.85,10.85-10.85-4.86-10.85-10.85Z"/>
      <path class="s" d="M129.49,151.96c0-5.99,4.86-10.85,10.85-10.85s10.85,4.86,10.85,10.85-4.86,10.85-10.85,10.85-10.85-4.86-10.85-10.85Z"/>
      <path class="s" d="M153.49,151.96c0-5.99,4.86-10.85,10.85-10.85s10.85,4.86,10.85,10.85-4.86,10.85-10.85,10.85-10.85-4.86-10.85-10.85Z"/>
      <path class="s" d="M126.49,166.96c0-5.99,4.86-10.85,10.85-10.85s10.85,4.86,10.85,10.85-4.86,10.85-10.85,10.85-10.85-4.86-10.85-10.85Z"/>
      <path class="s" d="M139.49,182.96c0-5.99,4.86-10.85,10.85-10.85s10.85,4.86,10.85,10.85-4.86,10.85-10.85,10.85-10.85-4.86-10.85-10.85Z"/>
      <path class="s" d="M89.49,145.96c0-5.99,4.86-10.85,10.85-10.85s10.85,4.86,10.85,10.85-4.86,10.85-10.85,10.85-10.85-4.86-10.85-10.85Z"/>
      <path class="u" d="M100.07,140.96c0,1.12-1.28,2.04-2.85,2.04s-2.85-.91-2.85-2.04,1.28-2.04,2.85-2.04,2.85.91,2.85,2.04Z"/>
      <path class="s" d="M75.49,159.96c0-5.99,4.86-10.85,10.85-10.85s10.85,4.86,10.85,10.85-4.86,10.85-10.85,10.85-10.85-4.86-10.85-10.85Z"/>
      <path class="s" d="M160.97,252.25c0-5.99,4.86-10.85,10.85-10.85s10.85,4.86,10.85,10.85-4.86,10.85-10.85,10.85-10.85-4.86-10.85-10.85Z"/>
      <path class="s" d="M139.26,263.48c0-5.99,4.86-10.85,10.85-10.85s10.85,4.86,10.85,10.85-4.86,10.85-10.85,10.85-10.85-4.86-10.85-10.85Z"/>
      <path class="s" d="M115.74,267.1c0-5.99,4.86-10.85,10.85-10.85s10.85,4.86,10.85,10.85-4.86,10.85-10.85,10.85-10.85-4.86-10.85-10.85Z"/>
      <path class="s" d="M80.65,254.61c0-5.99,4.86-10.85,10.85-10.85s10.85,4.86,10.85,10.85-4.86,10.85-10.85,10.85-10.85-4.86-10.85-10.85Z"/>
      <path class="s" d="M139.69,294.19c0-5.99,4.86-10.85,10.85-10.85s10.85,4.86,10.85,10.85-4.86,10.85-10.85,10.85-10.85-4.86-10.85-10.85Z"/>
      <path class="m" d="M163.4,276.95c0-5.99,4.86-10.85,10.86-10.85s10.85,4.86,10.85,10.85-4.86,10.85-10.85,10.85-10.86-4.86-10.86-10.85Z"/>
      <path class="s" d="M146.28,317.25c0-5.99,4.86-10.85,10.85-10.85s10.86,4.86,10.86,10.85-4.86,10.86-10.86,10.86-10.85-4.86-10.85-10.86Z"/>
      <path class="s" d="M146.28,345.58c0-5.99,4.86-10.85,10.85-10.85s10.86,4.86,10.86,10.85-4.86,10.86-10.86,10.86-10.85-4.86-10.85-10.86Z"/>
      <path class="s" d="M146.28,383.58c0-5.99,4.86-10.85,10.85-10.85s10.86,4.86,10.86,10.85-4.86,10.86-10.86,10.86-10.85-4.86-10.85-10.86Z"/>
      <path class="s" d="M146.28,466.84c0-5.99,4.86-10.85,10.85-10.85s10.86,4.86,10.86,10.85-4.86,10.86-10.86,10.86-10.85-4.86-10.85-10.86Z"/>
      <path class="p" d="M106.49,151.96c0-5.99,4.86-10.85,10.85-10.85s10.85,4.86,10.85,10.85-4.86,10.85-10.85,10.85-10.85-4.86-10.85-10.85Z"/>
      <path class="n" d="M106.49,171.96c0-5.99,4.86-10.85,10.85-10.85s10.85,4.86,10.85,10.85-4.86,10.85-10.85,10.85-10.85-4.86-10.85-10.85Z"/>
      <path class="s" d="M106.49,187.96c0-5.99,4.86-10.85,10.85-10.85s10.85,4.86,10.85,10.85-4.86,10.85-10.85,10.85-10.85-4.86-10.85-10.85Z"/>
      <path class="m" d="M89.49,173.96c0-5.99,4.86-10.85,10.85-10.85s10.85,4.86,10.85,10.85-4.86,10.85-10.85,10.85-10.85-4.86-10.85-10.85Z"/>
      <path class="s" d="M75.49,184.96c0-5.99,4.86-10.85,10.85-10.85s10.85,4.86,10.85,10.85-4.86,10.85-10.85,10.85-10.85-4.86-10.85-10.85Z"/>
      <path class="n" d="M92.49,200.96c0-5.99,4.86-10.85,10.85-10.85s10.85,4.86,10.85,10.85-4.86,10.85-10.85,10.85-10.85-4.86-10.85-10.85Z"/>
      <path class="s" d="M75.49,213.96c0-5.99,4.86-10.85,10.85-10.85s10.85,4.86,10.85,10.85-4.86,10.85-10.85,10.85-10.85-4.86-10.85-10.85Z"/>
      <path class="s" d="M86.49,229.96c0-5.99,4.86-10.85,10.85-10.85s10.85,4.86,10.85,10.85-4.86,10.85-10.85,10.85-10.85-4.86-10.85-10.85Z"/>
      <path class="s" d="M104.49,211.96c0-5.99,4.86-10.85,10.85-10.85s10.85,4.86,10.85,10.85-4.86,10.85-10.85,10.85-10.85-4.86-10.85-10.85Z"/>
      <path class="s" d="M117.49,224.96c0-5.99,4.86-10.85,10.85-10.85s10.85,4.86,10.85,10.85-4.86,10.85-10.85,10.85-10.85-4.86-10.85-10.85Z"/>
      <path class="o" d="M124.49,242.96c0-5.99,4.86-10.85,10.85-10.85s10.85,4.86,10.85,10.85-4.86,10.85-10.85,10.85-10.85-4.86-10.85-10.85Z"/>
      <path class="s" d="M104.49,246.96c0-5.99,4.86-10.85,10.85-10.85s10.85,4.86,10.85,10.85-4.86,10.85-10.85,10.85-10.85-4.86-10.85-10.85Z"/>
      <path class="n" d="M167.49,217.96c0-5.99,4.86-10.85,10.85-10.85s10.85,4.86,10.85,10.85-4.86,10.85-10.85,10.85-10.85-4.86-10.85-10.85Z"/>
      <path class="k" d="M184.49,240.96c0-5.99,4.86-10.85,10.85-10.85s10.85,4.86,10.85,10.85-4.86,10.85-10.85,10.85-10.85-4.86-10.85-10.85Z"/>
    </g>
    <g id="h" data-name="Pointer Qty 90">
      <path class="y" d="M204.5,153c-4.69,0-8.5-3.81-8.5-8.5v-1c0-4.69,3.81-8.5,8.5-8.5h31.5v18h-31.5Z"/>
      <path class="x" d="M236.5,134h-32c-5.24,0-9.5,4.26-9.5,9.5v1c0,5.24,4.26,9.5,9.5,9.5h34.5v-20h-2.5ZM204.5,153c-4.69,0-8.5-3.81-8.5-8.5v-1c0-4.69,3.81-8.5,8.5-8.5h31.5v18h-31.5Z"/>
      <g id="i" data-name="Label Qty">
        <circle class="l" cx="205.56" cy="144.07" r="7.82"/>
        <text class="w" transform="translate(199.62 148.2)"><tspan x="0" y="0">90</tspan></text>
      </g>
      <polygon class="t" points="238 151.17 226.46 144.5 238 137.84 238 151.17"/>
    </g>
  </g>
  <polygon id="j" data-name="Lights On" class="r" points="239 265.13 181.19 314 169 314 169 325 181.4 325.07 227.15 336.41 216.15 352.27 158.05 369.53 95.46 352.04 85.36 336.46 136.23 324.9 146 324.9 146 314 132.87 314 75 265.13 75 103 239 103 239 265.13"/>
</svg>