<?xml version="1.0" encoding="UTF-8"?>
<svg id="a" data-name="Out Arrow" xmlns="http://www.w3.org/2000/svg" width="880.06" height="482.1" viewBox="0 0 880.06 482.1">
  <defs>
    <style>
      .b, .c, .d, .e, .f {
        stroke-width: 0px;
      }

      .b, .f {
        fill: #000;
      }

      .c, .d, .e {
        fill: lime;
      }

      .c, .g, .f {
        opacity: .5;
      }

      .d {
        opacity: .8;
      }

      .h {
        opacity: .88;
      }
    </style>
  </defs>
  <g>
    <path class="b" d="M775.06,133v-24h-27v24h-17.15l32.22,35.1,30.61-35.1h-18.68ZM738.64,136h13.41v-23h20v23h13.94l-22.87,26.67-24.48-26.67Z"/>
    <polygon class="e" points="738.64 136 752.06 136 752.06 113 763.12 113 772.06 113 772.06 136 786 136 763.12 162.67 738.64 136"/>
  </g>
  <g class="h">
    <path class="b" d="M775.06,210v-24h-27v24h-17.15l32.22,35.1,30.61-35.1h-18.68ZM738.64,213h13.41v-23h20v23h13.94l-22.87,26.67-24.48-26.67Z"/>
    <polygon class="d" points="738.64 213 752.06 213 752.06 190 763.12 190 772.06 190 772.06 213 786 213 763.12 239.67 738.64 213"/>
  </g>
  <g>
    <path class="f" d="M775.06,288v-24h-27v24h-17.15l32.22,35.1,30.61-35.1h-18.68ZM738.64,291h13.41v-23h20v23h13.94l-22.87,26.67-24.48-26.67Z"/>
    <polygon class="c" points="738.64 291 752.06 291 752.06 268 763.12 268 772.06 268 772.06 291 786 291 763.12 317.67 738.64 291"/>
  </g>
  <g class="g">
    <path class="b" d="M775.06,365v-24h-27v24h-17.15l32.22,35.1,30.61-35.1h-18.68ZM738.64,368h13.41v-23h20v23h13.94l-22.87,26.67-24.48-26.67Z"/>
    <polygon class="e" points="738.64 368 752.06 368 752.06 345 763.12 345 772.06 345 772.06 368 786 368 763.12 394.67 738.64 368"/>
  </g>
  <g class="g">
    <path class="b" d="M775.06,442v-24h-27v24h-17.15l32.22,35.1,30.61-35.1h-18.68ZM738.64,445h13.41v-23h20v23h13.94l-22.87,26.67-24.48-26.67Z"/>
    <polygon class="e" points="738.64 445 752.06 445 752.06 422 763.12 422 772.06 422 772.06 445 786 445 763.12 471.67 738.64 445"/>
  </g>
</svg>