<?xml version="1.0" encoding="UTF-8"?>
<svg id="a" data-name="Hopper-1" xmlns="http://www.w3.org/2000/svg" width="398.97" height="490" xmlns:xlink="http://www.w3.org/1999/xlink" viewBox="0 0 398.97 490">
  <defs>
    <style>
      .x, .y, .z, .aa, .ab, .ac {
        stroke-width: 0px;
      }

      .x, .ad, .ae {
        fill: #a67c52;
        fill-rule: evenodd;
      }

      .y {
        fill: #b3b3b3;
        opacity: .75;
      }

      .ad {
        stroke: #754c24;
      }

      .ad, .af, .ae, .ag {
        stroke-miterlimit: 10;
      }

      .af {
        fill: url(#d);
        filter: url(#e);
      }

      .af, .ag {
        stroke: red;
      }

      .ah {
        font-family: MyriadPro-Regular, 'Myriad Pro';
        font-size: 12px;
      }

      .ah, .ac {
        fill: #000;
      }

      .ae {
        stroke: #8c6239;
      }

      .z, .ag, .aa, .ab {
        fill: #fff;
      }

      .aa {
        filter: url(#r);
      }

      .ab {
        filter: url(#t);
      }

      .ac {
        filter: url(#v);
      }
    </style>
    <linearGradient id="d" x1="64.5" y1="352.61" x2="248.74" y2="352.61" gradientUnits="userSpaceOnUse">
      <stop offset="0" stop-color="#9e005d"/>
      <stop offset=".05" stop-color="#b60045"/>
      <stop offset=".16" stop-color="#dd001f"/>
      <stop offset=".24" stop-color="#f60008"/>
      <stop offset=".28" stop-color="red"/>
      <stop offset=".29" stop-color="#fe0404"/>
      <stop offset=".37" stop-color="#f46363"/>
      <stop offset=".44" stop-color="#ecaaaa"/>
      <stop offset=".48" stop-color="#e7d5d5"/>
      <stop offset=".51" stop-color="#e6e6e6"/>
      <stop offset=".54" stop-color="#e5dadb"/>
      <stop offset=".59" stop-color="#e5babf"/>
      <stop offset=".65" stop-color="#e58792"/>
      <stop offset=".73" stop-color="#e44154"/>
      <stop offset=".8" stop-color="#e4001a"/>
      <stop offset="1" stop-color="#9e005d"/>
    </linearGradient>
    <filter id="e" data-name="drop-shadow-1" filterUnits="userSpaceOnUse">
      <feOffset dx="0" dy="-3"/>
      <feGaussianBlur result="f" stdDeviation="4"/>
      <feFlood flood-color="#000" flood-opacity=".75"/>
      <feComposite in2="f" operator="in"/>
      <feComposite in="SourceGraphic"/>
    </filter>
    <filter id="r" data-name="drop-shadow-2" filterUnits="userSpaceOnUse">
      <feOffset dx="3" dy="3"/>
      <feGaussianBlur result="s" stdDeviation="5"/>
      <feFlood flood-color="#494949" flood-opacity=".75"/>
      <feComposite in2="s" operator="in"/>
      <feComposite in="SourceGraphic"/>
    </filter>
    <filter id="t" data-name="drop-shadow-3" filterUnits="userSpaceOnUse">
      <feOffset dx="3" dy="3"/>
      <feGaussianBlur result="u" stdDeviation="5"/>
      <feFlood flood-color="#494949" flood-opacity=".75"/>
      <feComposite in2="u" operator="in"/>
      <feComposite in="SourceGraphic"/>
    </filter>
    <filter id="v" data-name="drop-shadow-4" filterUnits="userSpaceOnUse">
      <feOffset dx="3" dy="3"/>
      <feGaussianBlur result="w" stdDeviation="5"/>
      <feFlood flood-color="#494949" flood-opacity=".75"/>
      <feComposite in2="w" operator="in"/>
      <feComposite in="SourceGraphic"/>
    </filter>
  </defs>
  <g id="b" data-name="20">
    <g id="c" data-name="Level">
      <path id="g" data-name="20" class="af" d="M248.69,323.5h.06c-.04-3-.06-3.41-.06-3.41,0-12.39-10.83,4.23-12.91-6.97-6.8-4.37-8.17-.82-13.02-.06l-12.06,5.8c-3.31-.17-19.72-.49-15.3-.63-29.81-14.17-6.96,5.36-38.38-7.17-28.36,14.9-5.49-13.06-33.04,2.66,5.4-.05-17.51,2.47-18.75,3.05l-15.93-2.53c-7.84,0-4.52-2-11.49.79-.78.31.74,9.15-3.95,0-5.42-10.57-8.5-7.12-8.5,4.82,0,0-.02.64-.04,3.64h.04s-.59,3.46-.59,5.6c-.18.28-.25.08-.25.23v21.17h53.92l-1.05,7.04c-1.72.04-2.71-.91-3.94-.88.3-.08-4.32,2.09-12.14,2.01,11.87,11.08,38.83,11.83,35.84,37.83h37.71c-3.25-29,23.72-26.26,34.48-38.69-4.41.06-10.81-1.13-14.81-1.12v-6.19h54v-21.65c0-3.83.22-5.35.19-5.35Z"/>
      <g id="h" data-name="Label Qty">
        <path class="ag" d="M193.74,320.07c0-4.32,3.5-7.82,7.82-7.82s7.82,3.5,7.82,7.82-3.5,7.82-7.82,7.82-7.82-3.5-7.82-7.82Z"/>
        <text id="i" data-name="30" class="ah" transform="translate(195.41 324.2)"><tspan x="0" y="0">20</tspan></text>
      </g>
    </g>
  </g>
  <g>
    <rect class="z" x="65" y="359" width="12" height="48"/>
    <rect class="z" x="235" y="359" width="14" height="48"/>
  </g>
  <g id="j" data-name="Flow">
    <polygon id="k" data-name="flow8" class="ad" points="159.13 404.18 152.83 403.04 154.02 396.26 160.32 397.4 159.13 404.18"/>
    <polygon id="l" data-name="flow7" class="ae" points="159.69 410.94 153.75 410.34 154.34 404.31 160.28 404.91 159.69 410.94"/>
    <polygon id="m" data-name="flow6" class="x" points="156.71 417.52 151.92 416.74 152.68 411.88 157.47 412.65 156.71 417.52"/>
    <polygon id="n" data-name="flow5" class="x" points="163.09 420.69 158.08 423.22 155.59 418.14 160.59 415.6 163.09 420.69"/>
    <polygon id="o" data-name="flow4" class="x" points="159.8 434.37 153.62 433.74 154.24 427.47 160.41 428.09 159.8 434.37"/>
    <polygon id="p" data-name="flow3" class="x" points="157.09 447.35 151.39 446.43 152.3 440.63 158.01 441.55 157.09 447.35"/>
  </g>
  <path id="q" data-name="Light Off" class="y" d="M150,396h-12.87c2.99-26-20.84-25.89-32.71-37.16,7.82.08,12.42.16,14.14.12l-.13-12.96h-53.43v-70h36v-12.21l-36-30.65v-36.72c0-1.05.02-1.45,0-3.42h36v-11.74l-36-30.65v-35.98c0-1.05-1.95-1.63-1.11-1.63h23.11v-13.19c-6,.01-12.11.03-18.23.09,27.56-15.72,57.31-29.31,85.67-44.21,31.41,12.53,59.39,29.31,89.2,43.47-5.42.16-10.63.28-15.63.39v13.45h21v37.61l-36,30.65v11.74h36v40.14l-36,30.65v12.21h15.64c3.76,0,4.98,0,4.93,0h15.42v70h-54v12.23c4,0,8.48.05,12.9-.01-10.76,12.65-36.31,8.78-33.06,37.78h-24.84ZM65,359h12v48h-12v-48ZM249,407h-14v-48h14v48Z"/>
  <path class="aa" d="M65,359h12v48h-12v-48Z"/>
  <path class="ab" d="M249,407h-14v-48h14v48Z"/>
  <path class="ac" d="M124.8,386.27c-2.06,17.29,4.25,20.78,18.25,21.45v42.28h7v-54h-12.87c2.99-26-20.84-25.89-32.71-37.16,7.82.08,12.42.16,14.14.12l-.13-12.96h-53.43v-70h36v-12.21l-36-30.65v-36.72c0-1.05.02-1.45,0-3.42h36v-11.74l-36-30.65v-35.98c0-1.05-1.95-1.63-1.11-1.63h23.11v-13.19c-6,.01-12.11.03-18.23.09,27.56-15.72,57.31-29.31,85.67-44.21,31.41,12.53,59.39,29.31,89.2,43.47-5.42.16-10.63.28-15.63.39v13.45h21v37.61l-36,30.65v11.74h36v40.14l-36,30.65v12.21h15.64c3.76,0,4.98,0,4.93,0h15.42v70h-54v12.23c4,0,8.48.05,12.9-.01-10.76,12.65-36.31,8.78-33.06,37.78h-10.84v54h7v-42.54c12-1.17,19.45-5.5,16.19-21.67,12.59-6.61,25.03-18.01,36.96-22.83.33,14.29.38,57.05.38,57.05h35.68s-.22-200.37-.22-282.53c0-14.72.12-31.76-.89-39.79-.96-7.65-8.45-9.18-22.92-16.05-27.45-13.04-49.58-25.63-76.58-39.63h-7.25c-23.66,12-51.52,26.53-77.59,39.63-9,4.53-19.85,9.62-22.43,15.76-3.02,7.19-.12,300.05-.12,322.07,6.04,0,35.09-.06,35.09-.06,0,0,.81-39.3.52-56.97,12.77,7.41,25.19,15.38,36.93,23.83ZM249.05,407h-14v-48h14v48ZM77.05,407h-12v-48h12v48Z"/>
</svg>