<?xml version="1.0" encoding="UTF-8"?>
<svg id="a" data-name="SystStatus Label" xmlns="http://www.w3.org/2000/svg" width="123.64" height="108.93" viewBox="0 0 123.64 108.93">
  <defs>
    <style>
      .b {
        fill: #da0000;
      }

      .b, .c, .d {
        fill-rule: evenodd;
        stroke-width: 0px;
      }

      .c {
        fill: #fff;
      }

      .d {
        fill: #000;
      }
    </style>
  </defs>
  <path class="b" d="M31.17,82.27c.21.14.27.46.37.68.11.25.23.49.32.74.53-.07,1.26-.09,1.79,0,.26-.42.44-.93.63-1.42,1.03.09,1.85.4,2.69.68-.08.5-.1,1.06-.21,1.53.53.32,1.13.56,1.58.95.46-.26.81-.63,1.26-.89.74.52,1.39,1.14,1.9,1.89-.24.46-.57.83-.9,1.21.35.51.67,1.05.95,1.63.51-.05.95-.17,1.53-.16.31.77.58,1.56.68,2.53-.12.25-.46.27-.68.37-.25.11-.46.28-.74.32.12.52.03,1.24.05,1.84.42.25.95.39,1.37.63-.08,1.03-.38,1.83-.68,2.63-.52-.02-.97-.12-1.47-.16-.16.01-.16.19-.21.31-.46-.3-.85-.69-1.26-1.05-.4-.35-.86-.65-1.16-1.1,1.02-2.66-.11-5.42-1.58-6.85-1.17-1.14-2.78-2.05-5.06-1.9-3.11.21-5.86,2.71-6.11,5.95-.19,2.46.79,4.2,2.06,5.42,1.48,1.42,4.66,2.46,7.11,1.21.86.65,1.45,1.56,2.26,2.27-.28.17-.55.36-.9.47.11.48.13,1.06.21,1.58-.85.26-1.66.54-2.63.68-.24-.44-.42-.95-.63-1.42-.69.02-1.1.02-1.79,0-.3.4-.42.98-.68,1.42-.97-.14-1.78-.43-2.63-.68.09-.5.08-1.07.21-1.53-.52-.32-1.09-.59-1.58-.95-.47.25-.83.6-1.27.89-.42-.33-1.07-.85-1.53-1.37-.09-.11-.42-.51-.42-.53,0-.06.35-.54.42-.63.16-.22.36-.37.47-.58-.23-.59-.65-1-.84-1.63-.57,0-1.01.15-1.58.16-.3-.8-.61-1.6-.68-2.63.43-.22.87-.43,1.37-.58.01-.42,0-1.25,0-1.84-.4-.27-.93-.41-1.37-.63.08-1.03.38-1.83.68-2.63.56,0,.99.1,1.48.16.37-.48.58-1.14,1-1.58-.3-.4-.62-.79-.9-1.21.18-.43.54-.74.84-1.05.32-.32.65-.62,1-.89.49.23.85.59,1.26.89.54-.3.98-.7,1.63-.89-.09-.5-.14-1.05-.21-1.58.8-.29,1.62-.56,2.58-.68Z"/>
  <path class="d" d="M36.22,90.11c-.43.61-1.08,1.13-1.68,1.74-.1.1-.46.58-.53.58-.13,0-.84-.79-1-.95-.85-.85-1.58-1.58-2.42-2.42-.14-.14-.31-.3-.37-.47,2.47-.34,4.75.31,6,1.53Z"/>
  <path class="d" d="M32.59,94.64c1.09-.92,2.06-2.07,3.1-3.11.17-.17.35-.35.53-.53.14-.14.31-.37.52-.37.83.89.61,2.96.21,4.16-.06.17.18.29.26.37.28.28.61.6.95.9,2.55,2.26,5.13,4.65,7.69,7.06.45.42,1.01.87,1.53,1.37.57.55,1.42,1.14,1.26,2.27-.11.81-1.2,2.02-2.11,2.16-1.09.17-1.58-.63-2.16-1.26-1.36-1.48-2.83-3-4.11-4.42-1.87-2.08-3.56-4.03-5.37-6-.99.1-2.05.07-2.95.11-.22,0-.51.1-.74.05-.34-.07-.73-.65-1.05-1.05-.83-1.05-1.77-2.69-1.89-4.27-.04-.55,0-1.17.05-1.58-.01-.09.05-.11.05-.05,1.44,1.37,2.75,2.87,4.22,4.21ZM44.75,107.01c.37.4,1.11.5,1.53.37,1.42-.45,1.16-3.09-.74-2.74-.98.18-1.63,1.49-.79,2.37Z"/>
  <path class="c" d="M45.54,104.65c1.9-.35,2.16,2.29.74,2.74-.41.13-1.15.03-1.53-.37-.84-.88-.19-2.19.79-2.37Z"/>
</svg>