<?xml version="1.0" encoding="UTF-8"?>
<svg id="a" data-name="SystStatus Label" xmlns="http://www.w3.org/2000/svg" width="123.64" height="108.93" viewBox="0 0 123.64 108.93">
  <defs>
    <style>
      .b {
        fill: #ffdd40;
      }

      .b, .c {
        fill-rule: evenodd;
        stroke-width: 0px;
      }

      .c {
        fill: #000;
      }
    </style>
  </defs>
  <path class="c" d="M9.85,83.31c1.51-.19,1.88,1.01,2.46,2.01,2.23,3.86,4.69,8,6.97,11.9.42.71.97,1.49.96,2.19-.06,2.26-3.03,1.78-5.42,1.78H5.47c-2.41,0-5.36.53-5.47-1.73-.04-.76.53-1.47.96-2.19,2.26-3.86,4.61-7.96,6.84-11.8.51-.89.99-2.01,2.05-2.14ZM9.89,84.81c-.45.42-.77,1.27-1.09,1.82-2.3,3.95-4.62,7.88-6.97,11.9-.11.19-.46.83-.37,1,.2.36,1.54.18,2.01.18h13.26c.55,0,1.86.16,2.05-.18.11-.2-.34-.97-.36-1-2.42-4.13-4.78-8.05-7.11-12.08-.16-.28-.75-1.87-1.32-1.69-.04.01-.07.02-.09.05Z"/>
  <path class="c" d="M10.03,88.78c1.2-.11.82,2.29.82,3.74s.16,2.79-.68,2.83c-1.08.04-.77-1.67-.77-3.14v-1.59c0-.82-.11-1.76.64-1.82Z"/>
  <path class="c" d="M10.03,96.43c.61-.05.89.39.96.59.5,1.53-2.27,1.66-1.73,0,.06-.19.36-.56.77-.59Z"/>
  <path class="b" d="M9.98,84.77c.57-.19,1.16,1.41,1.32,1.69,2.33,4.03,4.69,7.95,7.11,12.08.02.03.47.8.36,1-.19.34-1.5.18-2.05.18H3.47c-.47,0-1.81.17-2.01-.18-.09-.17.25-.81.37-1,2.35-4.02,4.67-7.95,6.97-11.9.32-.55.64-1.4,1.09-1.82.02-.02.06-.03.09-.05ZM9.39,90.6v1.59c0,1.47-.3,3.19.77,3.14.84-.03.68-1.37.68-2.83s.38-3.84-.82-3.74c-.75.07-.64,1-.64,1.82ZM9.25,97.03c-.54,1.66,2.23,1.53,1.73,0-.06-.2-.34-.64-.96-.59-.41.03-.71.41-.77.59Z"/>
</svg>