<?xml version="1.0" encoding="UTF-8"?>
<svg id="a" data-name="SystStatus Label" xmlns="http://www.w3.org/2000/svg" width="108.61" height="88.62" xmlns:xlink="http://www.w3.org/1999/xlink" viewBox="0 0 108.61 88.62">
  <defs>
    <style>
      .g {
        fill: #f7b434;
      }

      .g, .h, .i {
        stroke-width: 0px;
      }

      .h {
        fill: #de912f;
      }

      .i {
        fill: url(#d);
      }
    </style>
    <radialGradient id="d" cx="44.9" cy="14.26" fx="44.9" fy="14.26" r="10.5" gradientUnits="userSpaceOnUse">
      <stop offset="0" stop-color="#fff"/>
      <stop offset=".18" stop-color="#fefdfc"/>
      <stop offset=".29" stop-color="#fefaf3"/>
      <stop offset=".38" stop-color="#fef4e5"/>
      <stop offset=".46" stop-color="#feecd1"/>
      <stop offset=".54" stop-color="#fde1b6"/>
      <stop offset=".61" stop-color="#fcd495"/>
      <stop offset=".67" stop-color="#fcc56f"/>
      <stop offset=".73" stop-color="#fbb343"/>
      <stop offset=".75" stop-color="#fbb03b"/>
      <stop offset=".95" stop-color="#f15a24"/>
    </radialGradient>
  </defs>
  <g id="b" data-name="Indicators">
    <path id="c" data-name="Active-Flashing" class="h" d="M36.15,14.27c0-4.83,3.92-8.75,8.75-8.75s8.75,3.92,8.75,8.75-3.92,8.75-8.75,8.75-8.75-3.92-8.75-8.75Z"/>
    <path id="e" data-name="Active-Flashing Big" class="i" d="M34.4,14.27c0-5.8,4.7-10.5,10.49-10.5s10.5,4.7,10.5,10.5-4.7,10.5-10.5,10.5-10.49-4.7-10.49-10.5Z"/>
    <path id="f" data-name="Active-Flashing" class="g" d="M41.37,14.26c0-1.95,1.58-3.53,3.52-3.53s3.53,1.58,3.53,3.53-1.58,3.52-3.53,3.52-3.52-1.58-3.52-3.52Z"/>
  </g>
</svg>