<?xml version="1.0" encoding="UTF-8"?>
<svg version="1.1" xmlns="http://www.w3.org/2000/svg" width="512" height="512">
<path d="M0 0 C2.42724255 0.96263418 4.85644878 1.92021165 7.28582764 2.87744141 C15.33055457 6.04953571 23.37163963 9.23066834 31.40570068 12.4296875 C44.76651754 17.74699782 58.16232807 22.95723695 71.61053467 28.04931641 C85.17939025 33.18967631 98.72347241 38.38634128 112.23553467 43.67431641 C113.06978973 44.00075134 113.9040448 44.32718628 114.76358032 44.66351318 C116.02188156 45.1558847 116.02188156 45.1558847 117.30560303 45.65820312 C119.0231256 46.33025807 120.74065496 47.00229567 122.45819092 47.67431641 C123.32026657 48.01165802 124.18234222 48.34899963 125.07054138 48.69656372 C135.76267671 52.87820754 146.46790895 57.02606831 157.17303467 61.17431641 C158.70929001 61.76969711 158.70929001 61.76969711 160.27658081 62.37710571 C165.49066271 64.39782245 170.70485911 66.41824346 175.91912842 68.43847656 C184.13784294 71.62292435 192.3556659 74.80967045 200.57342529 77.99658203 C204.62401004 79.56740197 208.6748026 81.1376842 212.72576904 82.70751953 C222.21291423 86.38439453 231.6986592 90.06476526 241.17974854 93.75723267 C245.61131458 95.48289023 250.04363622 97.20660233 254.47601318 98.93017578 C256.56932591 99.74480134 258.66227652 100.56035818 260.75482178 101.37695312 C271.59727006 105.6078506 282.44988651 109.75034859 293.45184326 113.54956055 C316.7046701 121.74953065 316.7046701 121.74953065 320.61053467 126.67431641 C322.34052948 133.402074 320.53063979 138.18716144 317.57928467 144.10009766 C317.20121674 144.88525253 316.8231488 145.67040741 316.43362427 146.47935486 C315.19238084 149.05050196 313.93265175 151.61212793 312.67303467 154.17431641 C311.79930696 155.97730381 310.92709235 157.78102518 310.05633545 159.58544922 C308.28294936 163.25835774 306.50390343 166.92843776 304.72088623 170.59667969 C301.42488141 177.39123797 298.21081529 184.22342676 295.00860596 191.06256104 C294.0488639 193.11004735 293.08566135 195.15586851 292.12127686 197.20117188 C288.96503689 203.89738979 285.82640377 210.60108796 282.72103882 217.32107544 C281.17097185 220.67170865 279.61273668 224.01850951 278.0534668 227.36486816 C277.30620052 228.9741475 276.56276168 230.58521023 275.82336426 232.19812012 C274.79848185 234.43306727 273.76068466 236.66157939 272.71990967 238.88916016 C272.41954803 239.55308273 272.1191864 240.21700531 271.8097229 240.90104675 C270.11621711 244.48751123 268.70793893 246.95691412 265.17303467 248.86181641 C260.99110184 249.89937839 256.78190072 250.17890227 252.49627686 250.45019531 C251.3610685 250.52597557 251.3610685 250.52597557 250.20292664 250.60328674 C247.70881264 250.76864734 245.21440375 250.92886122 242.71990967 251.08837891 C240.97741244 251.20137631 239.23491983 251.31444503 237.49243164 251.42758179 C233.84103652 251.66368548 230.18946788 251.89687688 226.53778076 252.12841797 C221.87603223 252.42452599 217.21502499 252.73095128 212.55411911 253.04000282 C208.95462284 253.27697426 205.35469618 253.50681321 201.75461578 253.73472214 C200.03699546 253.84460723 198.31953575 253.95703546 196.60225677 254.07213211 C184.33726425 254.89029749 174.37130938 255.27073611 162.96209717 250.24072266 C162.09312805 249.86944748 161.22415894 249.4981723 160.32885742 249.11564636 C157.48046505 247.89601963 154.63944743 246.66010526 151.79803467 245.42431641 C149.79095831 244.56197803 147.78329832 243.70099692 145.77508545 242.84130859 C142.66895 241.51127036 139.5632774 240.18023643 136.45950317 238.84469604 C125.21807967 234.00804168 113.92217965 229.30407105 102.62353516 224.60305786 C84.74802833 217.16027138 66.9633036 209.50546174 49.17303467 201.86181641 C52.37339985 218.52732506 55.58076452 235.19146939 58.79638386 251.8540411 C60.28941354 259.59143421 61.7801815 267.32925009 63.26556396 275.06811523 C64.56078765 281.81621886 65.86031766 288.56347665 67.1649453 295.30976874 C67.85507238 298.87924469 68.5430904 302.44909714 69.22594643 306.01997185 C69.98981535 310.01405014 70.76329632 314.00621021 71.53753662 317.99829102 C71.76051926 319.1721788 71.98350189 320.34606659 72.21324158 321.55552673 C73.31010286 327.16977543 74.55653458 332.53289292 76.56709576 337.89478397 C77.70579928 341.59130636 77.6610435 345.33564552 77.61053467 349.17431641 C77.60151123 350.00318359 77.59248779 350.83205078 77.58319092 351.68603516 C77.24778026 363.64901514 73.27611336 372.98291103 65.17303467 381.86181641 C57.37583299 388.63598098 48.2031421 390.97054149 38.17303467 392.29931641 C19.70888282 394.75132944 2.30921775 400.54312596 -15.32855225 406.33203506 C-20.8180536 408.13067374 -26.31353374 409.91105371 -31.80780029 411.69507027 C-33.92731923 412.38349261 -36.0465821 413.0726992 -38.16583252 413.76194763 C-52.69315039 418.48326203 -67.25639884 423.08843622 -81.82696533 427.67431641 C-83.56852905 428.2226413 -83.56852905 428.2226413 -85.34527588 428.78204346 C-86.47554199 429.13788513 -87.60580811 429.49372681 -88.77032471 429.86035156 C-89.87573608 430.208479 -90.98114746 430.55660645 -92.12005615 430.9152832 C-94.26963293 431.59154553 -96.41960594 432.26654993 -98.57000732 432.94018555 C-103.76447043 434.56958992 -108.9489435 436.22322394 -114.11993408 437.92578125 C-115.1240332 438.25374191 -116.12813232 438.58170258 -117.16265869 438.91960144 C-119.04481144 439.53568245 -120.92472556 440.15866489 -122.80181885 440.78999329 C-128.31277446 442.5868325 -133.0412626 444.12804492 -138.57696533 441.61181641 C-141.02469166 439.70802926 -141.72307067 438.71516358 -142.82696533 435.86181641 C-143.06988525 433.15600586 -143.06988525 433.15600586 -143.05743408 429.97509766 C-143.05638672 428.74952148 -143.05533936 427.52394531 -143.05426025 426.26123047 C-143.04173825 424.89891875 -143.02844839 423.53661391 -143.01446533 422.17431641 C-143.00548015 420.75081553 -142.99678069 419.32731282 -142.98834229 417.90380859 C-142.95916453 413.82900671 -142.9111253 409.75457333 -142.86016846 405.67999268 C-142.82446182 402.64932599 -142.79603546 399.61864101 -142.76837158 396.58789062 C-142.71575329 391.03579835 -142.64452113 385.48418248 -142.56149292 379.9324646 C-142.5301893 377.72209597 -142.50346202 375.5116577 -142.48135376 373.30117798 C-142.44806625 370.16994473 -142.39574982 367.03957009 -142.33868408 363.90869141 C-142.32907654 362.49661659 -142.32907654 362.49661659 -142.3192749 361.05601501 C-142.12704174 352.54964851 -142.12704174 352.54964851 -138.82696533 348.86181641 C-133.55895697 345.69700942 -128.06265269 344.58712577 -122.12750244 343.31811523 C-121.06176498 343.08359146 -119.99602753 342.84906769 -118.897995 342.60743713 C-115.38511894 341.83661847 -111.86983608 341.07747642 -108.35430908 340.31884766 C-105.90851438 339.78560448 -103.46284238 339.2517982 -101.01728821 338.717453 C-95.89658898 337.60042402 -90.77475667 336.48875439 -85.6519165 335.3815918 C-79.7357307 334.10290316 -73.82164617 332.81484456 -67.9086284 331.52159101 C-62.20939962 330.27525778 -56.50888534 329.03490884 -50.80774117 327.797369 C-48.38611515 327.27125156 -45.96479105 326.74374253 -43.54377556 326.21482277 C-40.16262044 325.47717066 -36.78006885 324.74630817 -33.39703369 324.01733398 C-32.3958551 323.79762939 -31.39467651 323.5779248 -30.36315918 323.3515625 C-29.43939987 323.15395828 -28.51564056 322.95635406 -27.56388855 322.75276184 C-26.7651126 322.57967404 -25.96633665 322.40658625 -25.14335537 322.22825336 C-22.66954411 321.83691345 -20.32744558 321.79864009 -17.82696533 321.86181641 C-17.94608874 321.29849704 -18.06521215 320.73517767 -18.18794537 320.15478802 C-21.79828758 303.04363379 -25.22132957 285.89764736 -28.58409142 268.73645043 C-29.00851366 266.57066888 -29.43325749 264.40495062 -29.85808372 262.23924828 C-31.19319634 255.43243582 -32.52713786 248.62539545 -33.8593486 241.81801444 C-35.3875569 234.00920175 -36.91987371 226.20120943 -38.45556957 218.39386588 C-39.65218337 212.30907665 -40.84519236 206.22358762 -42.03546017 200.13755387 C-42.74293029 196.52057001 -43.45191261 192.90389871 -44.16469765 189.28795815 C-44.95487191 185.27883562 -45.73757301 181.26828957 -46.51959229 177.25756836 C-46.87248825 175.47561821 -46.87248825 175.47561821 -47.23251343 173.65766907 C-47.44405563 172.56639709 -47.65559784 171.47512512 -47.87355042 170.3507843 C-48.05878926 169.40577718 -48.24402811 168.46077005 -48.43488026 167.48712635 C-48.82098515 164.90185829 -48.89905554 162.47128621 -48.82696533 159.86181641 C-49.36997284 159.68903168 -49.91298035 159.51624695 -50.47244263 159.33822632 C-56.10949171 157.50710029 -61.56626825 155.39885889 -67.02227783 153.08837891 C-67.88097977 152.72800537 -68.7396817 152.36763184 -69.62440491 151.99633789 C-72.40169479 150.82987832 -75.17694962 149.65867493 -77.95196533 148.48681641 C-80.84123194 147.26926428 -83.73075783 146.05232935 -86.62034607 144.83554077 C-88.5575442 144.01973599 -90.49456618 143.20351282 -92.43141174 142.38687134 C-98.41143767 139.8682059 -104.4040454 137.3828905 -110.40899658 134.92431641 C-112.53007927 134.05161894 -114.65084335 133.17815239 -116.77148438 132.30438232 C-118.08993375 131.76352453 -119.4097859 131.22607253 -120.7310791 130.69219971 C-122.54663338 129.95821011 -124.35687434 129.21111836 -126.16680908 128.46337891 C-127.1709082 128.0542627 -128.17500732 127.64514648 -129.20953369 127.22363281 C-132.66092318 125.42791874 -135.07690311 123.36194084 -136.82696533 119.86181641 C-137.1510764 112.91968192 -136.24885216 106.63074588 -134.88677979 99.83764648 C-134.6802327 98.77307724 -134.47368561 97.708508 -134.26087952 96.61167908 C-133.57983807 93.11636549 -132.88589998 89.62378042 -132.19024658 86.13134766 C-131.70875361 83.69240192 -131.22748981 81.25341094 -130.7464447 78.81437683 C-129.73791602 73.71345481 -128.72218916 68.61402478 -127.70220947 63.51538086 C-126.39715871 56.98544249 -125.1169793 50.4510228 -123.84295368 43.91495228 C-122.85767608 38.88098551 -121.85584838 33.85041764 -120.8493557 28.82065392 C-120.37021785 26.41250787 -119.89702305 24.00317137 -119.42992592 21.5926609 C-118.77529031 18.22398295 -118.09764758 14.86072056 -117.41412354 11.49780273 C-117.22638367 10.50493256 -117.0386438 9.51206238 -116.84521484 8.48910522 C-115.61784897 2.60240392 -114.16769971 -0.91705192 -109.82696533 -5.13818359 C-107.67730713 -6.24658203 -107.67730713 -6.24658203 -105.52618408 -6.74755859 C-104.72301758 -6.94389893 -103.91985107 -7.14023926 -103.09234619 -7.3425293 C-101.81629517 -7.61262817 -101.81629517 -7.61262817 -100.51446533 -7.88818359 C-99.61929199 -8.09080811 -98.72411865 -8.29343262 -97.80181885 -8.50219727 C-64.13312552 -15.88381457 -31.84998596 -12.63606646 0 0 Z M-93.88946533 5.42431641 C-96.11232597 8.73065956 -96.11232597 8.73065956 -95.88946533 12.48681641 C-94.67525309 16.34372587 -93.94457131 17.343978 -90.82696533 19.86181641 C-87.69586358 21.45460088 -84.45337696 22.72599362 -81.18536377 24.00927734 C-79.7154171 24.60070778 -79.7154171 24.60070778 -78.21577454 25.2040863 C-74.95979988 26.51127321 -71.6981741 27.80370186 -68.43634033 29.09619141 C-66.13855633 30.0153163 -63.84113826 30.9353565 -61.54406738 31.85626221 C-56.08060301 34.0440223 -50.61353488 36.22256403 -45.1446259 38.39667439 C-38.48693693 41.04396353 -31.83470845 43.70486443 -25.18243408 46.36572266 C-14.61312139 50.59154896 -4.04029593 54.80849635 6.53428841 59.02111149 C16.46078137 62.97573976 26.38472931 66.93669168 36.30584717 70.90478516 C37.08644123 71.21698187 37.86703529 71.52917858 38.67128372 71.8508358 C53.17092339 77.65120621 67.66072385 83.47602107 82.14959717 89.30322266 C83.27516525 89.7558913 84.40073334 90.20855995 85.56040955 90.67494583 C95.97009098 94.86149863 106.37962472 99.04841813 116.78826904 103.23754883 C129.14658532 108.21098262 141.50707515 113.17888337 153.87350845 118.13210487 C159.90758528 120.54966411 165.93765968 122.97681391 171.96414375 125.41323566 C175.52675755 126.85133785 179.09268293 128.28107293 182.65961838 129.70841789 C184.28741298 130.36183876 185.91378631 131.01881343 187.53859329 131.67962837 C189.73905738 132.57404504 191.94423427 133.45565495 194.15106201 134.33422852 C195.98234146 135.0721891 195.98234146 135.0721891 197.85061646 135.82505798 C201.2196891 136.87637489 203.6724291 137.23374331 207.17303467 136.86181641 C210.39971772 134.4238781 211.89156267 132.7062324 213.17303467 128.86181641 C213.17303467 125.03056651 212.58634306 123.85537874 210.17303467 120.86181641 C207.22973954 119.11291634 204.10998816 117.88774134 200.93206787 116.62841797 C199.99883603 116.24416782 199.06560419 115.85991768 198.1040926 115.46402359 C195.13358533 114.24649767 192.15430343 113.05271736 189.17303467 111.86181641 C187.31831063 111.11079574 185.46384396 110.35913912 183.60964966 109.60681152 C177.75978793 107.24326969 171.89460228 104.91907025 166.02850342 102.59619141 C163.83513734 101.72508841 161.64188783 100.85369188 159.44874573 99.98202515 C154.81810557 98.14203336 150.18686406 96.30356758 145.55511475 94.46636963 C133.33490713 89.61876599 121.11933835 84.75948842 108.90350342 79.90087891 C107.69083675 79.41865246 106.47817009 78.93642601 105.22875595 78.43958664 C85.54788646 70.61276803 65.88390513 62.74543801 46.24206924 54.82120895 C43.48737183 53.71030485 40.73206726 52.60091122 37.9767561 51.49153042 C23.3747985 45.61171601 8.78316206 39.70715361 -5.79563904 33.77013397 C-14.31161319 30.3026546 -22.83149448 26.84488243 -31.35365295 23.39263153 C-37.60106652 20.86101215 -43.84337715 18.31731715 -50.08213806 15.76445484 C-53.95387882 14.18358063 -57.83027526 12.61438929 -61.70803833 11.0483532 C-63.51857335 10.31440847 -65.32716175 9.57564087 -67.13363647 8.8317585 C-69.62274047 7.80758571 -72.11825901 6.80091419 -74.61602783 5.7980957 C-75.33460464 5.49760378 -76.05318146 5.19711185 -76.79353333 4.88751411 C-82.82942043 2.49980328 -88.54070965 0.94882696 -93.88946533 5.42431641 Z M233.17303467 139.86181641 C232.49389008 140.12527359 231.81474548 140.38873077 231.11502075 140.66017151 C228.54127247 142.2527326 228.0393339 143.69606833 226.92156982 146.49047852 C226.5261499 147.45963196 226.13072998 148.4287854 225.72332764 149.42730713 C225.30712158 150.48721863 224.89091553 151.54713013 224.46209717 152.63916016 C224.01672607 153.74153015 223.57135498 154.84390015 223.11248779 155.97967529 C221.66116012 159.58108771 220.22936579 163.1899154 218.79803467 166.79931641 C217.81008701 169.26372526 216.82098846 171.72767304 215.83074951 174.19116211 C213.85680767 179.10779235 211.89057594 184.0273949 209.93084717 188.94970703 C207.51330647 195.01821904 205.06857742 201.07524363 202.61053467 207.12744141 C201.63935629 209.52552566 200.66894923 211.92391955 199.69909668 214.32254028 C199.10067107 215.80141724 198.50111078 217.27983558 197.90039062 218.75778198 C197.08247384 220.77350477 196.27127483 222.79179151 195.46209717 224.81103516 C194.79234863 226.47138794 194.79234863 226.47138794 194.10906982 228.1652832 C193.00906964 230.85843834 193.00906964 230.85843834 193.17303467 233.86181641 C200.0925326 233.45532506 207.01186427 233.0460862 213.93109131 232.63500977 C216.28098949 232.49571709 218.63092393 232.35703469 220.980896 232.21899414 C224.37446848 232.01954165 227.76790097 231.81783564 231.16131592 231.61572266 C232.19823074 231.5552626 233.23514557 231.49480255 234.30348206 231.43251038 C237.2610014 231.25513515 240.21696106 231.06174596 243.17303467 230.86181641 C244.20131378 230.79855667 245.2295929 230.73529694 246.28903198 230.67012024 C247.27805511 230.59851181 248.26707825 230.52690338 249.28607178 230.453125 C250.17306259 230.39281097 251.06005341 230.33249695 251.97392273 230.27035522 C254.42203858 230.03101776 254.42203858 230.03101776 256.37615967 227.64697266 C256.72162842 226.74849609 257.06709717 225.85001953 257.42303467 224.92431641 C257.79944092 224.02841797 258.17584717 223.13251953 258.56365967 222.20947266 C259.44744956 219.86265763 259.44744956 219.86265763 258.17303467 217.86181641 C257.54655029 218.28333984 256.92006592 218.70486328 256.27459717 219.13916016 C255.45733154 219.68701172 254.64006592 220.23486328 253.79803467 220.79931641 C252.98592529 221.34458984 252.17381592 221.88986328 251.33709717 222.45166016 C246.23709793 225.77494486 241.12920769 225.63109195 235.17303467 224.86181641 C231.15684954 223.09161634 229.00842856 220.55664431 227.08709717 216.65869141 C222.93110646 204.83890131 224.67631058 191.3367603 229.82537842 180.10400391 C232.35458624 174.8756708 235.14162276 169.81558709 238.17303467 164.86181641 C237.53365967 164.57306641 236.89428467 164.28431641 236.23553467 163.98681641 C234.17303467 162.86181641 234.17303467 162.86181641 233.17303467 160.86181641 C232.36101643 154.44554116 233.37273322 149.16190237 237.17303467 143.86181641 C240.62332508 141.5616228 242.11857825 141.43049126 246.17303467 141.86181641 C248.45366294 145.28275882 248.39228473 146.54368863 248.29803467 150.54931641 C248.27998779 151.54318359 248.26194092 152.53705078 248.24334717 153.56103516 C248.22014404 154.32029297 248.19694092 155.07955078 248.17303467 155.86181641 C249.34865967 155.53181641 250.52428467 155.20181641 251.73553467 154.86181641 C256.94290277 153.58523057 261.2376067 153.14077461 266.36053467 155.04931641 C270.9467127 158.00485336 273.45840138 161.2772337 274.80194092 166.61572266 C275.63456297 171.65527717 275.88191226 176.76717431 276.17303467 181.86181641 C278.75094603 178.69183739 280.43089544 175.44020733 282.13397217 171.73291016 C282.40641754 171.1431691 282.67886292 170.55342804 282.95956421 169.94581604 C283.82684115 168.06566238 284.68750683 166.18256708 285.54803467 164.29931641 C286.11791841 163.06148871 286.68822738 161.8238567 287.25897217 160.58642578 C290.58955855 153.35673034 293.88613143 146.1114609 297.17303467 138.86181641 C294.56900894 136.08917788 292.41287985 134.99458446 288.79803467 133.73681641 C287.86217529 133.40423828 286.92631592 133.07166016 285.96209717 132.72900391 C267.9889283 127.1407077 249.74654565 132.55236869 233.17303467 139.86181641 Z M-26.82696533 169.86181641 C-25.53923914 178.63519208 -24.0299609 187.33952564 -22.32086182 196.04003906 C-22.07833679 197.28557556 -21.83581177 198.53111206 -21.5859375 199.81439209 C-20.92930359 203.18608591 -20.2694668 206.5571451 -19.60888171 209.92806673 C-18.91504731 213.47104158 -18.22387656 217.0145362 -17.53230286 220.55795288 C-16.37331166 226.49407054 -15.21223192 232.42977672 -14.04986572 238.36523438 C-12.70649637 245.22509053 -11.36642755 252.08558526 -10.02809662 258.94642603 C-8.736754 265.5660092 -7.44316133 272.1851507 -6.1485157 278.80408859 C-5.59876968 281.61488285 -5.04980332 284.42582771 -4.50146294 287.23689651 C-3.73784918 291.15089869 -2.97094037 295.06425113 -2.20367432 298.97753906 C-1.97664322 300.14322418 -1.74961212 301.3089093 -1.51570129 302.50991821 C-1.3068631 303.57226685 -1.0980249 304.63461548 -0.88285828 305.72915649 C-0.70201911 306.65342249 -0.52117994 307.57768848 -0.3348608 308.52996254 C0.15941872 310.99944634 0.15941872 310.99944634 1.17303467 313.86181641 C6.45303467 313.86181641 11.73303467 313.86181641 17.17303467 313.86181641 C15.85329768 305.6473421 14.32877562 297.51502882 12.59100342 289.37963867 C12.21499496 287.60415398 12.21499496 287.60415398 11.83139038 285.7928009 C11.15161581 282.58622879 10.46948455 279.38017084 9.78595352 276.17439771 C9.21340285 273.48784221 8.64239969 270.80095868 8.07134151 268.11408561 C6.72459402 261.77791719 5.37497871 255.44236428 4.02362061 249.10717773 C2.63211125 242.58347295 1.2458994 236.05865791 -0.13782597 229.53329808 C-1.33042885 223.91025812 -2.5264868 218.28796052 -3.72527218 212.66623539 C-4.43939587 209.31711328 -5.15217643 205.96771964 -5.86154175 202.61758614 C-6.6517568 198.89021404 -7.44761695 195.1640908 -8.24493408 191.43823242 C-8.47772064 190.33427124 -8.7105072 189.23031006 -8.9503479 188.09289551 C-9.16897491 187.07683731 -9.38760193 186.06077911 -9.612854 185.01393127 C-9.80014572 184.13445611 -9.98743744 183.25498095 -10.18040466 182.34885502 C-10.86659771 179.70936783 -11.64313273 177.32116839 -12.82696533 174.86181641 C-15.58449692 173.17819309 -15.58449692 173.17819309 -18.82696533 172.04931641 C-19.89946533 171.63037109 -20.97196533 171.21142578 -22.07696533 170.77978516 C-24.65995373 169.75627242 -24.65995373 169.75627242 -26.82696533 169.86181641 Z M11.17303467 185.86181641 C11.73457095 193.13928539 12.92613586 200.13463488 14.47381592 207.26245117 C14.70644135 208.35470505 14.93906677 209.44695892 15.17874146 210.5723114 C15.9422998 214.15045554 16.71369781 217.72685592 17.48553467 221.30322266 C18.02016485 223.79752325 18.55442032 226.29190418 19.08831787 228.78636169 C20.2045822 233.99593618 21.32447825 239.20471028 22.44744873 244.4128418 C23.74644695 250.43758237 25.03884441 256.46371008 26.32771397 262.49062496 C27.56986336 268.29848751 28.81628907 274.10542544 30.06472778 279.91193962 C30.59523891 282.38100362 31.12471909 284.85028936 31.65316772 287.31979561 C32.38916734 290.75591626 33.13000651 294.19095666 33.87225342 297.62573242 C34.09150482 298.65370941 34.31075623 299.6816864 34.53665161 300.74081421 C34.73852081 301.67012253 34.94039001 302.59943085 35.14837646 303.55690002 C35.32314011 304.36891656 35.49790375 305.18093309 35.67796326 306.01755619 C36.00909999 307.86441646 36.00909999 307.86441646 37.17303467 308.86181641 C39.18898048 309.09609418 41.21150867 309.27517765 43.23553467 309.42431641 C44.89262451 309.55 44.89262451 309.55 46.58319092 309.67822266 C47.43783936 309.73880859 48.29248779 309.79939453 49.17303467 309.86181641 C45.25069915 287.29827615 40.97367115 264.80472367 36.64251709 242.31665039 C35.66489739 237.23851089 34.6955577 232.15882424 33.72781086 227.07879543 C32.97485294 223.13437244 32.21586697 219.19112717 31.45519066 215.24818611 C31.0944744 213.37270878 30.73605256 211.4967886 30.37999916 209.62042046 C29.88683278 207.02439236 29.38515023 204.43015149 28.88128662 201.83618164 C28.73736984 201.06809174 28.59345306 200.30000183 28.44517517 199.50863647 C27.76703703 196.0627198 27.14787652 193.82407919 25.17303467 190.86181641 C22.37863562 189.40313715 22.37863562 189.40313715 19.17303467 188.17431641 C17.56428467 187.51882812 17.56428467 187.51882812 15.92303467 186.85009766 C13.34637492 185.7490835 13.34637492 185.7490835 11.17303467 185.86181641 Z M41.17303467 328.86181641 C41.4850514 330.90355698 41.79767036 332.94520553 42.11053467 334.98681641 C42.28455811 336.12376953 42.45858154 337.26072266 42.63787842 338.43212891 C42.97657817 340.60277402 43.3371475 342.7702156 43.72772217 344.93212891 C45.0154436 353.40398044 44.22310709 361.58830985 42.17303467 369.86181641 C47.06946482 369.40633453 49.76212888 368.45224355 53.17303467 364.86181641 C57.68486293 358.05733274 58.15973132 350.82586799 57.17303467 342.86181641 C55.48186566 336.94272488 52.25310701 333.21466415 47.17303467 329.86181641 C45.18361481 329.47025577 43.18310392 329.12777264 41.17303467 328.86181641 Z M-2.51446533 338.48681641 C-6.80341565 344.06245183 -8.58560052 350.90766048 -7.82696533 357.86181641 C-6.35228966 364.4247874 -2.76780318 369.35891646 2.17303467 373.86181641 C6.23377997 375.21539817 9.92772419 375.68212817 14.04412842 374.17822266 C19.4268539 371.38846601 21.97185944 367.56446067 24.42303467 362.04931641 C26.31975378 353.98826019 25.32507159 347.08807535 21.17303467 339.86181641 C18.12343771 336.04789009 14.95878659 333.6892441 10.11053467 332.79931641 C4.30232551 332.8915102 1.59662522 334.47133262 -2.51446533 338.48681641 Z M-37.48345947 345.68188477 C-38.37947372 345.87534988 -39.27548798 346.068815 -40.19865417 346.2681427 C-43.1702899 346.91045343 -46.14123471 347.55589521 -49.11212158 348.20166016 C-51.16951407 348.64774404 -53.22692292 349.09375242 -55.28434753 349.53968811 C-59.5997343 350.47560213 -63.91475243 351.41319505 -68.22955322 352.35180664 C-73.77301302 353.55743764 -79.31761041 354.75774544 -84.86252689 355.95665646 C-89.11198842 356.87628256 -93.36070803 357.79929937 -97.6092205 358.72329903 C-99.65399884 359.16746225 -101.69903998 359.6104173 -103.7443409 360.05216789 C-106.59696431 360.66869734 -109.44852861 361.28990644 -112.29986572 361.91235352 C-113.1533963 362.09577301 -114.00692688 362.2791925 -114.88632202 362.46817017 C-118.66661308 363.01724659 -118.66661308 363.01724659 -121.82696533 364.86181641 C-121.98782328 367.56904993 -122.08681778 370.25332887 -122.14337158 372.96337891 C-122.16415268 373.79203461 -122.18493378 374.62069031 -122.2063446 375.47445679 C-122.24972665 377.24154299 -122.29075348 379.0086883 -122.32965088 380.77587891 C-122.38814706 383.42706889 -122.45352844 386.07801151 -122.52032471 388.72900391 C-122.7644508 398.77537706 -122.88722704 408.81245913 -122.82696533 418.86181641 C-113.63965166 416.72147697 -104.69020304 413.99755872 -95.72930908 411.07275391 C-94.28666842 410.60503818 -92.84392196 410.13764869 -91.40107727 409.67056274 C-88.38396078 408.6929592 -85.36769638 407.71278747 -82.35211182 406.73046875 C-78.57528725 405.50018894 -74.79708219 404.27422397 -71.01830101 403.04996872 C-52.5902412 397.07905659 -34.19186459 391.02447172 -15.82696533 384.86181641 C-16.3105249 384.12358643 -16.79408447 383.38535645 -17.29229736 382.62475586 C-17.92506592 381.64724365 -18.55783447 380.66973145 -19.20977783 379.66259766 C-19.8377124 378.69749268 -20.46564697 377.7323877 -21.11260986 376.73803711 C-25.88732946 368.72736045 -27.00547994 360.1965918 -26.88946533 350.98681641 C-26.88495361 350.29845703 -26.88044189 349.61009766 -26.87579346 348.90087891 C-26.86412869 347.22115305 -26.84619804 345.54147265 -26.82696533 343.86181641 C-30.43853042 343.86181641 -33.96492813 344.91560796 -37.48345947 345.68188477 Z " fill="#000000" transform="translate(169.82696533203125,42.13818359375)"/>
</svg>
