<?xml version="1.0" encoding="UTF-8"?>
<svg version="1.1" xmlns="http://www.w3.org/2000/svg" width="512" height="512">
<path d="M0 0 C0.76416229 -0.00067474 1.52832458 -0.00134949 2.31564331 -0.00204468 C13.71696546 0.01396989 24.57950245 0.47019839 35.6875 3.25 C36.37440918 3.41628906 37.06131836 3.58257812 37.76904297 3.75390625 C60.1505356 9.28652516 80.40618234 20.01987732 97.6875 35.25 C98.63882813 36.05695313 99.59015625 36.86390625 100.5703125 37.6953125 C127.84598001 61.55261959 145.65455911 97.09346478 148.6875 133.25 C149.36369704 149.06542482 149.3003367 164.78558291 145.6875 180.25 C145.51009277 181.02118164 145.33268555 181.79236328 145.14990234 182.58691406 C139.54337485 205.8594718 128.34951935 226.87695203 112.8125 244.9375 C96.59174463 264.10748362 78.52564284 292.83789484 78.5456543 318.69555664 C78.54217987 319.42803619 78.53870544 320.16051575 78.53512573 320.91519165 C78.52779502 322.50077119 78.52243539 324.08636081 78.51883507 325.6719532 C78.51162796 328.19190234 78.49592765 330.7116614 78.47749329 333.23155212 C78.42524002 340.39481921 78.37712808 347.55798218 78.36157227 354.72143555 C78.35141892 359.11056434 78.32190853 363.49921312 78.28025246 367.88815117 C78.26803945 369.55005682 78.26280323 371.21203056 78.26505089 372.87397957 C78.2787051 386.27137634 77.00221205 397.85270641 67.6875 408.25 C67.18605469 408.85457031 66.68460938 409.45914062 66.16796875 410.08203125 C60.64180959 416.25358127 52.79763124 420.53269046 44.6875 422.25 C41.89367634 422.35970914 39.12406817 422.41750574 36.32983398 422.42700195 C35.48860489 422.43357315 34.64737579 422.44014435 33.78065491 422.44691467 C30.9983002 422.46661287 28.2159995 422.47830504 25.43359375 422.48828125 C24.00339244 422.49439454 24.00339244 422.49439454 22.54429817 422.50063133 C17.49364566 422.52148129 12.4430202 422.53578539 7.39233398 422.54516602 C2.19636896 422.55620381 -2.99916469 422.59057644 -8.19497776 422.63033772 C-12.20752207 422.6565918 -16.21996518 422.66486583 -20.23258781 422.66844749 C-22.14658445 422.67329392 -24.06057715 422.68485188 -25.97448921 422.70348549 C-42.15194442 422.85114663 -53.15933333 420.91188441 -65.25 409.40625 C-73.11567174 401.13373317 -76.42277168 391.47594695 -76.4543457 380.21923828 C-76.45782013 379.53059189 -76.46129456 378.8419455 -76.46487427 378.13243103 C-76.47220316 376.64180424 -76.47756375 375.15116673 -76.48116493 373.66052628 C-76.48838325 371.28677018 -76.50409365 368.91321458 -76.52250671 366.53952026 C-76.57469281 359.79167608 -76.62281593 353.04393963 -76.63842773 346.29589844 C-76.64862087 342.15961486 -76.67823211 338.0238352 -76.71974754 333.88775253 C-76.73190951 332.32601646 -76.73720647 330.76420871 -76.73494911 329.20242691 C-76.70008 297.17467291 -94.56513194 263.49609477 -116.30078125 240.51171875 C-119.90397616 236.46074816 -122.57411825 231.91057196 -125.3125 227.25 C-125.65780762 226.68603516 -126.00311523 226.12207031 -126.35888672 225.54101562 C-141.23924202 201.23315045 -150.05294008 171.94874605 -148.3125 143.25 C-148.27141113 142.56953613 -148.23032227 141.88907227 -148.18798828 141.18798828 C-146.95359736 122.53803733 -143.34518939 104.22290806 -135.3125 87.25 C-134.96590332 86.51571777 -134.61930664 85.78143555 -134.26220703 85.02490234 C-123.97054381 63.62125807 -109.41683405 44.53188079 -90.3125 30.25 C-89.35214844 29.52425781 -88.39179688 28.79851562 -87.40234375 28.05078125 C-61.52280245 9.30365462 -31.85093893 0.02513416 0 0 Z M-84.3125 56.25 C-85.26769531 57.12398437 -86.22289062 57.99796875 -87.20703125 58.8984375 C-111.32635019 81.90455711 -123.71307002 114.23631218 -124.6875 147.25 C-123.76945974 178.35320408 -112.8704994 207.34299909 -92.5 230.875 C-85.83790388 238.72491171 -80.58232658 247.42746148 -75.3125 256.25 C-74.85810547 257.00619629 -74.40371094 257.76239258 -73.93554688 258.54150391 C-68.95359759 266.91139882 -64.60299772 275.40813416 -60.9375 284.4375 C-60.4729541 285.57529907 -60.4729541 285.57529907 -59.99902344 286.73608398 C-57.10933086 294.16391455 -55.40245858 301.41265534 -53.3125 309.25 C-17.6725 309.25 17.9675 309.25 54.6875 309.25 C56.6675 302.32 58.6475 295.39 60.6875 288.25 C69.43110205 266.8618042 80.80635319 244.82324128 96.75 227.8125 C118.50203052 204.08699897 126.0776845 169.18438616 124.84716797 138.02832031 C123.04593152 106.68570445 107.28787921 75.66325143 83.96484375 54.81640625 C81.25405421 52.55550865 78.49949295 50.38337616 75.6875 48.25 C74.89859375 47.64542969 74.1096875 47.04085937 73.296875 46.41796875 C57.32627526 34.70443285 39.13190995 27.60331636 19.6875 24.25 C18.11742187 23.97542969 18.11742187 23.97542969 16.515625 23.6953125 C-20.6473015 19.37227819 -56.94982196 30.75727057 -84.3125 56.25 Z M-52.3125 333.25 C-52.3125 339.85 -52.3125 346.45 -52.3125 353.25 C-17.3325 353.25 17.6475 353.25 53.6875 353.25 C53.6875 346.65 53.6875 340.05 53.6875 333.25 C18.7075 333.25 -16.2725 333.25 -52.3125 333.25 Z M-52.3125 377.25 C-52.3125 384.22093226 -51.57305974 387.8643777 -46.88671875 392.73046875 C-41.46785367 397.505231 -36.99698051 398.49935261 -29.89526367 398.54052734 C-29.16611252 398.54724457 -28.43696136 398.55396179 -27.68571472 398.56088257 C-25.28389603 398.57982336 -22.88235741 398.5837849 -20.48046875 398.5859375 C-18.80284004 398.59236873 -17.12521244 398.59909733 -15.44758606 398.60610962 C-11.93304852 398.61807299 -8.41860919 398.62179147 -4.90405273 398.62060547 C-0.41510656 398.62040246 4.07320522 398.64768936 8.56200123 398.68214989 C12.0271439 398.70446166 15.49213501 398.70844169 18.95734215 398.70738602 C20.61144888 398.70973612 22.26556017 398.71852623 23.91959572 398.73405075 C37.31287437 398.94057017 37.31287437 398.94057017 48.74609375 392.43359375 C49.20113281 391.85738281 49.65617187 391.28117187 50.125 390.6875 C50.83462891 389.81931641 50.83462891 389.81931641 51.55859375 388.93359375 C54.25519107 384.91202473 53.6875 382.39965811 53.6875 377.25 C18.7075 377.25 -16.2725 377.25 -52.3125 377.25 Z " fill="#000000" transform="translate(254.3125,89.75)"/>
<path d="M0 0 C3.90068039 1.62634231 7.40690828 3.78651579 11 6 C12.37328401 6.8171023 13.74700878 7.63346411 15.12109375 8.44921875 C16.56102463 9.31844532 17.99983145 10.18953671 19.4375 11.0625 C20.12392578 11.4735498 20.81035156 11.88459961 21.51757812 12.30810547 C26.00429503 15.09071148 30.20193532 17.83526076 31.56640625 23.24609375 C31.55894529 27.43169101 31.3223511 30.17833619 28.625 33.5 C24.82884701 37.1153838 22.25265695 37.64263119 17.109375 37.60546875 C10.97325415 36.4106211 5.95721176 32.61486905 0.81884766 29.19726562 C-1.82683887 27.45572915 -4.54530379 25.83539438 -7.25 24.1875 C-11.9162407 21.32412502 -14.47699287 19.01731321 -15.875 13.625 C-16.05962913 8.27075528 -14.38253017 5.50103276 -10.8125 1.625 C-7.05210872 -0.54767052 -4.16598762 -0.91623095 0 0 Z " fill="#000000" transform="translate(62,113)"/>
<path d="M0 0 C0.85207031 -0.04898437 1.70414063 -0.09796875 2.58203125 -0.1484375 C7.123093 0.76385976 9.52770393 4.45219671 12.13208008 8.09472656 C14.10916999 11.2591284 16.06422446 14.43513829 18 17.625 C18.69287109 18.71941406 19.38574219 19.81382813 20.09960938 20.94140625 C24.02523752 27.40032153 26.34516908 31.77826958 25.1875 39.375 C23.42659816 42.42750004 21.39198733 44.77275633 18.1875 46.375 C16.234375 46.61328125 16.234375 46.61328125 13.9375 46.6875 C12.81601563 46.74357422 12.81601563 46.74357422 11.671875 46.80078125 C7.0538664 46.00933009 3.92104252 43.33661073 1.12939453 39.67700195 C-2.38104083 33.7320015 -2.38104083 33.7320015 -3.67382812 31.45922852 C-4.68310556 29.69518074 -5.72619771 27.9546028 -6.7734375 26.21289062 C-10.56824661 19.63597444 -12.9781832 15.00562355 -11.8125 7.375 C-8.86528335 2.27096896 -5.79857461 0.22603139 0 0 Z " fill="#000000" transform="translate(141.8125,29.625)"/>
<path d="M0 0 C3.12001504 1.68818449 5.39047471 3.78094941 7 7 C8.11198045 15.30563856 5.15577965 20.52440316 0.92089844 27.56762695 C-0.12542946 29.31321647 -1.13441632 31.07674707 -2.140625 32.84570312 C-5.5534356 38.65751883 -8.05047619 42.56412616 -14 46 C-17.83541887 46.88082856 -21.20712377 46.35238943 -24.8125 44.75 C-28.64877523 41.68097982 -29.81821369 40.23055346 -30.55859375 35.21875 C-30.46490785 28.61023947 -26.76901297 23.39420005 -23.38378906 17.95019531 C-22.24682651 16.11989125 -21.14113398 14.27335509 -20.0390625 12.421875 C-14.63334229 3.48739973 -11.18778558 -1.9380416 0 0 Z " fill="#000000" transform="translate(375,30)"/>
<path d="M0 0 C3.02391552 1.73907588 5.41748661 3.83497322 7 7 C7.23828125 9.20703125 7.23828125 9.20703125 7.3125 11.8125 C7.36857422 13.09060547 7.36857422 13.09060547 7.42578125 14.39453125 C6.85211453 17.90495052 5.38158617 19.37697424 3 22 C0.37451172 23.83691406 0.37451172 23.83691406 -2.5703125 25.515625 C-4.16166016 26.43214844 -4.16166016 26.43214844 -5.78515625 27.3671875 C-6.88730469 27.98851562 -7.98945313 28.60984375 -9.125 29.25 C-10.23488281 29.88679688 -11.34476562 30.52359375 -12.48828125 31.1796875 C-24.00785156 37.7743258 -24.00785156 37.7743258 -32 37 C-35.90371556 35.33884444 -37.39930166 33.85559512 -39 30 C-39.37109375 27.8515625 -39.37109375 27.8515625 -39.4375 25.625 C-39.47746094 24.89539063 -39.51742188 24.16578125 -39.55859375 23.4140625 C-38.17218994 17.42247123 -33.49525172 14.50642462 -28.5859375 11.38671875 C-26.5223178 10.14247746 -24.45177312 8.90966042 -22.375 7.6875 C-21.32570313 7.05521484 -20.27640625 6.42292969 -19.1953125 5.77148438 C-7.39804517 -1.28418897 -7.39804517 -1.28418897 0 0 Z " fill="#000000" transform="translate(458,113)"/>
<path d="M0 0 C4.15451196 2.33691298 5.57601009 4.54444022 7 9 C7.36638052 13.42620241 7.32943638 17.85304839 7.31567383 22.29223633 C7.3125144 24.42776575 7.33599795 26.56190719 7.36132812 28.69726562 C7.36360163 30.0677066 7.36430438 31.43815127 7.36328125 32.80859375 C7.36626221 34.04407959 7.36924316 35.27956543 7.37231445 36.55249023 C6.87286882 41.17719308 5.44429074 44.57075395 2.125 47.85546875 C-0.43263127 49.23301648 -2.10738213 49.36982322 -5 49.3125 C-5.845625 49.30863281 -6.69125 49.30476563 -7.5625 49.30078125 C-10.28825864 48.96442962 -11.76850584 48.61318432 -14 47 C-16.78172372 42.41625502 -17.38426052 38.95014198 -17.3984375 33.625 C-17.40130768 32.93744629 -17.40417786 32.24989258 -17.40713501 31.54150391 C-17.40916541 30.09602021 -17.40370751 28.65050838 -17.39111328 27.20507812 C-17.37504296 25.00587917 -17.39099482 22.80851752 -17.41015625 20.609375 C-17.40817363 19.19791265 -17.40432957 17.78645144 -17.3984375 16.375 C-17.39505371 15.10398437 -17.39166992 13.83296875 -17.38818359 12.5234375 C-16.87494618 7.86492031 -15.4788962 4.45429917 -12.12109375 1.15234375 C-8.25243987 -0.94941112 -4.26841344 -0.62262109 0 0 Z " fill="#000000" transform="translate(261,0)"/>
<path d="M0 0 C0.75980164 -0.00807175 1.51960327 -0.01614349 2.3024292 -0.02445984 C3.91302205 -0.03830013 5.52364422 -0.04902254 7.13427734 -0.05688477 C9.5861861 -0.07405635 12.0367316 -0.11793509 14.48828125 -0.16210938 C16.0546776 -0.17224031 17.62108541 -0.18075516 19.1875 -0.1875 C19.91584045 -0.20500809 20.64418091 -0.22251617 21.39459229 -0.24055481 C26.52754007 -0.21891111 29.41147267 1.00230186 33.359375 4.23828125 C35.6796246 7.86997628 35.61830717 11.16465178 34.9765625 15.3046875 C33.95938697 18.49140831 31.90643649 20.18820737 29.359375 22.23828125 C24.69873486 24.56860132 17.76255236 23.55020617 12.58447266 23.58837891 C10.94142464 23.60490987 9.29844769 23.63216254 7.65576172 23.67041016 C5.28054704 23.72540305 2.90701704 23.74708679 0.53125 23.76171875 C-0.56126068 23.79572281 -0.56126068 23.79572281 -1.67584229 23.83041382 C-5.60305776 23.81428176 -8.07890989 23.26719318 -11.08886719 20.83056641 C-14.80369903 17.05673513 -15.03308245 14.69418563 -15 9.56640625 C-14.39518222 5.64823889 -12.47185743 3.93469309 -9.640625 1.23828125 C-6.57895911 -0.29255169 -3.36168578 0.03371983 0 0 Z " fill="#000000" transform="translate(460.640625,226.76171875)"/>
<path d="M0 0 C1.64304802 -0.01653096 3.28602497 -0.04378364 4.92871094 -0.08203125 C7.30392562 -0.13702414 9.67745562 -0.15870788 12.05322266 -0.17333984 C12.78156311 -0.19600922 13.50990356 -0.21867859 14.26031494 -0.24203491 C18.18753041 -0.22590285 20.66338254 0.32118573 23.67333984 2.7578125 C27.38817169 6.53164378 27.6175551 8.89419328 27.58447266 14.02197266 C26.97965488 17.94014002 25.05633009 19.65368582 22.22509766 22.35009766 C19.16343177 23.8809306 15.94615844 23.55465907 12.58447266 23.58837891 C11.82467102 23.59645065 11.06486938 23.6045224 10.28204346 23.61283875 C8.67145061 23.62667904 7.06082844 23.63740145 5.45019531 23.64526367 C2.99828656 23.66243526 0.54774106 23.70631399 -1.90380859 23.75048828 C-3.47020495 23.76061921 -5.03661275 23.76913406 -6.60302734 23.77587891 C-7.69553802 23.80214104 -7.69553802 23.80214104 -8.81011963 23.82893372 C-13.94306742 23.80729001 -16.82700001 22.58607705 -20.77490234 19.35009766 C-23.09515194 15.71840263 -23.03383451 12.42372712 -22.39208984 8.28369141 C-21.37491431 5.09697059 -19.32196384 3.40017154 -16.77490234 1.35009766 C-12.11426221 -0.98022241 -5.17807971 0.03817273 0 0 Z " fill="#000000" transform="translate(38.77490234375,226.64990234375)"/>
</svg>
