<?xml version="1.0" encoding="UTF-8"?>
<svg version="1.1" xmlns="http://www.w3.org/2000/svg" width="512" height="512">
<path d="M0 0 C1.45341293 0.00323273 1.45341293 0.00323273 2.93618774 0.00653076 C58.54797449 0.20481068 112.40781768 17.95230044 156.4375 52.3125 C157.33339844 52.99699219 158.22929687 53.68148437 159.15234375 54.38671875 C174.71167637 66.50480877 189.34851276 80.73459548 201.4375 96.3125 C202.200625 97.24707031 202.96375 98.18164062 203.75 99.14453125 C227.01049892 128.18287846 243.22874735 163.69633508 251.25 199.9375 C251.43264404 200.75702148 251.61528809 201.57654297 251.8034668 202.42089844 C255.46702825 220.13459882 256.96457952 237.68819569 256.8125 255.75 C256.80601944 257.22161591 256.80601944 257.22161591 256.79940796 258.72296143 C256.72523759 273.11435419 256.21848053 287.15628729 253.4375 301.3125 C253.27652832 302.20807617 253.11555664 303.10365234 252.94970703 304.02636719 C245.06047508 347.63313051 225.37100867 388.77106217 196.4375 422.3125 C195.80328125 423.05757813 195.1690625 423.80265625 194.515625 424.5703125 C182.70448485 438.07529833 169.95389772 450.74668743 155.4375 461.3125 C154.28755169 462.16899066 153.13781411 463.02576433 151.98828125 463.8828125 C143.79660474 469.9234414 135.28104922 475.28255071 126.4375 480.3125 C125.80569824 480.67698242 125.17389648 481.04146484 124.52294922 481.41699219 C98.49416464 496.31500327 69.07611377 505.96041257 39.4375 510.3125 C38.23504639 510.48910156 37.03259277 510.66570312 35.79370117 510.84765625 C24.07743596 512.45161689 12.43834274 512.71324553 0.625 512.6875 C-0.36183777 512.68662384 -1.34867554 512.68574768 -2.36541748 512.68484497 C-67.31969852 512.49532667 -129.73321624 487.41579016 -176.5625 442.3125 C-177.22185547 441.68037598 -177.88121094 441.04825195 -178.56054688 440.39697266 C-188.04880305 431.25252521 -196.7887044 421.95515991 -204.5625 411.3125 C-205.42056152 410.16144983 -206.27863451 409.01040823 -207.13671875 407.859375 C-213.17486829 399.66819386 -218.53345521 391.15445895 -223.5625 382.3125 C-223.92698242 381.68069824 -224.29146484 381.04889648 -224.66699219 380.39794922 C-239.59723018 354.31285999 -249.07635054 324.97664886 -253.5625 295.3125 C-253.82740234 293.62882324 -253.82740234 293.62882324 -254.09765625 291.91113281 C-255.7545586 280.29802257 -255.96123513 268.78070055 -255.9375 257.0625 C-255.93695618 256.05048523 -255.93641235 255.03847046 -255.93585205 253.99578857 C-255.8951051 237.46132605 -254.97136907 221.54185136 -251.5625 205.3125 C-251.35351074 204.29720215 -251.14452148 203.2819043 -250.92919922 202.23583984 C-242.15130189 160.92383315 -223.14863066 122.2919774 -195.5625 90.3125 C-194.92828125 89.56742187 -194.2940625 88.82234375 -193.640625 88.0546875 C-181.82948485 74.54970167 -169.07889772 61.87831257 -154.5625 51.3125 C-153.41255169 50.45600934 -152.26281411 49.59923567 -151.11328125 48.7421875 C-142.92160474 42.7015586 -134.40604922 37.34244929 -125.5625 32.3125 C-124.93069824 31.94801758 -124.29889648 31.58353516 -123.64794922 31.20800781 C-97.61870909 16.30973599 -68.20132148 6.66564734 -38.5625 2.3125 C-36.75446899 2.04651001 -36.75446899 2.04651001 -34.90991211 1.77514648 C-23.27388483 0.17985199 -11.73175476 -0.04703114 0 0 Z M-133.5625 67.3125 C-134.13145996 67.72741699 -134.70041992 68.14233398 -135.28662109 68.56982422 C-141.87359275 73.41916282 -148.14805576 78.55281842 -154.1640625 84.1015625 C-155.78567923 85.59640789 -157.42708894 87.07001911 -159.0859375 88.5234375 C-178.57425943 105.61319673 -193.56106303 127.47753339 -205.5625 150.3125 C-205.9322998 151.01262207 -206.30209961 151.71274414 -206.68310547 152.43408203 C-223.31690824 184.40995191 -231.01781969 219.76023176 -230.9375 255.625 C-230.93695618 256.54325562 -230.93641235 257.46151123 -230.93585205 258.40759277 C-230.8723626 281.82554976 -227.70577147 303.95340893 -220.5625 326.3125 C-220.31161621 327.09963379 -220.06073242 327.88676758 -219.80224609 328.69775391 C-209.79011001 359.3136427 -193.53860834 387.29024921 -171.73828125 410.94921875 C-170.25691062 412.55824789 -168.79659096 414.18685634 -167.35546875 415.83203125 C-162.12135142 421.799475 -156.6148958 427.17839873 -150.5625 432.3125 C-150.03446777 432.76351074 -149.50643555 433.21452148 -148.96240234 433.67919922 C-102.35240784 473.19665939 -40.86704543 492.05278462 19.80859375 487.41552734 C59.2879686 483.8967605 99.12523621 470.6287358 131.4375 447.3125 C132.8915625 446.26835938 132.8915625 446.26835938 134.375 445.203125 C153.95475153 430.82424497 172.22339784 414.0993469 186.4375 394.3125 C187.58025391 392.75208984 187.58025391 392.75208984 188.74609375 391.16015625 C216.96417071 351.59616274 231.95328416 305.23110633 231.75 256.6875 C231.74784485 255.76052307 231.7456897 254.83354614 231.74346924 253.878479 C231.69233041 240.16706521 231.34846626 226.76209814 228.4375 213.3125 C228.23350586 212.35859375 228.02951172 211.4046875 227.81933594 210.421875 C220.12979596 175.49994672 205.8119453 142.39182195 183.4375 114.3125 C182.75558594 113.43851562 182.07367188 112.56453125 181.37109375 111.6640625 C172.71312113 100.78977645 163.25230831 90.08677844 152.4375 81.3125 C151.31292837 80.35388862 150.18933236 79.39413219 149.06640625 78.43359375 C73.0217466 14.12834659 -38.75070344 7.57930443 -133.5625 67.3125 Z " fill="#000000" transform="translate(255.5625,-0.31250000000000006)"/>
<path d="M0 0 C0.88768987 -0.00438225 1.77537974 -0.00876451 2.6899693 -0.01327956 C5.68241407 -0.0266984 8.67482938 -0.03285333 11.66729736 -0.03897095 C13.80561457 -0.04686946 15.94393043 -0.05513826 18.08224487 -0.06375122 C25.1200228 -0.08999958 32.15780677 -0.10528133 39.19561768 -0.11953735 C41.615593 -0.12489581 44.03556828 -0.13027332 46.45554352 -0.13566971 C56.51973835 -0.15730225 66.58393156 -0.1760401 76.64814377 -0.1872921 C91.08576742 -0.20353816 105.52312221 -0.23672788 119.96064448 -0.29369295 C130.10421912 -0.33235523 140.24772174 -0.35192038 150.39136815 -0.35721266 C156.45362804 -0.36087109 162.51560136 -0.37294491 168.57778168 -0.4053154 C174.2807103 -0.43533055 179.98317798 -0.44173107 185.68616867 -0.42993164 C187.77999207 -0.42971036 189.87383645 -0.4380602 191.96758652 -0.45558548 C194.82546588 -0.47820566 197.68166374 -0.4700152 200.53955078 -0.45410156 C201.36893622 -0.46798365 202.19832166 -0.48186574 203.05283999 -0.49616849 C207.18521044 -0.43943876 209.75217368 -0.07293516 213.02275467 2.56690025 C216.86647992 6.54281569 216.91420557 9.23268475 216.88311768 14.6031189 C216.30414233 18.71258519 214.52459338 20.36739592 211.52374268 23.15390015 C208.25461719 24.78846289 204.64076389 24.30566673 201.04748535 24.30780029 C199.71595055 24.31437367 199.71595055 24.31437367 198.35751605 24.32107985 C195.36507128 24.3344987 192.37265598 24.34065362 189.38018799 24.34677124 C187.24187079 24.35466976 185.10355492 24.36293855 182.96524048 24.37155151 C175.92746255 24.39779988 168.88967858 24.41308162 161.85186768 24.42733765 C159.43189235 24.43269611 157.01191707 24.43807361 154.59194183 24.44347 C144.527747 24.46510255 134.46355379 24.4838404 124.39934158 24.49509239 C109.96171794 24.51133845 95.52436314 24.54452817 81.08684087 24.60149324 C70.94326623 24.64015552 60.79976361 24.65972068 50.6561172 24.66501296 C44.59385731 24.66867139 38.53188399 24.6807452 32.46970367 24.71311569 C26.76677506 24.74313084 21.06430738 24.74953137 15.36131668 24.73773193 C13.26749328 24.73751065 11.1736489 24.74586049 9.07989883 24.76338577 C6.22201947 24.78600595 3.36582161 24.77781549 0.50793457 24.76190186 C-0.73614359 24.78272499 -0.73614359 24.78272499 -2.00535464 24.80396879 C-6.13772508 24.74723905 -8.70468832 24.38073545 -11.97526932 21.74090004 C-15.81899457 17.76498461 -15.86672022 15.07511554 -15.83563232 9.7046814 C-15.25665698 5.5952151 -13.47710803 3.94040437 -10.47625732 1.15390015 C-7.20713184 -0.48066259 -3.59327854 0.00213356 0 0 Z " fill="#000000" transform="translate(155.47625732421875,243.84609985351563)"/>
</svg>
