<?xml version="1.0" encoding="UTF-8"?>
<svg version="1.1" xmlns="http://www.w3.org/2000/svg" width="512" height="512">
<path d="M0 0 C1.22396484 -0.01095703 2.44792969 -0.02191406 3.70898438 -0.03320312 C20.39708628 0.10001749 34.76953377 7.0261627 47.4375 17.5625 C55.81929366 24.36179356 64.3946521 30.68513573 73.33959961 36.72729492 C78.26074247 40.05611519 83.10530315 43.45782267 87.875 47 C96.12755812 53.1222858 104.56119853 58.97882478 112.99023438 64.85449219 C122.49202782 71.48603118 131.93830831 78.18934201 141.3125 85 C147.51293421 89.50334567 153.78463359 93.88358142 160.125 98.1875 C166.40194834 102.44855423 172.57616566 106.81141026 178.66918945 111.33081055 C186.33113844 116.99647262 194.17352425 122.40566153 201.99023438 127.85449219 C211.49202782 134.48603118 220.93830831 141.18934201 230.3125 148 C236.51293421 152.50334567 242.78463359 156.88358142 249.125 161.1875 C255.40194834 165.44855423 261.57616566 169.81141026 267.66918945 174.33081055 C272.82302131 178.14183432 278.05648594 181.83148002 283.3125 185.5 C284.15506348 186.08910156 284.99762695 186.67820313 285.86572266 187.28515625 C289.98358704 190.16157658 294.10884038 193.02653896 298.24609375 195.875 C299.74744852 196.91659073 301.24875306 197.95825387 302.75 199 C303.42466309 199.45947021 304.09932617 199.91894043 304.79443359 200.39233398 C318.94177214 210.24500822 325.78149929 223.50382982 329.1875 240.25 C330.5021753 257.66944766 326.91230451 274.0058271 315.5 287.6875 C305.93538482 297.59255064 293.83390288 305.07666867 282.5 312.78515625 C278.30115776 315.64495765 274.14677856 318.56537133 270 321.5 C269.29496338 321.99886719 268.58992676 322.49773437 267.86352539 323.01171875 C266.43503724 324.02301473 265.00673348 325.0345712 263.57861328 326.04638672 C260.03452704 328.55593923 256.4857939 331.05890218 252.9375 333.5625 C251.52081078 334.56246804 250.10414412 335.56246805 248.6875 336.5625 C87.1875 450.5625 87.1875 450.5625 85.06103516 452.06323242 C83.64887202 453.06025402 82.23708606 454.05781007 80.82568359 455.0559082 C77.21806832 457.60606155 73.60374501 460.1457086 69.9765625 462.66796875 C62.72107113 467.72647021 55.69957766 472.8711355 48.90625 478.5390625 C34.04384059 490.72059426 19.36663596 497.10248262 0.125 497.0625 C-1.10412109 497.09085938 -2.33324219 497.11921875 -3.59960938 497.1484375 C-15.73578485 497.17405476 -26.03323752 493.86702749 -35.27734375 485.85546875 C-45.99861095 475.09754764 -50.05795651 464.02775872 -50.10213572 449.05346596 C-50.0941808 447.42049931 -50.08584323 445.78753449 -50.0771637 444.15457153 C-50.08249516 442.39717206 -50.08956428 440.63977715 -50.09821075 438.88239086 C-50.11678559 434.07517242 -50.11055089 429.26826315 -50.10005772 424.46103215 C-50.09305103 419.26799057 -50.10907484 414.07501156 -50.12205505 408.88198853 C-50.14367598 398.71696547 -50.14357298 388.55205444 -50.13542951 378.38701595 C-50.12912457 370.12317172 -50.13027109 361.8593601 -50.13670158 353.5955162 C-50.13760324 352.4184561 -50.13850489 351.241396 -50.13943387 350.02866741 C-50.14128511 347.63731678 -50.14314767 345.24596616 -50.14502143 342.85461555 C-50.1615934 320.43922582 -50.15288596 298.02389905 -50.13603585 275.6085131 C-50.12134102 255.11258421 -50.13596537 234.61680195 -50.16480602 214.12089194 C-50.19421664 193.06268385 -50.20516732 172.00454338 -50.19562382 150.94631565 C-50.19460129 148.56324888 -50.19360668 146.18018211 -50.1926403 143.79711533 C-50.19216391 142.62467847 -50.19168752 141.45224162 -50.1911967 140.24427638 C-50.18903469 131.99423678 -50.19882538 123.74426136 -50.21341133 115.49423599 C-50.23094919 105.43443983 -50.23079638 95.37483054 -50.20805968 85.31504168 C-50.19693057 80.18526528 -50.19372497 75.05581795 -50.21236038 69.92605591 C-50.22922078 65.22428871 -50.22273899 60.52313616 -50.19814359 55.82140838 C-50.19327811 54.12636498 -50.19672709 52.43127147 -50.20963103 50.7362702 C-50.31013725 36.49968717 -47.86467174 24.18724463 -37.5625 13.5625 C-26.71583613 3.02191483 -14.87842301 -0.29080911 0 0 Z M-15 38.4375 C-17.51385293 43.46520587 -17.68824825 47.90314928 -17.69392776 53.48042774 C-17.6959804 54.16759153 -17.69803303 54.85475533 -17.70014787 55.56274226 C-17.70581198 57.87028146 -17.70436135 60.17776086 -17.70294189 62.48530579 C-17.70552586 64.15446437 -17.70853911 65.82362233 -17.7119453 67.49277943 C-17.7200147 72.08367827 -17.72180483 76.67456148 -17.72254276 81.26546657 C-17.72439339 86.21513913 -17.73194071 91.16480357 -17.73867798 96.11447144 C-17.75226077 106.93874635 -17.75828576 117.76301756 -17.76268864 128.58729959 C-17.7654508 135.34456412 -17.76968807 142.10182723 -17.77419281 148.85909081 C-17.78638474 167.56438895 -17.79668464 186.26968595 -17.8000679 204.97498798 C-17.80028747 206.17218244 -17.80050703 207.3693769 -17.80073325 208.60284997 C-17.80095153 209.80291973 -17.80116981 211.00298949 -17.8013947 212.239425 C-17.80183817 214.67125404 -17.80228473 217.10308307 -17.80273438 219.53491211 C-17.8029558 220.7411851 -17.80317723 221.94745809 -17.80340537 223.19028481 C-17.80735463 242.74258889 -17.82481288 262.29485573 -17.8480939 281.84714542 C-17.87179779 301.91636406 -17.88426929 321.985564 -17.88543582 342.05479687 C-17.88635305 353.32493092 -17.89211757 364.59501642 -17.91025543 375.8651371 C-17.92564333 385.46038272 -17.93078457 395.0555648 -17.92251733 404.65082041 C-17.91860637 409.54696338 -17.91956225 414.44297833 -17.93357468 419.33910561 C-17.94628651 423.82174081 -17.94514 428.30415144 -17.93298396 432.78678622 C-17.93102227 434.40790106 -17.93412717 436.02903167 -17.94282833 437.65012435 C-18.12705434 448.97872817 -18.12705434 448.97872817 -14.5625 459.5625 C-8.2863632 464.7703582 -2.2480907 465.1015366 5.70703125 465.02734375 C15.15980835 463.84945844 22.19626271 457.08578305 29.21875 451.1328125 C33.12485141 447.92567109 37.31440369 445.13831294 41.5 442.3125 C47.92845871 437.97159098 54.28886279 433.56220978 60.5625 429 C68.43557371 423.27779105 76.36727769 417.64497954 84.32861328 412.04638672 C87.86791149 409.55601226 91.40250813 407.05898152 94.9375 404.5625 C99.17349447 401.57095651 103.41036609 398.58071172 107.65234375 395.59765625 C114.90985112 390.49017914 122.13329586 385.34204977 129.3125 380.125 C136.23228501 375.10026607 143.25258137 370.24353486 150.32714844 365.43994141 C156.5668488 361.1902479 162.69952082 356.80718507 168.80639648 352.36938477 C175.9319062 347.19209197 183.12403082 342.11281348 190.32861328 337.04638672 C193.86791149 334.55601226 197.40250813 332.05898152 200.9375 329.5625 C205.17349447 326.57095651 209.41036609 323.58071172 213.65234375 320.59765625 C220.90985112 315.49017914 228.13329586 310.34204977 235.3125 305.125 C241.45252323 300.66648242 247.6600293 296.32514652 253.9375 292.0625 C262.60272767 286.17538927 271.13204864 280.12107465 279.57275391 273.91650391 C281.15831105 272.76522086 282.76999079 271.65005267 284.38671875 270.54296875 C290.05461007 266.54265537 293.47578604 262.30178528 295.4375 255.5625 C296.57287275 247.92453789 295.75366289 241.73015543 292.21484375 234.87890625 C287.43245869 228.64603957 280.53147786 224.40101523 274.125 220 C267.51444301 215.41784791 260.94288806 210.79283298 254.4375 206.0625 C248.14956008 201.49583584 241.81315997 197.00584456 235.4375 192.5625 C228.31420328 187.59811013 221.25209638 182.5586115 214.2265625 177.45703125 C207.8368587 172.8272985 201.37492096 168.30554594 194.90063477 163.79516602 C189.34929559 159.92067632 183.84894576 155.98291054 178.375 152 C172.23801443 147.53661462 166.02857022 143.1992868 159.75 138.9375 C153.40294901 134.62866959 147.15588942 130.21879302 140.99267578 125.65136719 C135.71314253 121.74363666 130.35504911 117.95529734 124.97949219 114.18115234 C119.80544908 110.54297079 114.67807068 106.84480647 109.5625 103.125 C103.36227201 98.62137862 97.09034603 94.24142801 90.75 89.9375 C84.4037878 85.62921551 78.15818317 81.21913267 71.99487305 76.65356445 C67.39337654 73.24881446 62.74293065 69.92033453 58.0625 66.625 C57.00639526 65.88092896 57.00639526 65.88092896 55.92895508 65.12182617 C52.26901942 62.54640851 48.60325397 59.97950748 44.93359375 57.41796875 C43.45529409 56.38343392 41.97742362 55.34828551 40.5 54.3125 C39.78303955 53.81016846 39.0660791 53.30783691 38.32739258 52.7902832 C34.5098755 50.09491042 30.83679208 47.31321495 27.25 44.3125 C18.45460446 37.21655377 10.09196748 31.26204192 -1.64453125 32.10546875 C-7.29380019 32.99029401 -11.13817501 33.88252694 -15 38.4375 Z " fill="#000000" transform="translate(81.5625,15.4375)"/>
</svg>
