<?xml version="1.0" encoding="UTF-8"?>
<svg version="1.1" xmlns="http://www.w3.org/2000/svg" width="512" height="512">
<path d="M0 0 C1.81971565 -0.0099852 1.81971565 -0.0099852 3.67619324 -0.02017212 C6.23894742 -0.03028177 8.80172785 -0.03498966 11.36450195 -0.03466797 C15.26883729 -0.03903551 19.17203676 -0.07536029 23.07617188 -0.11328125 C25.57161074 -0.11915096 28.06705494 -0.12311932 30.5625 -0.125 C31.72215775 -0.13937103 32.88181549 -0.15374207 34.07661438 -0.16854858 C41.71342767 -0.12587253 48.49884225 0.69132686 54.32844543 6.02749634 C60.14423377 12.20097818 61.93318941 18.56369289 61.8681488 26.8170929 C61.87353434 27.64497934 61.87891988 28.47286579 61.88446862 29.3258397 C61.89871956 32.08627634 61.89165155 34.84623151 61.88452148 37.60668945 C61.89022662 39.59147526 61.89719144 41.57625779 61.90531921 43.56103516 C61.92325182 48.9433992 61.92208176 54.32560022 61.91637683 59.70798516 C61.91328449 64.20584986 61.9193781 68.70368327 61.92541558 73.20154351 C61.93946015 83.81627362 61.93790064 94.43092325 61.92651367 105.0456543 C61.91503818 115.98438691 61.92909882 126.92287419 61.95591015 137.86157447 C61.97808823 147.26308551 61.98469959 156.66451966 61.97883373 166.066055 C61.97546734 171.67670356 61.97785803 177.28719494 61.99508476 182.89782143 C62.01058483 188.17648024 62.0065642 193.45477667 61.98777962 198.73342133 C61.98410193 200.66590749 61.98717817 202.59842068 61.99766541 204.53088188 C62.10567771 226.08740687 62.10567771 226.08740687 55.81836605 233.22203541 C48.53714196 240.33591254 39.89433453 240.79510282 30.23828125 240.76953125 C29.07473114 240.7747731 27.91118103 240.78001495 26.71237183 240.78541565 C24.25991613 240.79181686 21.80742965 240.79052361 19.35498047 240.78198242 C15.62411202 240.77347999 11.89477974 240.80225139 8.1640625 240.83398438 C5.77213587 240.8355969 3.38020656 240.83501788 0.98828125 240.83203125 C-0.11619354 240.84326523 -1.22066833 240.85449921 -2.35861206 240.86607361 C-10.38436033 240.79467861 -17.53150988 239.49312108 -23.95703125 234.40625 C-24.47265625 233.76429688 -24.98828125 233.12234375 -25.51953125 232.4609375 C-26.05578125 231.82414063 -26.59203125 231.18734375 -27.14453125 230.53125 C-30.45841453 225.24033409 -30.81133441 219.98327974 -30.78695679 213.88565063 C-30.7914879 213.04904038 -30.79601901 212.21243012 -30.80068743 211.35046804 C-30.8133203 208.55471508 -30.81171179 205.7591572 -30.81005859 202.96337891 C-30.81604449 200.95579275 -30.82285018 198.94820889 -30.83041382 196.94062805 C-30.84807367 191.49226053 -30.85276917 186.04395584 -30.85404539 180.59556246 C-30.85546743 177.19065861 -30.85973801 173.78577071 -30.86503983 170.38087082 C-30.88353929 158.4996718 -30.89171044 146.61851764 -30.89013672 134.73730469 C-30.88893499 123.66621164 -30.91004374 112.59531344 -30.94162405 101.5242697 C-30.96778188 92.01496356 -30.97850423 82.50572109 -30.9772259 72.99637926 C-30.97671617 67.3187 -30.98240574 61.64119396 -31.003582 55.96355057 C-31.02295622 50.62336969 -31.02309427 45.28352745 -31.00854874 39.94333458 C-31.00645862 37.9858151 -31.01117361 36.02827447 -31.02326965 34.07079124 C-31.0387393 31.39352813 -31.02940291 28.71743023 -31.01400757 26.04019165 C-31.02429469 25.2699427 -31.03458182 24.49969375 -31.04518068 23.70610392 C-30.96243888 17.17206936 -28.85739349 12.05240091 -24.58984375 7.09375 C-23.94789063 6.55492187 -23.3059375 6.01609375 -22.64453125 5.4609375 C-22.00773437 4.90664062 -21.3709375 4.35234375 -20.71484375 3.78125 C-14.2948761 -0.44541909 -7.40957007 0.01414657 0 0 Z " fill="#000000" transform="translate(310.51953125,135.6640625)"/>
<path d="M0 0 C1.16355011 -0.00524185 2.32710022 -0.0104837 3.52590942 -0.0158844 C5.97836512 -0.02228561 8.4308516 -0.02099236 10.88330078 -0.01245117 C14.61416923 -0.00394874 18.34350151 -0.03272014 22.07421875 -0.06445312 C24.46614538 -0.06606565 26.85807469 -0.06548663 29.25 -0.0625 C30.35447479 -0.07373398 31.45894958 -0.08496796 32.59689331 -0.09654236 C40.22309614 -0.02870161 47.74494107 0.8874372 53.67184448 6.12501526 C59.46225186 12.28642118 61.20985661 18.74291809 61.14549255 26.95944214 C61.15087809 27.7921177 61.15626363 28.62479326 61.16181237 29.48270142 C61.17606415 32.25929067 61.16899511 35.03540129 61.16186523 37.81201172 C61.16757029 39.80827211 61.17453507 41.80452925 61.18266296 43.80078125 C61.20059538 49.21406863 61.19942569 54.62719392 61.19372058 60.04050207 C61.19062858 64.56331425 61.19672138 69.0860953 61.20275933 73.60890305 C61.21680349 84.2811245 61.2152444 94.9532659 61.20385742 105.62548828 C61.1923786 116.62672433 61.20644826 127.62771652 61.2332539 138.62892044 C61.25542347 148.08222 61.26204536 157.53544308 61.25617748 166.98876679 C61.25280946 172.63124119 61.25521276 178.27355932 61.27242851 183.91601181 C61.28791529 189.22339408 61.28392264 194.5304157 61.26512337 199.83778381 C61.26144219 201.78197791 61.26453217 203.72619884 61.27500916 205.67036819 C61.3753487 225.83459743 61.3753487 225.83459743 54.828125 233.7734375 C54.18617188 234.30066406 53.54421875 234.82789063 52.8828125 235.37109375 C52.24601562 235.91636719 51.60921875 236.46164062 50.953125 237.0234375 C44.45989115 241.19435818 37.61873635 240.74016908 30.16796875 240.734375 C28.95008163 240.73866013 27.73219452 240.74294525 26.47740173 240.74736023 C23.90624614 240.75309374 21.33507433 240.75361102 18.76391602 240.74926758 C14.83777107 240.7461078 10.91237998 240.76957981 6.98632812 240.79492188 C4.48437595 240.79719502 1.98242175 240.79789829 -0.51953125 240.796875 C-2.27450172 240.81068962 -2.27450172 240.81068962 -4.06492615 240.82478333 C-13.17105573 240.77327887 -18.90638 239.16546871 -25.734375 232.98046875 C-31.18974206 227.38377093 -31.39112834 221.7175081 -31.38935852 214.26850891 C-31.39303521 213.43839662 -31.3967119 212.60828433 -31.4005 211.75301713 C-31.41152623 208.96725581 -31.41537888 206.18153181 -31.41918945 203.39575195 C-31.4254549 201.39993674 -31.43210177 199.4041227 -31.43910217 197.40830994 C-31.46013505 190.85033988 -31.47050373 184.2923696 -31.48046875 177.734375 C-31.48451657 175.47605057 -31.4886335 173.21772626 -31.49281883 170.95940208 C-31.51186867 160.34955772 -31.52610024 149.73972031 -31.5344308 139.12986213 C-31.54420334 126.88593088 -31.57052428 114.64218041 -31.61093169 102.39831287 C-31.64109855 92.93235093 -31.65590022 83.46644079 -31.65921181 74.00043172 C-31.66156161 68.34783004 -31.67051313 62.69542155 -31.69567299 57.04287148 C-31.71896857 51.72324814 -31.72318083 46.40394497 -31.71291161 41.08428383 C-31.7124165 39.13524307 -31.71872936 37.18618647 -31.73246765 35.23719406 C-31.87039106 14.50538999 -31.87039106 14.50538999 -25.57996082 7.61205006 C-18.26313012 0.45336019 -9.72370728 -0.02575074 0 0 Z " fill="#000000" transform="translate(166.2421875,135.56640625)"/>
</svg>
