<?xml version="1.0" encoding="UTF-8"?>
<svg id="Hopper-1" xmlns="http://www.w3.org/2000/svg" xmlns:xlink="http://www.w3.org/1999/xlink" viewBox="0 0 398.97 496">
  <defs>
    <style>
      .cls-1 {
        fill: url(#linear-gradient);
      }

      .cls-1, .cls-2, .cls-3, .cls-4, .cls-5 {
        stroke-width: 0px;
      }

      .cls-2 {
        filter: url(#drop-shadow-1);
      }

      .cls-2, .cls-3, .cls-4 {
        fill: #000;
      }

      .cls-3 {
        filter: url(#drop-shadow-2);
      }

      .cls-3, .cls-4 {
        fill-rule: evenodd;
      }

      .cls-5 {
        fill: #da00f9;
      }
    </style>
    <linearGradient id="linear-gradient" x1="170.93" y1="281.1" x2="69.25" y2="109.59" gradientUnits="userSpaceOnUse">
      <stop offset=".18" stop-color="#fff"/>
      <stop offset=".67" stop-color="#dffffc"/>
      <stop offset=".99" stop-color="#c9fffa"/>
    </linearGradient>
    <filter id="drop-shadow-1" filterUnits="userSpaceOnUse">
      <feOffset dx="3" dy="3"/>
      <feGaussianBlur result="blur" stdDeviation="5"/>
      <feFlood flood-color="#494949" flood-opacity=".75"/>
      <feComposite in2="blur" operator="in"/>
      <feComposite in="SourceGraphic"/>
    </filter>
    <filter id="drop-shadow-2" filterUnits="userSpaceOnUse">
      <feOffset dx="5" dy="5"/>
      <feGaussianBlur result="blur-2" stdDeviation="3"/>
      <feFlood flood-color="#494949" flood-opacity=".38"/>
      <feComposite in2="blur-2" operator="in"/>
      <feComposite in="SourceGraphic"/>
    </filter>
  </defs>
  <path id="Lights_On" data-name="Lights On" class="cls-1" d="M150,396h-12.87c2.99-26-20.84-25.89-32.71-37.16,7.82.08,12.42.16,14.14.12l-.13-12.96h-53.43v-70h36v-12.21l-36-30.65v-36.72c0-1.05.02-1.45,0-3.42h36v-11.74l-36-30.65v-35.98c0-1.05-1.95-1.63-1.11-1.63h23.11v-13.19c-6,.01-12.11.03-18.23.09,27.56-15.72,57.31-29.31,85.67-44.21,31.41,12.53,59.39,29.31,89.2,43.47-5.42.16-10.63.28-15.63.39v13.45h21v37.61l-36,30.65v11.74h36v40.14l-36,30.65v12.21h15.64c3.76,0,4.98,0,4.93,0h15.42v70h-54v12.23c4,0,8.48.05,12.9-.01-10.76,12.65-36.31,8.78-33.06,37.78h-24.84ZM65,359h12v48h-12v-48ZM249,407h-14v-48h14v48Z"/>
  <path id="HopperBody" class="cls-2" d="M260.05,137.47c0-14.72.12-31.76-.89-39.79-.96-7.65-8.45-9.18-22.92-16.05-27.45-13.04-49.58-25.63-76.58-39.63h-7.25c-23.66,12-51.52,26.53-77.59,39.63-9,4.53-19.85,9.62-22.43,15.76-3.02,7.19-.12,300.05-.12,322.07,6.04,0,35.09-.06,35.09-.06,0,0,.81-39.3.52-56.97,12.77,7.41,25.19,15.38,36.93,23.83-2.06,17.29,4.25,20.78,18.25,21.45v70.28h7v-82h-12.87c2.99-26-20.84-25.89-32.71-37.16,7.82.08,12.42.16,14.14.12l-.13-12.96h-53.43v-70h36v-12.21l-36-30.65v-36.72c0-1.05.02-1.45,0-3.42h36v-11.74l-36-30.65v-35.98c0-1.05-1.95-1.63-1.11-1.63h23.11v-13.19c-6,.01-12.11.03-18.23.09,27.56-15.72,57.31-29.31,85.67-44.21,31.41,12.53,59.39,29.31,89.2,43.47-5.42.16-10.63.28-15.63.39v13.45h21v37.61l-36,30.65v11.74h36v40.14l-36,30.65v12.21h15.64c3.76,0,4.98,0,4.93,0h15.42v70h-54v12.23c4,0,8.48.05,12.9-.01-10.76,12.65-36.31,8.78-33.06,37.78h-10.84v82h7v-70.54c12-1.17,19.45-5.5,16.19-21.67,12.59-6.61,25.03-18.01,36.96-22.83.33,14.29.38,57.05.38,57.05h35.68s-.22-200.37-.22-282.53ZM65.05,359h12v48h-12v-48ZM249.05,407h-14v-48h14v48Z"/>
  <g id="Stirrer">
    <path class="cls-4" d="M152,80v222.3c2.33.24,4.68.23,7-.02V80h-7Z"/>
    <path id="_90_degrees" data-name="90 degrees" class="cls-3" d="M183.23,255.37c-4.87-8.93-8.85-14.68-15.53-21.91-2.39-2.59-6.94-6.77-8.34-10.22l-.36-1.55V80h-7v144h.51c-.98,2-2.98,3.11-4.24,4.48-4.6,5-10.26,10.85-13.57,15.27-4.64,6.2-11.6,15.98-12.04,25.67-.44,9.59,3.85,17.59,9.51,23.33,13.09,13.29,34.08,12.65,46.52.03,5.55-5.62,10.18-13.69,9.57-23.73-.33-5.49-2.83-9.65-5.03-13.68ZM151.72,295.09c-14.07-.88-26.81-17.79-20.09-33.33,4.26-9.86,14.38-19.77,19.63-26.48,1.06,19.02.15,40.02.46,59.81ZM159,295.09v-58.89c0-.81.45-.94.47-.46,5.74,6.4,15.34,16.11,19.63,26.02,6.45,14.93-3.1,32.3-20.1,33.33Z"/>
    <g id="Rotation_Direction" data-name="Rotation Direction">
      <path class="cls-5" d="M164.5,101.99c-.21-1.04,2.92-1.8,3.66-2.2,1.48-.79,3.77-2.33,2.83-4.47-.72-1.64-3.36-2.96-5.93-3.81v-1.77c3.66,1.07,9.74,3.5,8.13,7.85-.59,1.59-2.37,2.95-4.19,3.85-.84.41-4.21,2.02-4.5.55Z"/>
      <path class="cls-5" d="M151.42,107.49c-.55-1.23,2.43-1.94,2.83-2.83-4.71-.16-8.38-.63-12.04-1.65-3.87-1.07-9.3-3.22-8.7-7.3.41-2.79,4.5-4.84,8.27-5.96.07-.02.14-.04.21-.06v1.78c-2.65.86-5.33,2.19-6.08,3.78-.41.88-.11,1.97.42,2.67,1.49,1.96,4.33,2.91,7.33,3.69,3.11.8,6.65,1.25,10.37,1.41-.54-1.21-2.98-1.32-2.72-2.67.07-.35.65-.67.94-.71,1.17-.13,2.32,1.26,3.14,1.88.98.73,2.58,1.48,2.62,2.28.05.96-3.13,2.74-4.08,3.45-.64.48-2.03,1.33-2.51.24Z"/>
      <path class="cls-5" d="M164.54,91.27c.85.25,1.25.41,2.48.79l.37-1.5c-1.24-.37-1.73-.54-2.68-.81.55-.71,3.39-.69,3.17-1.91-.19-1.08-1.63-.63-2.31-.34-1.01.43-4.26,1.33-4.43,2.2-.14.72,1.13,1.75,1.85,2.62.61.74,1.33,2.24,2.41,2.39.27.04.86-.13,1-.43.53-1.15-1.65-1.79-1.87-3Z"/>
    </g>
  </g>
</svg>