<?xml version="1.0" encoding="UTF-8"?>
<svg id="a" data-name="Slicer" xmlns="http://www.w3.org/2000/svg" width="267.25" height="355.36" xmlns:xlink="http://www.w3.org/1999/xlink" viewBox="0 0 267.25 355.36">
  <defs>
    <style>
      .m {
        fill: url(#j);
        filter: url(#k);
      }

      .m, .n, .o, .p, .q, .r {
        stroke-width: 0px;
      }

      .n {
        fill: url(#i);
      }

      .n, .o, .q {
        fill-rule: evenodd;
      }

      .o {
        filter: url(#d);
      }

      .o, .q {
        fill: #000;
      }

      .s {
        filter: url(#f);
      }

      .p {
        fill: #f2f2f2;
        filter: url(#b);
      }

      .r {
        fill: #b0b0b0;
      }
    </style>
    <filter id="b" data-name="drop-shadow-1" filterUnits="userSpaceOnUse">
      <feOffset dx="5" dy="5"/>
      <feGaussianBlur result="c" stdDeviation="3"/>
      <feFlood flood-color="#494949" flood-opacity="1"/>
      <feComposite in2="c" operator="in"/>
      <feComposite in="SourceGraphic"/>
    </filter>
    <filter id="d" data-name="drop-shadow-2" filterUnits="userSpaceOnUse">
      <feOffset dx="5" dy="5"/>
      <feGaussianBlur result="e" stdDeviation="3"/>
      <feFlood flood-color="#494949" flood-opacity="1"/>
      <feComposite in2="e" operator="in"/>
      <feComposite in="SourceGraphic"/>
    </filter>
    <filter id="f" data-name="drop-shadow-3" filterUnits="userSpaceOnUse">
      <feOffset dx="2" dy="2"/>
      <feGaussianBlur result="g" stdDeviation="3"/>
      <feFlood flood-color="#494949" flood-opacity=".82"/>
      <feComposite in2="g" operator="in"/>
      <feComposite in="SourceGraphic"/>
    </filter>
    <radialGradient id="i" cx="139.6" cy="335.23" fx="139.6" fy="335.23" r="10.52" gradientTransform="translate(330.14 301.11) rotate(126) scale(1 .4)" gradientUnits="userSpaceOnUse">
      <stop offset="0" stop-color="#fff"/>
      <stop offset=".09" stop-color="rgba(254, 247, 245, .99)" stop-opacity=".99"/>
      <stop offset=".26" stop-color="rgba(252, 227, 218, .97)" stop-opacity=".97"/>
      <stop offset=".46" stop-color="rgba(249, 194, 174, .93)" stop-opacity=".93"/>
      <stop offset=".71" stop-color="rgba(245, 148, 113, .88)" stop-opacity=".88"/>
      <stop offset=".99" stop-color="rgba(241, 91, 37, .82)" stop-opacity=".82"/>
      <stop offset="1" stop-color="#f15a24" stop-opacity=".82"/>
    </radialGradient>
    <radialGradient id="j" cx="148.47" cy="316" fx="148.47" fy="316" r="56.22" gradientTransform="translate(-24.11 280.71) rotate(-21) scale(1 .3)" gradientUnits="userSpaceOnUse">
      <stop offset="0" stop-color="#f2f2f2"/>
      <stop offset=".42" stop-color="#f6f6f6"/>
      <stop offset=".75" stop-color="#fff"/>
      <stop offset=".81" stop-color="#ececec" stop-opacity=".98"/>
      <stop offset="1" stop-color="#666" stop-opacity=".87"/>
      <stop offset="1" stop-color="#000" stop-opacity=".82"/>
    </radialGradient>
    <filter id="k" data-name="drop-shadow-4" filterUnits="userSpaceOnUse">
      <feOffset dx="3" dy="0"/>
      <feGaussianBlur result="l" stdDeviation="3"/>
      <feFlood flood-color="#494949" flood-opacity=".79"/>
      <feComposite in2="l" operator="in"/>
      <feComposite in="SourceGraphic"/>
    </filter>
  </defs>
  <g>
    <rect class="p" x="63.25" y="21" width="164" height="236"/>
    <g>
      <path class="q" d="M61.85,16.56c-5.39.17-4.3,7.33-4.3,13.86,0,74.45-.4,147.06,0,220.73.03,5.98.24,10.03,5.73,10.03,4.66,0,5.67-3.16,5.73-9.55.85-81.35-.23-151.1-.47-230.76-.14-2.34-1.69-4.46-6.69-4.3Z"/>
      <path class="o" d="M231.37,18.47c-2.28-3.03-6.47-1.44-6.49-1.43-5.35,1.49-3.63,8.65-3.63,12.9v217.38c0,8.61-1.3,15.21,6.93,13.85,4.31-.71,4.07-4.83,4.07-10.99V33.28c0-2.26.57-12.88-.88-14.81Z"/>
    </g>
  </g>
  <path class="q" d="M81.43,17.86h127.56v9.08H80.96v-7.64c-.04-.68-.08-1.35.48-1.43Z"/>
  <g>
    <path class="q" d="M81.25,57.88v55.05c3,1.5,7,2.94,11,4.3v-59.24c-4-.05-7.73-.11-11-.11Z"/>
    <path class="q" d="M197.25,57.99v98.9c4,2.14,8,3.12,12,4.78V58c-2,.02-8.05-.01-12-.01Z"/>
    <path class="q" d="M104.58,122.01c4.08,1.01,6.67,3.08,11.67,3.82V58h-11.41c-1.12,20,.05,42.83-.27,64.01Z"/>
    <path class="q" d="M127.3,130.61c4.07,1.34,7.95,3.19,11.95,4.29V58h-11.47c-1.11,23-.16,48.57-.47,72.61Z"/>
    <path class="q" d="M150.51,139.69c4.27,1.14,7.74,2.95,11.74,4.29V58h-11.06c-1.12,26-.36,54.62-.68,81.69Z"/>
    <path class="q" d="M173.95,148.29c3.73,1.52,7.3,3.13,11.3,4.29V58h-10.65c-1.11,29-.33,60.35-.65,90.29Z"/>
  </g>
  <g>
    <path class="q" d="M81.25,246h11v-74.87c-4-1.24-7-2.66-11-3.74v78.6Z"/>
    <path class="q" d="M104.25,246h12v-66.98c-4-1.43-8-2.85-12-3.74v70.71Z"/>
    <path class="q" d="M127.25,246h12v-59.5c-4-1.14-8-2.67-12-3.74v63.24Z"/>
    <path class="q" d="M150.25,246h12v-51.61c-3-1.34-7-2.85-12-3.74v55.35Z"/>
    <path class="q" d="M174.25,246h11v-44.13c-4-1.21-7-2.54-11-3.74v47.87Z"/>
    <path class="q" d="M197.25,206.02v39.98h12v-36.24c-4-1.41-8-2.7-12-3.74Z"/>
  </g>
  <g id="h" data-name="Cut 2 Collect" class="s">
    <path class="n" d="M131.47,341.96c0-7.4,6-13.41,13.4-13.41s13.41,6,13.41,13.41-6,13.41-13.41,13.41-13.4-6-13.4-13.41Z"/>
    <g>
      <rect class="r" x="144.25" y="329" width="1" height="14"/>
      <rect class="r" x="148.73" y="339.81" width="2.24" height="13.36" transform="translate(-216.67 256.08) rotate(-52.76)"/>
      <rect class="r" x="133.13" y="345.37" width="12.83" height="2.23" transform="translate(-187.27 165.61) rotate(-39.1)"/>
    </g>
  </g>
  <polygon class="m" points="74.25 287.5 127.72 344.5 169.23 344.5 222.7 287.5 74.25 287.5"/>
</svg>