<?xml version="1.0" encoding="UTF-8"?>
<svg id="a" data-name="Hopper-1" xmlns="http://www.w3.org/2000/svg" width="398.97" height="490" viewBox="0 0 398.97 490">
  <defs>
    <style>
      .d {
        fill: #da00f9;
        stroke-width: 0px;
      }
    </style>
  </defs>
  <g id="b" data-name="Stirrer">
    <g id="c" data-name="Rotation Direction">
      <path class="d" d="M151.42,107.49c-.55-1.23,2.43-1.94,2.83-2.83-4.71-.16-8.38-.63-12.04-1.65-3.87-1.07-9.3-3.22-8.7-7.3.41-2.79,4.5-4.84,8.27-5.96.07-.02.14-.04.21-.06v1.78c-2.65.86-5.33,2.19-6.08,3.78-.41.88-.11,1.97.42,2.67,1.49,1.96,4.33,2.91,7.33,3.69,3.11.8,6.65,1.25,10.37,1.41-.54-1.21-2.98-1.32-2.72-2.67.07-.35.65-.67.94-.71,1.17-.13,2.32,1.26,3.14,1.88.98.73,2.58,1.48,2.62,2.28.05.96-3.13,2.74-4.08,3.45-.64.48-2.03,1.33-2.51.24Z"/>
    </g>
  </g>
</svg>