<?xml version="1.0" encoding="UTF-8"?>
<svg id="a" data-name="Hopper-1" xmlns="http://www.w3.org/2000/svg" width="398.97" height="490" xmlns:xlink="http://www.w3.org/1999/xlink" viewBox="0 0 398.97 490">
  <defs>
    <style>
      .f {
        filter: url(#c);
      }

      .f, .g {
        fill: #000;
        fill-rule: evenodd;
        stroke-width: 0px;
      }
    </style>
    <filter id="c" data-name="drop-shadow-1" filterUnits="userSpaceOnUse">
      <feOffset dx="5" dy="5"/>
      <feGaussianBlur result="d" stdDeviation="3"/>
      <feFlood flood-color="#494949" flood-opacity=".38"/>
      <feComposite in2="d" operator="in"/>
      <feComposite in="SourceGraphic"/>
    </filter>
  </defs>
  <g id="b" data-name="Stirrer">
    <path class="g" d="M152,80v222.3c2.33.24,4.68.23,7-.02V80h-7Z"/>
    <path id="e" data-name="90 degrees" class="f" d="M183.23,255.37c-4.87-8.93-8.85-14.68-15.53-21.91-2.39-2.59-6.94-6.77-8.34-10.22l-.36-1.55V80h-7v144h.51c-.98,2-2.98,3.11-4.24,4.48-4.6,5-10.26,10.85-13.57,15.27-4.64,6.2-11.6,15.98-12.04,25.67-.44,9.59,3.85,17.59,9.51,23.33,13.09,13.29,34.08,12.65,46.52.03,5.55-5.62,10.18-13.69,9.57-23.73-.33-5.49-2.83-9.65-5.03-13.68ZM151.72,295.09c-14.07-.88-26.81-17.79-20.09-33.33,4.26-9.86,14.38-19.77,19.63-26.48,1.06,19.02.15,40.02.46,59.81ZM159,295.09v-58.89c0-.81.45-.94.47-.46,5.74,6.4,15.34,16.11,19.63,26.02,6.45,14.93-3.1,32.3-20.1,33.33Z"/>
  </g>
</svg>