<?xml version="1.0" encoding="UTF-8"?>
<svg id="a" data-name="Pump" xmlns="http://www.w3.org/2000/svg" width="880.06" height="498.36" xmlns:xlink="http://www.w3.org/1999/xlink" viewBox="0 0 880.06 498.36">
  <defs>
    <style>
      .f {
        fill: #8fff3f;
      }

      .f, .g, .h, .i, .j, .k {
        stroke-width: 0px;
      }

      .g {
        fill: #f8ff3c;
      }

      .h, .j {
        fill: #000;
      }

      .i {
        fill: #b0b0b0;
      }

      .j {
        filter: url(#c);
      }

      .k {
        fill: url(#e);
      }
    </style>
    <filter id="c" data-name="drop-shadow-1" filterUnits="userSpaceOnUse">
      <feOffset dx="2" dy="2"/>
      <feGaussianBlur result="d" stdDeviation="2"/>
      <feFlood flood-color="#000" flood-opacity=".54"/>
      <feComposite in2="d" operator="in"/>
      <feComposite in="SourceGraphic"/>
    </filter>
    <radialGradient id="e" cx="745.38" cy="298.82" fx="745.38" fy="298.82" r="85.26" gradientUnits="userSpaceOnUse">
      <stop offset="0" stop-color="#fff"/>
      <stop offset=".48" stop-color="#fdfdfd"/>
      <stop offset=".65" stop-color="#f6f6f6"/>
      <stop offset=".77" stop-color="#eaeaea"/>
      <stop offset=".87" stop-color="#d9d9d9"/>
      <stop offset=".95" stop-color="#c3c3c3"/>
      <stop offset="1" stop-color="#b3b3b3"/>
    </radialGradient>
  </defs>
  <g id="b" data-name="Pump">
    <g>
      <path class="j" d="M745.38,387c48.57,0,88.08-39.56,88.08-88.18s-39.52-88.19-88.08-88.19-88.11,39.56-88.11,88.19,39.52,88.18,88.11,88.18Z"/>
      <path class="k" d="M745.38,213.51c46.99,0,85.2,38.27,85.2,85.31s-38.21,85.3-85.2,85.3-85.21-38.27-85.21-85.3,38.23-85.31,85.21-85.31Z"/>
      <path class="g" d="M745.37,219.11c-7.98,0-14.46,6.47-14.46,14.46s6.47,14.46,14.46,14.46,14.46-6.47,14.46-14.46-6.47-14.46-14.46-14.46Z"/>
      <path class="h" d="M729.85,233.57c0-8.57,6.96-15.55,15.52-15.55s15.52,6.98,15.52,15.55-6.96,15.54-15.52,15.54-15.52-6.97-15.52-15.54ZM732.01,233.57c0,7.37,6,13.37,13.37,13.37s13.37-6,13.37-13.37-6-13.38-13.37-13.38-13.37,6.01-13.37,13.38Z"/>
      <path class="g" d="M689.1,316.7c-8,0-14.46,6.47-14.46,14.47s6.46,14.45,14.46,14.45,14.44-6.47,14.44-14.45-6.48-14.47-14.44-14.47Z"/>
      <path class="h" d="M673.56,331.16c0-8.59,6.98-15.55,15.54-15.55s15.52,6.97,15.52,15.55-6.98,15.53-15.52,15.53-15.54-6.97-15.54-15.53ZM675.74,331.16c0,7.37,5.99,13.37,13.36,13.37s13.36-6,13.36-13.37-6-13.38-13.36-13.38-13.36,5.99-13.36,13.38Z"/>
      <path class="g" d="M801.66,316.7c-7.97,0-14.44,6.47-14.44,14.47s6.46,14.45,14.44,14.45,14.44-6.47,14.44-14.45-6.46-14.47-14.44-14.47Z"/>
      <path class="h" d="M786.14,331.16c0-8.59,6.96-15.55,15.52-15.55s15.53,6.97,15.53,15.55-6.96,15.53-15.53,15.53-15.52-6.97-15.52-15.53ZM788.31,331.16c0,7.37,5.99,13.37,13.35,13.37s13.37-6,13.37-13.37-6-13.38-13.37-13.38-13.35,5.99-13.35,13.38Z"/>
      <path class="i" d="M692.62,335.74c31.11-23.91,74.41-23.91,105.53,0,2.53,1.95,6.16,1.48,8.1-1.06,1.96-2.52,1.48-6.15-1.04-8.11-.41-.3-.86-.58-1.34-.76-36.24-15.02-57.89-52.56-52.76-91.49.41-3.17-1.81-6.08-4.98-6.49-3.16-.41-6.06,1.81-6.46,4.98-.08.5-.08,1,0,1.51,5.11,38.93-16.54,76.46-52.79,91.49-2.95,1.22-4.35,4.59-3.15,7.54,1.23,2.97,4.61,4.37,7.56,3.16.46-.2.91-.46,1.32-.78Z"/>
      <path class="h" d="M682.4,333.91c-.72-1.78-.72-3.74.04-5.53.73-1.78,2.11-3.18,3.9-3.9,35.59-14.75,56.92-51.74,51.89-89.97-.08-.62-.08-1.26,0-1.88.5-3.89,4.1-6.74,8.09-6.23,1.92.25,3.62,1.24,4.79,2.77,1.18,1.53,1.69,3.42,1.44,5.33-5.03,38.22,16.31,75.21,51.87,89.97.58.23,1.15.56,1.67.96,1.53,1.19,2.51,2.89,2.75,4.81.24,1.91-.27,3.81-1.44,5.33-2.37,3.07-7.07,3.68-10.13,1.32-15.01-11.54-32.96-17.65-51.88-17.65s-36.88,6.11-51.88,17.65c-.51.38-1.07.73-1.66.96-.88.36-1.81.55-2.77.55-2.93,0-5.55-1.75-6.68-4.48ZM799.03,334.6c1.84,1.41,4.66,1.04,6.08-.79.69-.92,1.01-2.06.87-3.19-.15-1.15-.74-2.17-1.66-2.88-.3-.26-.64-.42-1-.59-36.79-15.25-58.85-53.48-53.65-93,.15-1.15-.15-2.29-.85-3.21-.71-.92-1.73-1.51-2.87-1.66-2.41-.3-4.56,1.39-4.86,3.74-.06.38-.06.74,0,1.12,5.2,39.52-16.87,77.76-53.63,93.01-1.09.44-1.91,1.29-2.35,2.37-.45,1.05-.47,2.23-.02,3.3.89,2.15,3.48,3.26,5.65,2.35.37-.15.69-.34,1.01-.57,15.3-11.76,34.36-18.23,53.65-18.23s38.34,6.47,53.64,18.24Z"/>
      <path class="f" d="M745.37,291.4c-4,0-7.22,3.23-7.22,7.23s3.22,7.23,7.22,7.23,7.21-3.25,7.21-7.23-3.22-7.23-7.21-7.23Z"/>
      <path class="h" d="M737.43,298.63c0-4.39,3.56-7.96,7.95-7.96s7.94,3.57,7.94,7.96-3.56,7.95-7.94,7.95-7.95-3.56-7.95-7.95ZM738.88,298.63c0,3.58,2.91,6.51,6.5,6.51s6.5-2.93,6.5-6.51-2.91-6.51-6.5-6.51-6.5,2.92-6.5,6.51Z"/>
    </g>
  </g>
</svg>