<?xml version="1.0" encoding="UTF-8"?>
<svg id="a" data-name="Final" xmlns="http://www.w3.org/2000/svg" width="240" height="232" xmlns:xlink="http://www.w3.org/1999/xlink" viewBox="0 0 240 232">
  <defs>
    <style>
      .n {
        filter: url(#l);
      }

      .o {
        fill: #004dff;
      }

      .o, .p, .q, .r, .s {
        stroke-width: 0px;
      }

      .t {
        fill: #da00f9;
        stroke: #e6e6e6;
        stroke-miterlimit: 10;
      }

      .p {
        fill: #000;
      }

      .q {
        fill: url(#e);
        filter: url(#f);
        opacity: .53;
      }

      .q, .r {
        isolation: isolate;
      }

      .r {
        fill: url(#k);
        opacity: .49;
      }

      .s {
        fill: url(#c);
      }
    </style>
    <radialGradient id="c" cx="119.01" cy="-129.06" fx="119.01" fy="-129.06" r="48.94" gradientTransform="translate(-47.6 -10.9) scale(1 -1)" gradientUnits="userSpaceOnUse">
      <stop offset=".2" stop-color="#ccc"/>
      <stop offset=".24" stop-color="#bfbfbf"/>
      <stop offset=".32" stop-color="#9d9d9d"/>
      <stop offset=".42" stop-color="#676767"/>
      <stop offset=".54" stop-color="#1c1c1c"/>
      <stop offset=".58" stop-color="#000"/>
    </radialGradient>
    <radialGradient id="e" cx="119.01" cy="-129.06" fx="119.01" fy="-129.06" r="48.94" gradientTransform="translate(-47.6 -10.9) scale(1 -1)" gradientUnits="userSpaceOnUse">
      <stop offset=".03" stop-color="#000"/>
      <stop offset=".41" stop-color="#020202"/>
      <stop offset=".54" stop-color="#090909"/>
      <stop offset=".64" stop-color="#151515"/>
      <stop offset=".72" stop-color="#252525"/>
      <stop offset=".79" stop-color="#3b3b3b"/>
      <stop offset=".85" stop-color="#575757"/>
      <stop offset=".9" stop-color="#777"/>
      <stop offset=".95" stop-color="#9d9d9d"/>
      <stop offset=".99" stop-color="#c6c6c6"/>
      <stop offset="1" stop-color="#ccc"/>
    </radialGradient>
    <filter id="f" data-name="drop-shadow-1" filterUnits="userSpaceOnUse">
      <feOffset dx="-2" dy="4"/>
      <feGaussianBlur result="g" stdDeviation="2"/>
      <feFlood flood-color="#000" flood-opacity=".75"/>
      <feComposite in2="g" operator="in"/>
      <feComposite in="SourceGraphic"/>
    </filter>
    <linearGradient id="k" x1="58.8" y1="66.48" x2="126.59" y2="163.31" gradientTransform="translate(120.07 -44.23) rotate(40)" gradientUnits="userSpaceOnUse">
      <stop offset="0" stop-color="aqua" stop-opacity=".53"/>
      <stop offset=".21" stop-color="rgba(0, 248, 255, .54)" stop-opacity=".54"/>
      <stop offset=".38" stop-color="rgba(0, 229, 255, .58)" stop-opacity=".58"/>
      <stop offset=".53" stop-color="rgba(0, 197, 255, .64)" stop-opacity=".64"/>
      <stop offset=".68" stop-color="rgba(0, 151, 255, .72)" stop-opacity=".72"/>
      <stop offset=".83" stop-color="rgba(0, 92, 255, .83)" stop-opacity=".83"/>
      <stop offset=".96" stop-color="rgba(0, 21, 255, .96)" stop-opacity=".96"/>
      <stop offset="1" stop-color="blue"/>
    </linearGradient>
    <filter id="l" data-name="outer-glow-2" filterUnits="userSpaceOnUse">
      <feOffset dx="0" dy="0"/>
      <feGaussianBlur result="m" stdDeviation="1"/>
      <feFlood flood-color="#d40bf7" flood-opacity=".9"/>
      <feComposite in2="m" operator="in"/>
      <feComposite in="SourceGraphic"/>
    </filter>
  </defs>
  <g id="b" data-name="Final">
    <path id="d" data-name="Spout" class="s" d="M124.03,163.13s-36.17-1.33-55.91-21.03c-11.41-11.39-12.02-13.18-20.65-27.15-7.52-12.17-16.28-23.61-21.89-30.91-2.27-2.96-4.73-4.52-6.25-5.5-1.06-.69-.35-1.82.38-1.66,3.29.74,13.16,4.17,19.43.88,12.1-6.35,19.78-4.28,19.38-4.07-.44.23-1.48,14-1.46,15.24.62,32.94,25.25,64.81,59.12,72.56,1.68.38,7.84,1.64,7.84,1.64Z"/>
    <path id="h" data-name="Spout" class="q" d="M124.03,163.13s-36.17-1.33-55.91-21.03c-11.41-11.39-12.02-13.18-20.65-27.15-7.52-12.17-16.28-23.61-21.89-30.91-2.27-2.96-4.73-4.52-6.25-5.5-1.06-.69-.35-1.82.38-1.66,3.29.74,13.16,4.17,19.43.88,12.1-6.35,19.78-4.28,19.38-4.07-.44.23-1.48,14-1.46,15.24.62,32.94,25.25,64.81,59.12,72.56,1.68.38,7.84,1.64,7.84,1.64Z"/>
    <g id="i" data-name="Level">
      <g id="j" data-name="Level">
        <path class="r" d="M180.99,135.97c-.39.69-.94,1.28-1.66,1.69-.37,1.59-1.46,2.98-3.22,3.48-.66,1.38-1.93,2.43-3.81,2.59-.53,1.01-1.41,1.83-2.64,2.21-.69,1.29-1.94,2.26-3.76,2.4-.66.99-1.71,1.73-3.12,1.93-.76,1.31-2.13,2.26-4.11,2.26-3.23,0-4.81-2.5-4.8-5-.49-.45-.85-1-1.11-1.6-.46-.41-.83-.92-1.09-1.47-.98-.25-1.77-.75-2.34-1.44-.87-.02-1.62-.23-2.25-.57,0,0,0,0-.01,0-1.19,0-2.16-.34-2.91-.9-2.24-.19-3.58-1.67-4.08-3.42-.43-.6-.72-1.3-.87-2.03-.43-.65-.71-1.4-.82-2.18-.7-.49-1.22-1.15-1.56-1.91-.83-.45-1.46-1.12-1.87-1.92-.32.06-.66.1-1.03.1-.99,0-1.82-.24-2.5-.63-.44.12-.92.19-1.44.19-2.77,0-4.34-1.84-4.73-3.95-.51-.64-.84-1.42-.99-2.23-.61-.69-1.01-1.55-1.17-2.46-.95-.49-1.62-1.27-2.03-2.18-.24-.13-.45-.28-.66-.44-1.25-.1-2.23-.58-2.94-1.3-.73-.12-1.37-.38-1.89-.75-.42.11-.87.17-1.36.17-3.52,0-5.11-2.98-4.78-5.69-.3-.52-.5-1.09-.61-1.69-1.82-.43-2.93-1.78-3.35-3.36-.87-.09-1.59-.38-2.19-.79-.63-.06-1.19-.22-1.68-.47-.23.03-.47.06-.72.06-1.65,0-2.88-.66-3.68-1.64-1.12-.63-1.84-1.69-2.17-2.87-.7-.73-1.15-1.68-1.31-2.69-.37-.51-.64-1.08-.8-1.69-.36-.33-.66-.71-.89-1.13-.62-.37-1.11-.87-1.48-1.45-1.18-.08-2.14-.49-2.85-1.13-.23.04-.48.06-.74.06-.54,0-1.03-.08-1.48-.2-1.21-.02-2.19-.4-2.94-1-1.65-.67-2.59-2.18-2.82-3.82-.4-.7-.64-1.51-.7-2.33-.1-.2-.19-.41-.27-.62-.78-.57-1.32-1.36-1.64-2.24-.61-.16-1.14-.42-1.59-.77-.59-.22-1.09-.53-1.51-.93-.77-.11-1.43-.36-1.98-.73-.06,0-.11.02-.17.02-.73,0-1.37-.13-1.94-.36-.91-.08-1.68-.36-2.3-.79-1.07-.44-1.85-1.24-2.32-2.2-.6-.71-.99-1.58-1.13-2.51-.2-.51-.32-1.06-.36-1.62-.31-.26-.61-.56-.89-.91-.35-.46-.62-.95-.85-1.44-.4.76-1,1.42-1.79,1.85-.4.49-.91.88-1.52,1.17-.75.56-1.72.9-2.91.9-.22,0-.43-.01-.63-.04-.2.02-.41.04-.63.04-.72,0-1.36-.13-1.92-.36l-1.8,8.26,1.79,25.26,11.54,24.31,18.2,19.04,22.3,10.73,22.89,2.78,21.3-4.99,23.16-11.83,10.56-10.21c-.29.19-.82.27-1.6-.6Z"/>
        <path class="o" d="M154.53,149.23c-.34-.59-.55-1.25-.64-1.94-.48-1.16-1.24-2.42-2.79-3.72-1.03-.86-1.96-1.36-2.82-1.67-.29-.06-.56-.15-.81-.26-.65-.17-1.26-.24-1.84-.32-1.39-.18-2.48-.32-4.04-1.63-1.56-1.31-1.89-2.36-2.3-3.69-.46-1.48-.98-3.16-3.16-4.99-2.18-1.83-3.92-2.05-5.46-2.24-.11-.01-.22-.03-.33-.04-.12,0-.24.02-.37.02-2.08,0-3.49-1.05-4.22-2.46-.82-.94-1.09-1.8-1.41-2.82-.14-.44-.28-.89-.46-1.36-.25-.37-.44-.77-.58-1.19-.22-.38-.48-.76-.81-1.15-.38-.28-.71-.62-.98-1-.11-.1-.2-.19-.32-.29-.55-.46-1.07-.82-1.57-1.1-.59-.14-1.11-.37-1.55-.68-.84-.27-1.61-.37-2.34-.46-.99-.13-1.84-.24-2.82-.78-2.24-.55-3.42-2.51-3.52-4.54-.28-.89-.58-1.86-1.25-2.88-1.24-.49-2.09-1.45-2.54-2.59-1.89-1.37-3.45-1.58-4.83-1.76-.1-.01-.19-.02-.28-.04-.42-.03-.81-.09-1.16-.2-.02,0-.04-.01-.06-.02-.02,0-.03,0-.05-.01-.77-.2-1.53-.56-2.47-1.35-1.51-1.26-1.86-2.29-2.25-3.56-.4-.61-.67-1.32-.78-2.05-.25-.35-.47-.73-.62-1.14-.43-.62-1-1.27-1.79-1.93-2.18-1.83-3.92-2.05-5.46-2.24-1.38-.17-2.47-.31-4.03-1.62,0,0,0,0,0,0-.83-.54-1.41-1.32-1.76-2.21-.22-.47-.37-.95-.53-1.48-.05-.18-.11-.35-.17-.54-.02-.06-.04-.11-.06-.17-.44-1.3-1.09-2.74-2.93-4.29-.39-.33-.76-.59-1.12-.82-.27-.12-.51-.27-.74-.43-1.35-.7-2.53-.86-3.6-.99-1.38-.17-2.48-.31-4.04-1.62-.07-.06-.13-.12-.2-.18-.43-.33-.79-.73-1.07-1.18-.12-.18-.24-.36-.33-.53-.57-.7-.93-1.57-1.07-2.48-.06-.16-.13-.32-.18-.49-.12-.2-.24-.39-.36-.6-.38-.71-.87-1.3-1.42-1.85-.08.06-.15.11-.23.17-.38.67-.93,1.24-1.63,1.65.81.93,1.09,1.79,1.4,2.81.46,1.48.98,3.16,3.16,4.99,2.18,1.83,3.92,2.05,5.46,2.24,1.38.17,2.47.31,4.03,1.62,1.56,1.31,1.89,2.36,2.3,3.69.46,1.48.98,3.16,3.16,4.99,2.18,1.83,3.92,2.05,5.46,2.24,1.38.17,2.47.31,4.03,1.62,1.56,1.31,1.88,2.36,2.29,3.69.46,1.48.98,3.16,3.16,4.99s3.92,2.05,5.46,2.24c1.38.17,2.47.31,4.04,1.62,1.56,1.31,1.89,2.36,2.3,3.69.46,1.48.98,3.16,3.16,4.99,2.18,1.83,3.92,2.05,5.46,2.24,1.38.17,2.48.31,4.03,1.62,1.56,1.31,1.89,2.36,2.3,3.7.46,1.48.98,3.16,3.16,4.99,2.18,1.83,3.92,2.05,5.46,2.24,1.38.17,2.48.31,4.03,1.62,1.56,1.31,1.89,2.36,2.3,3.7.46,1.48.99,3.17,3.17,5,2.18,1.83,3.94,2.06,5.48,2.26,1.38.17,2.5.34,4.07,1.65,1.56,1.31,1.95,2.41,2.36,3.74.46,1.48.97,3.16,3.27,5.09l1.93-2.3c-1.94-1.63-2.03-2.26-2.26-3.22Z"/>
      </g>
    </g>
    <path class="p" d="M204.38,73.68h-5.92c.96,4.67,1.47,9.5,1.47,14.46,0,19.74-8,37.6-20.94,50.53-.48,1.04-1.3,1.9-2.46,2.35-.22.2-.44.38-.66.57-.48.78-1.18,1.43-2.11,1.8-1.61,1.32-3.29,2.57-5.02,3.75-.35.32-.75.59-1.21.8-1.75,1.15-3.57,2.21-5.42,3.2-.63.65-1.48,1.12-2.54,1.29-9.39,4.56-19.93,7.13-31.07,7.13-39.45,0-71.44-31.98-71.44-71.44,0-4.95.5-9.79,1.47-14.46h-5.92c-.89,4.68-1.36,9.52-1.36,14.46,0,42.66,34.58,77.25,77.25,77.25s77.25-34.58,77.25-77.25c0-4.94-.47-9.77-1.36-14.46Z"/>
    <g class="n">
      <path class="t" d="M127.78,67.02h2.38c.02.06.07.1.17.08,8.91.89,15.06,5.72,18.02,12.75,1.58,3.77,2.12,8.79,1.07,13.16-.97,4.05-3.04,7.41-5.51,9.87,1.1,1.53,2.96,2.73,3.86,4.19h-10.36v-10.45c.56.53,1.06.98,1.73,1.64.32.33,1.36,1.75,1.73,1.74.12,0,.79-.85.99-1.07,2.27-2.65,3.98-6.41,3.95-10.94-.07-11.04-9.83-18.57-21.06-16.29v-4.27c.97-.18,2.04-.26,3.05-.41Z"/>
      <path class="t" d="M130.08,109.14h-2.39c-11.69-1.53-18.31-8.12-19.83-19.83v-2.47c.27-4.98,2.47-9.31,5.02-12.34.31-.37,1.16-1.25,1.15-1.32,0-.09-.86-.85-.99-.99-1.05-1.05-2.32-2.13-2.96-3.04h10.37v10.45c-1.24-1.06-2.23-2.38-3.54-3.37-2.69,3.01-4.85,6.56-4.85,11.85,0,11.02,9.76,18.7,21.06,16.37v4.28c-.97.18-2.04.26-3.04.41Z"/>
    </g>
  </g>
</svg>