<?xml version="1.0" encoding="UTF-8"?>
<svg id="a" data-name="Slicer" xmlns="http://www.w3.org/2000/svg" width="880.06" height="498.36" xmlns:xlink="http://www.w3.org/1999/xlink" viewBox="0 0 880.06 498.36">
  <defs>
    <style>
      .l {
        fill: url(#i);
        filter: url(#j);
      }

      .l, .m, .n, .o, .p, .q {
        stroke-width: 0px;
      }

      .m {
        filter: url(#d);
      }

      .m, .n, .p, .q {
        fill-rule: evenodd;
      }

      .m, .n, .q {
        fill: #000;
      }

      .n {
        filter: url(#g);
      }

      .o {
        fill: #f2f2f2;
        filter: url(#b);
      }

      .p {
        fill: #fff;
      }
    </style>
    <filter id="b" data-name="drop-shadow-1" filterUnits="userSpaceOnUse">
      <feOffset dx="5" dy="5"/>
      <feGaussianBlur result="c" stdDeviation="3"/>
      <feFlood flood-color="#494949" flood-opacity="1"/>
      <feComposite in2="c" operator="in"/>
      <feComposite in="SourceGraphic"/>
    </filter>
    <filter id="d" data-name="drop-shadow-2" filterUnits="userSpaceOnUse">
      <feOffset dx="5" dy="5"/>
      <feGaussianBlur result="e" stdDeviation="3"/>
      <feFlood flood-color="#494949" flood-opacity="1"/>
      <feComposite in2="e" operator="in"/>
      <feComposite in="SourceGraphic"/>
    </filter>
    <filter id="g" data-name="drop-shadow-3" filterUnits="userSpaceOnUse">
      <feOffset dx="0" dy="5"/>
      <feGaussianBlur result="h" stdDeviation="3"/>
      <feFlood flood-color="#494949" flood-opacity="1"/>
      <feComposite in2="h" operator="in"/>
      <feComposite in="SourceGraphic"/>
    </filter>
    <radialGradient id="i" cx="761.28" cy="459" fx="761.28" fy="459" r="56.22" gradientTransform="translate(1.22 603.26) rotate(-21) scale(1 .3)" gradientUnits="userSpaceOnUse">
      <stop offset="0" stop-color="#f2f2f2"/>
      <stop offset=".42" stop-color="#f6f6f6"/>
      <stop offset=".75" stop-color="#fff"/>
      <stop offset=".81" stop-color="#ececec" stop-opacity=".98"/>
      <stop offset="1" stop-color="#666" stop-opacity=".87"/>
      <stop offset="1" stop-color="#000" stop-opacity=".82"/>
    </radialGradient>
    <filter id="j" data-name="drop-shadow-4" filterUnits="userSpaceOnUse">
      <feOffset dx="3" dy="0"/>
      <feGaussianBlur result="k" stdDeviation="3"/>
      <feFlood flood-color="#494949" flood-opacity=".79"/>
      <feComposite in2="k" operator="in"/>
      <feComposite in="SourceGraphic"/>
    </filter>
  </defs>
  <g>
    <rect class="o" x="676.06" y="164" width="164" height="236"/>
    <g>
      <path class="q" d="M674.65,159.56c-5.39.17-4.3,7.33-4.3,13.86,0,74.45-.4,147.06,0,220.73.03,5.98.24,10.03,5.73,10.03,4.66,0,5.67-3.16,5.73-9.55.85-81.35-.23-151.1-.47-230.76-.14-2.34-1.69-4.46-6.69-4.3Z"/>
      <path class="m" d="M844.18,161.47c-2.28-3.03-6.47-1.44-6.49-1.43-5.35,1.49-3.63,8.65-3.63,12.9v217.38c0,8.61-1.3,15.21,6.93,13.85,4.31-.71,4.07-4.83,4.07-10.99v-216.9c0-2.26.57-12.88-.88-14.81Z"/>
    </g>
  </g>
  <path class="q" d="M694.24,160.86h127.56v9.08h-128.04v-7.64c-.04-.68-.08-1.35.48-1.43Z"/>
  <g>
    <path class="q" d="M694.06,200.88v55.05c3,1.5,7,2.94,11,4.3v-59.24c-4-.05-7.73-.11-11-.11Z"/>
    <path class="q" d="M810.06,200.99v98.9c4,2.14,8,3.12,12,4.78v-103.66c-2,.02-8.05-.01-12-.01Z"/>
    <path class="q" d="M717.38,265.01c4.08,1.01,6.67,3.08,11.67,3.82v-67.83h-11.41c-1.12,20,.05,42.83-.27,64.01Z"/>
    <path class="q" d="M740.11,273.61c4.07,1.34,7.95,3.19,11.95,4.29v-76.91h-11.47c-1.11,23-.16,48.57-.47,72.61Z"/>
    <path class="q" d="M763.31,282.69c4.27,1.14,7.74,2.95,11.74,4.29v-85.98h-11.06c-1.12,26-.36,54.62-.68,81.69Z"/>
    <path class="q" d="M786.76,291.29c3.73,1.52,7.3,3.13,11.3,4.29v-94.59h-10.65c-1.11,29-.33,60.35-.65,90.29Z"/>
  </g>
  <g>
    <path class="q" d="M694.06,389h11v-74.87c-4-1.24-7-2.66-11-3.74v78.6Z"/>
    <path class="q" d="M717.06,389h12v-66.98c-4-1.43-8-2.85-12-3.74v70.71Z"/>
    <path class="q" d="M740.06,389h12v-59.5c-4-1.14-8-2.67-12-3.74v63.24Z"/>
    <path class="q" d="M763.06,389h12v-51.61c-3-1.34-7-2.85-12-3.74v55.35Z"/>
    <path class="q" d="M787.06,389h11v-44.13c-4-1.21-7-2.54-11-3.74v47.87Z"/>
    <path class="q" d="M810.06,349.02v39.98h12v-36.24c-4-1.41-8-2.7-12-3.74Z"/>
  </g>
  <g id="f" data-name="Blade">
    <path class="p" d="M694,277.25c42.77,16.05,85.48,32.15,128.03,48.42v11.87c-43.06-15.61-84.96-32.35-128.03-47.95v-12.34Z"/>
    <path class="q" d="M693.76,265.96c42.78,16.15,85.49,32.36,128.04,48.73v11.95c-43.06-15.71-84.97-32.56-128.04-48.25v-12.42Z"/>
    <path class="n" d="M693.76,288.42c43.21,15.55,85.12,32.41,128.04,48.25v12.42c-42.63-16.29-85.35-32.5-128.04-48.73v-11.94Z"/>
  </g>
  <polygon class="l" points="687.06 430.5 740.52 487.5 782.04 487.5 835.5 430.5 687.06 430.5"/>
</svg>