<?xml version="1.0" encoding="UTF-8"?>
<svg id="a" data-name="Collector" xmlns="http://www.w3.org/2000/svg" width="253" height="193.32" viewBox="0 0 253 193.32">
  <defs>
    <style>
      .d {
        fill: #0000f9;
        fill-rule: evenodd;
      }

      .d, .e, .f, .g {
        stroke-width: 0px;
      }

      .e {
        fill: #000;
      }

      .f {
        fill: #ccc;
      }

      .g {
        fill: #fff;
      }
    </style>
  </defs>
  <g>
    <g>
      <polygon class="g" points="180.59 60.71 181.24 78.16 186 80 195.64 80 199.89 79.08 200.86 77.07 201.4 61.58 223.45 25 160.86 25 180.59 60.71"/>
      <rect class="f" x="156" y="19" width="72" height="4"/>
    </g>
    <path id="b" data-name="Collector" class="e" d="M228,17h-72c-1.1,0-2,.9-2,2v4c0,1.1.9,2,2,2h3.47l19.18,33.82c.73,1.29,1.35,3.63,1.35,5.12v13.07c0,2.21,1.79,4,4,4h3v-2h-3c-1.1,0-2-.9-2-2v-13.07c0-1.83-.71-4.51-1.61-6.1l-3.31-5.83h25.92v-2h-27v.09l-11.4-20.09h28.4v-2h-29.53l-1.7-3h60.59l-7.99,13h-26.37v2h25.14l-11.42,18.59c-.96,1.57-1.72,4.24-1.72,6.08v12.33c0,1.1-.9,2-2,2h-3v2h3c2.21,0,4-1.79,4-4v-12.33c0-1.47.65-3.78,1.42-5.03l21.28-34.63h3.3c1.1,0,2-.9,2-2v-4c0-1.1-.9-2-2-2ZM156,23v-4h72v4s-72,0-72,0Z"/>
  </g>
  <g id="c" data-name="Carriage">
    <rect class="e" x="164" y="61" width="55" height="4"/>
    <path class="d" d="M181.24,66c0-2.04-1.66-3.7-3.7-3.7s-3.7,1.66-3.7,3.7,1.66,3.7,3.7,3.7,3.7-1.66,3.7-3.7Z"/>
    <path class="d" d="M208.24,66c0-2.04-1.66-3.7-3.7-3.7s-3.7,1.66-3.7,3.7,1.66,3.7,3.7,3.7,3.7-1.66,3.7-3.7Z"/>
  </g>
</svg>