<?xml version="1.0" encoding="UTF-8"?>
<svg id="a" data-name="Lights &amp;amp; Camera" xmlns="http://www.w3.org/2000/svg" width="372.97" height="465" xmlns:xlink="http://www.w3.org/1999/xlink" viewBox="0 0 372.97 465">
  <defs>
    <style>
      .l {
        fill: #ffff9f;
      }

      .l, .m, .n, .o, .p, .q {
        stroke-width: 0px;
      }

      .m {
        fill: #da0000;
      }

      .r {
        filter: url(#c);
      }

      .n, .q {
        fill: #000;
      }

      .o {
        fill: #b99a6f;
      }

      .o, .p, .q {
        fill-rule: evenodd;
      }

      .p {
        fill: #fff;
      }

      .s {
        fill: #ffc;
        stroke: #000;
        stroke-miterlimit: 10;
      }
    </style>
    <filter id="c" data-name="drop-shadow-1" filterUnits="userSpaceOnUse">
      <feOffset dx="0" dy="2"/>
      <feGaussianBlur result="d" stdDeviation="6"/>
      <feFlood flood-color="#666" flood-opacity=".75"/>
      <feComposite in2="d" operator="in"/>
      <feComposite in="SourceGraphic"/>
    </filter>
  </defs>
  <g id="b" data-name="Camera">
    <g class="r">
      <path class="p" d="M192.88,34.26c6.58-5.3,14.45-10.76,21.74-16.15,2.5-1.85,4.77-3.97,7.25-5.38,2.89-1.65,6.38-.78,8.62.25,2.71,1.25,5.83,4.02,8.03,6.76.85,1.06,1.8,2.33,1.76,3.46-.04,1.19-1.47,2.01-2.92,3.07-7.42,5.45-14.05,10.41-21.37,15.89-1.23.92-2.67,2.17-3.84,2.46-2.08.51-3.29-.99-4.56-2.48-3.86-4.51-8.67-8.12-14.7-7.88Z"/>
      <path class="p" d="M194.93,35.72c-1.29,2.69-1.36,6.94.66,10.7-1.83-1.42-5.29-4.05-6.46-6.93-.42-1.05-.3-1.74-.04-2.64,1.7-1.15,4.21-1.37,5.85-1.14Z"/>
      <path class="p" d="M199.25,37.39c-1.37.83-1.64,2.87-1.24,4.78,1.06,4.99,6.77,10.84,10.62,9.53,2.23-.77,2.36-3.08,1.89-5.57.75-.05,1.37.13,2.29-.23.95,4.02-.09,8.08-4.13,8.44-7.18.65-16.32-10.76-12.16-18.2.1-.06.14.01.17.1.93.25,1.9.4,2.55,1.16Z"/>
      <path class="p" d="M200.06,38.62c1.19-.8,1.9.13,2.96,1.04,1.26,1.07,2.59,2.58,3.84,4.02.75.86,1.81,1.51,2.16,2.31.68,1.56.26,3.69-.54,4.14-2.69,1.49-7.74-3.59-8.9-7.68-.37-1.3-.51-3.15.49-3.83ZM205.9,46.91c2.43-1.1-.92-6.53-3.27-5.07-2.33,1.44,1.2,6.01,3.27,5.07Z"/>
      <path class="o" d="M237.42,28.02c.11-.06.14.01.17.09.39,2.45.26,5.15-1.35,6.88-.68.73-1.85,1.31-2.79,2.01-6.09,4.47-13,9.66-19.12,14.05.45-1.69.33-3.69-.11-5.86,7.8-5.68,15.54-11.4,23.2-17.17Z"/>
      <path class="q" d="M202.63,41.84c2.35-1.45,5.7,3.97,3.27,5.07-2.07.93-5.6-3.63-3.27-5.07ZM205.32,45.46c-.34-1.4-.97-2.26-2.02-2.35.34,1.4.97,2.26,2.02,2.35Z"/>
      <path class="p" d="M203.3,43.11c1.05.09,1.68.95,2.02,2.35-1.05-.08-1.68-.95-2.02-2.35Z"/>
      <path class="p" d="M233.66,38.7c.54,1.24-.39,2.68,0,3.98.26.89,1.64,2.41,2.3,3.3.76,1.02,1.88,1.95,2.26,3.16,1.13,3.57-3.05,5.72-5.41,4.11-2.02-1.38-2.86-4.62-4.75-6.11-1.11-.88-2.38-.62-4.03-1.17,2.91-2.58,6.47-4.82,9.63-7.27ZM235.39,52.03c2.61-.96,1.03-5.68-2.11-3.65-1.88,1.63.06,4.4,2.11,3.65Z"/>
      <path class="q" d="M233.29,48.39c3.14-2.03,4.72,2.69,2.11,3.65-2.04.76-3.99-2.02-2.11-3.65ZM234.06,50.52c.29.17.66.17,1.16-.05.71-1.26-1.89-1.58-1.16.05Z"/>
      <path class="p" d="M235.23,50.47c-.5.22-.88.22-1.16.05-.72-1.62,1.87-1.31,1.16-.05Z"/>
      <path class="q" d="M247.21,49.05s-5.36,1.58-7.61,2.25c.44-2.31.44-2.66-.9-4.44,1.21-.36,7.08-1.62,6.96-2.06-.32-1.29-.4-1.68-.4-1.68l-1.19.33c-1.89.56-4.53,1.34-7.06,2.09-.04,0-1.43-1.85-1.71-2.81-.43-1.46.37-3.5.14-5.01,3.42-2.2,4.71-5.65,3.4-10.41,1.52-1.35,2.83-2.07,3.01-3.75.25-2.3-1.93-4.26-3.34-5.82-3.46-3.82-8.34-7.68-13.38-7.4-3.77.21-5.7,2.35-8.19,4.18-7.66,5.64-14.33,10.58-22.01,16.22-2.7,1.98-7.56,4.61-7.62,7.11-.07,3.13,2.93,5.95,4.57,7.49,1.99,1.87,4.33,3.21,6.17,4.95,1.18,1.11,2.13,2.21,3.6,3.2,1.25.86,2.61,1.77,4.17,2.16,4.11,1.03,7.44-1.83,10.55-4.15.78-.58,1.82-1.39,2.89-2.18,1.05-.78,2.18-2.02,3.02-2.22.8-.19,4.49.95,4.96,1.33.9.73,1.69,2.25,2.44,3.25,1.74,2.36,3.36,4.5,6.86,3.27.94-.33,1.95-1.3,2.76-1.7,2.28-1.12,6.45-1.75,8.45-2.35l-.54-1.84ZM214.62,18.12c2.5-1.85,4.77-3.97,7.25-5.38,2.89-1.65,6.38-.78,8.62.25,2.71,1.25,5.83,4.02,8.03,6.76.85,1.06,1.8,2.33,1.76,3.46-.04,1.19-1.47,2.01-2.92,3.07-7.42,5.45-14.05,10.41-21.37,15.89-1.23.92-2.67,2.17-3.84,2.46-2.08.51-3.29-.99-4.56-2.48-3.86-4.51-8.67-8.12-14.7-7.88,6.58-5.3,14.45-10.76,21.74-16.15ZM208.47,50.13c-2.69,1.49-7.74-3.59-8.9-7.68-.37-1.3-.51-3.15.49-3.83,1.19-.8,1.9.13,2.96,1.04,1.26,1.07,2.59,2.58,3.84,4.02.75.86,1.81,1.51,2.16,2.31.68,1.56.26,3.69-.54,4.14ZM189.12,39.5c-.42-1.05-.3-1.74-.04-2.64,1.7-1.15,4.21-1.37,5.85-1.14-1.29,2.69-1.36,6.94.66,10.7-1.83-1.42-5.29-4.05-6.46-6.93ZM208.68,54.34c-7.18.65-16.32-10.76-12.16-18.2.1-.06.14.01.17.1.93.25,1.9.4,2.55,1.16-1.37.83-1.64,2.87-1.24,4.78,1.06,4.99,6.77,10.84,10.62,9.53,2.23-.77,2.36-3.08,1.89-5.57.75-.05,1.37.13,2.29-.23.95,4.02-.09,8.08-4.13,8.44ZM214.33,51.05c.45-1.69.33-3.69-.11-5.86,7.8-5.68,15.54-11.4,23.2-17.17.11-.06.14.01.17.09.39,2.45.26,5.15-1.35,6.88-.68.73-1.85,1.31-2.79,2.01-6.09,4.47-13,9.66-19.12,14.05ZM232.81,53.24c-2.02-1.38-2.86-4.62-4.75-6.11-1.11-.88-2.38-.62-4.03-1.17,2.91-2.58,6.47-4.82,9.63-7.27.54,1.24-.39,2.68,0,3.98.26.89,1.64,2.41,2.3,3.3.76,1.02,1.88,1.95,2.26,3.16,1.13,3.57-3.05,5.72-5.41,4.11Z"/>
      <path class="p" d="M238.7,46.85c2.49-.73,4.52-1.39,7.01-2.12.43,1.46.86,2.91,1.29,4.37-2.44.72-4.89,1.44-7.33,2.16.3-1.54.15-3.4-.97-4.42Z"/>
    </g>
    <g id="e" data-name="Flashing Light Off">
      <path id="f" data-name="Camera On" class="m" d="M188.95,28.45c0-1.74,1.41-3.14,3.14-3.14s3.14,1.41,3.14,3.14-1.41,3.14-3.14,3.14-3.14-1.41-3.14-3.14Z"/>
    </g>
    <g id="g" data-name="Flashing Light On">
      <path id="h" data-name="Camera On" class="l" d="M180.86,28.45c0-6.21,5.03-11.23,11.23-11.23s11.23,5.03,11.23,11.23-5.03,11.23-11.23,11.23-11.23-5.03-11.23-11.23Z"/>
      <path id="i" data-name="Camera On" class="m" d="M191.88,5.94h.71c.38.17.37.44.44.96.1.77,0,1.69,0,2.63v5.42c0,1.11.08,1.92-.87,1.84-.92-.07-.7-1.14-.7-2.19v-5.95c0-.93-.2-2.33.35-2.63.04-.02.11,0,.08-.08ZM184.62,19.76c-.05-.31-.26-.39-.44-.62-.27-.35-.66-.75-.96-1.05-1.34-1.34-2.75-2.67-4.11-4.02-.55-.55-1.37-1.76-2.27-1.84-.46-.04-.69.56-.7.78-.03.75,1.41,1.77,1.84,2.19,1.51,1.51,2.64,2.64,4.02,4.02.58.58,1.3,1.93,2.45,1.31.2-.32.21-.54.17-.78ZM200.81,20.72c.29-.04.4-.28.62-.44.38-.3.76-.68,1.05-.96,1.44-1.45,2.62-2.62,4.11-4.11.39-.39,1.89-1.64,1.75-2.37-.11-.57-.92-.72-1.31-.43-.68.49-1.24,1.24-1.92,1.92-1.27,1.27-2.59,2.6-3.85,3.85-.66.66-1.85,1.35-1.22,2.36.33.2.53.21.78.18ZM187.51,16.26c-.41-.87-.79-1.71-1.23-2.62-.2-.43-.48-1.12-.7-1.22-.64-.31-1.16.19-1.22.61-.08.44.29.9.53,1.4.1.23.15.45.26.7.1.21.25.4.35.61.33.71.74,2.25,1.4,2.45.43.13.83-.13,1.04-.44.06-.58-.21-1.02-.43-1.49ZM197.4,18.27c.4-.03.71-.54.96-1.05.25-.49.42-.99.61-1.4.22-.46.4-.93.62-1.4.24-.52.67-1.1.53-1.58-.1-.31-.7-.69-1.23-.43-.21.1-.5.8-.7,1.22-.46.98-.84,1.81-1.22,2.62-.22.47-.49.91-.44,1.49.22.18.42.56.88.53ZM176.23,21.33c.03.45.62.75,1.05.96.42.21.96.41,1.4.61.38.18.83.35,1.4.61.49.23,1.07.69,1.58.52.21-.07.59-.55.44-1.05-.18-.58-1.57-.99-2.45-1.4-1.15-.54-1.71-1.04-2.71-1.14-.11,0-.12.07-.17.09-.18.07-.56.34-.52.78ZM205.88,21.07c-.39.18-.81.42-1.23.61-.18.08-.79.27-1.32.53-.46.23-.87.48-.96.87-.09.37.13.87.44.96.41.13.63-.12.79-.17.8-.26,1.65-.71,2.18-.96.36-.17.9-.45,1.41-.7.58-.3,1.1-.43,1.04-1.06-.06-.71-.77-.66-1.13-.61-.44.06-.83.34-1.23.53ZM170.72,29.12c.83.13,1.79,0,2.8,0h5.6c.96,0,2.02.17,2.1-.7.08-.96-.88-.87-2.02-.87h-5.59c-1,0-1.97-.11-2.8,0-.52.07-.79.06-.96.43v.7c.17.34.39.36.87.43ZM213.76,27.55c-.84-.13-1.84,0-2.89,0h-5.6c-1,0-2.01-.14-2.01.78s.88.79,2.01.79h5.6c1.01,0,1.97.11,2.8,0,.52-.07.79-.06.96-.43v-.7c-.17-.34-.39-.36-.87-.43ZM179.12,33.58c-.75.33-1.15.47-1.92.87-.54.28-.96.49-.96.96,0,.19.2.69.52.79.41.12.62-.12.79-.18.86-.28,1.5-.64,2.19-.96.45-.21.94-.47,1.4-.7.28-.15.52-.18.7-.35.28-.28.39-.65.26-.96-.18-.45-.64-.41-1.05-.35-.62.09-1.46.67-1.92.88ZM202.38,33.76c.15.39,1.36.83,1.83,1.05.49.22.86.4,1.31.61.5.23.81.44,1.32.61.33.12.6.26.88.18.36-.12.54-.66.52-.88-.04-.44-.45-.57-1.04-.88-.97-.48-1.86-.91-2.71-1.31-.58-.27-1.17-.63-1.66-.44-.25.1-.64.52-.44,1.05ZM183.31,36.12c-.67.49-1.21,1.21-1.84,1.84-1.13,1.13-2.66,2.66-3.76,3.76-.53.53-1.78,1.46-1.58,2.19,0,.04.35.48.53.53.89.24,1.78-1.17,2.27-1.66,1.38-1.39,2.68-2.69,4.02-4.02.51-.5,1.98-1.45,1.67-2.36-.14-.38-.56-.52-1.13-.35-.08.02-.12.05-.18.09ZM199.85,36.64c-.08.84,1.2,1.64,1.75,2.19,1.33,1.34,2.67,2.67,3.93,3.94.53.52,1.39,1.9,2.28,1.66.16-.05.51-.46.53-.53.23-.81-1.02-1.63-1.66-2.28-1.82-1.82-3.15-3.31-4.9-4.99-.4-.39-.68-.71-1.31-.7-.11,0-.12.06-.18.09-.21.1-.4.18-.44.61ZM186.02,39.79c-.41.88-.81,1.66-1.22,2.54-.25.53-.57,1.09-.44,1.49.09.29.62.54.87.52.45-.03.8-.72.97-1.05.27-.55.37-.89.61-1.4.24-.52.37-.89.61-1.4.21-.45.66-.95.52-1.49-.06-.27-.71-.71-.79-.61,0,0,0,.09,0,.09-.8.06-.82.64-1.14,1.31ZM197.04,40.58c.37.79.94,1.96,1.31,2.71.27.53.4,1.05.96,1.05.22,0,.7-.25.79-.52.14-.44-.2-.89-.44-1.4-.2-.44-.4-.87-.62-1.31-.21-.44-.34-.93-.53-1.31-.3-.65-.66-1.42-1.31-1.31-1.17.2-.53,1.35-.18,2.1ZM193.02,49.85c.12-.78,0-1.73,0-2.72v-5.33c0-.97.17-1.85-.7-1.92-.96-.08-.87.73-.87,1.84v5.42c0,.94-.1,1.85,0,2.63.07.52.06.79.43.96h.71c.34-.17.36-.39.44-.87Z"/>
      <path id="j" data-name="Camera On" class="m" d="M185.71,28.45c0-3.53,2.86-6.38,6.39-6.38s6.38,2.86,6.38,6.38-2.86,6.39-6.38,6.39-6.39-2.86-6.39-6.39Z"/>
    </g>
  </g>
  <g>
    <path class="s" d="M238.25,9.61c-.09-3.91,3.02-7.15,6.93-7.24,3.91-.08,7.15,3.02,7.24,6.93.08,3.91-3.02,7.15-6.93,7.23-3.91.08-7.15-3.02-7.24-6.93Z"/>
    <path id="k" data-name="cls" class="n" d="M244.66,9.81l-2.67-3.6,1.3-.03,2.04,2.84,1.91-2.93,1.29-.03-2.51,3.71,2.82,3.78-1.3.03-2.16-3.01-2.05,3.1-1.29.03,2.63-3.89Z"/>
  </g>
</svg>