<?xml version="1.0" encoding="UTF-8"?>
<svg id="a" data-name="Detail" xmlns="http://www.w3.org/2000/svg" width="267.25" height="355.36" viewBox="0 0 267.25 355.36">
  <defs>
    <style>
      .c {
        fill: #e6e6e6;
      }

      .c, .d {
        stroke: #000;
        stroke-miterlimit: 10;
      }

      .e {
        fill: #000;
        stroke-width: 0px;
      }

      .d {
        fill: #ffc;
      }
    </style>
  </defs>
  <g>
    <path class="c" d="M23.75,54.5h66c6.05,0,11,4.95,11,11s-4.95,11-11,11H23.75v-22Z"/>
    <path class="c" d="M23.75,83.5h66c6.05,0,11,4.95,11,11s-4.95,11-11,11H23.75v-22Z"/>
    <path class="c" d="M23.75,112.5h66c6.05,0,11,4.95,11,11s-4.95,11-11,11H23.75v-22Z"/>
  </g>
  <g>
    <circle class="d" cx="7.58" cy="61.46" r="7.08"/>
    <path id="b" data-name="cls" class="e" d="M6.9,61.8l-2.59-3.66h1.3l1.98,2.88,1.97-2.88h1.29l-2.59,3.66,2.73,3.84h-1.3l-2.1-3.06-2.11,3.06h-1.29l2.71-3.84Z"/>
  </g>
</svg>