<?xml version="1.0" encoding="UTF-8"?>
<svg id="a" data-name="PostFinal" xmlns="http://www.w3.org/2000/svg" width="253" height="83" viewBox="0 0 253 83">
  <defs>
    <style>
      .c {
        fill: #0000f9;
      }

      .c, .d, .e, .f {
        stroke-width: 0px;
      }

      .c, .e, .f {
        fill-rule: evenodd;
      }

      .d, .f {
        fill: #000;
      }

      .e {
        fill: #fff;
      }
    </style>
  </defs>
  <g>
    <path class="f" d="M79.33,38.85c-.99,2.85-1.91,5.36-3.02,8.42-1.78,4.88-2.92,11.08-8.89,11.75-5.76.65-12.28,0-19.06,0s-13.76.71-18.9,0c-5.5-.76-6.43-6.02-8.1-10.64-1.17-3.24-2.47-6.09-3.49-9.37-1.59.07-4.24-.65-4.29-2.86-.08-3.53,5.43-2.86,9.21-2.86,11.77,0,24.42.54,36.05,0,3.92-.18,9.12,0,13.97,0,4.42,0,10.93-1,10.64,3.02-.14,1.93-2.28,2.8-4.13,2.54ZM25.18,34.88c-2.22,0-10.31-.83-10,1.43.15,1.08,1.8.98,3.02.95,18.04-.38,36.89,0,56.22,0,1.81,0,7.74.8,7.46-1.43-.13-1.07-1.04-.88-2.38-.95-3.43-.18-8.45-.22-11.28-.16-10.54.23-21.12-.02-31.28.16-3.52.06-6.99,0-11.75,0ZM19.62,39.32c1.17,3.34,2.17,6.06,3.49,9.69,1.08,2.96,2,6.97,5.08,8.1,2.32.85,6.52.32,10.01.32h20.96c3.24,0,7.88.44,10-.48,3.36-1.45,3.99-5.82,5.24-9.21,1.19-3.22,2.33-5.61,3.18-8.89h-30.49c-9.92,0-21.06.06-27.31,0-.33.09-.34.25-.16.48Z"/>
    <path class="e" d="M36.93,34.88c10.16-.17,20.74.07,31.28-.16,2.83-.06,7.84-.02,11.28.16,1.34.07,2.25-.12,2.38.95.28,2.23-5.65,1.43-7.46,1.43-19.33,0-38.17-.38-56.22,0-1.22.03-2.87.13-3.02-.95-.3-2.26,7.78-1.43,10-1.43,4.76,0,8.23.06,11.75,0Z"/>
    <path class="e" d="M19.78,38.85c6.25.06,17.4,0,27.31,0h30.49c-.85,3.29-1.99,5.67-3.18,8.89-1.25,3.39-1.88,7.76-5.24,9.21-2.13.92-6.76.48-10,.48h-20.96c-3.49,0-7.68.54-10.01-.32-3.08-1.13-4-5.14-5.08-8.1-1.32-3.63-2.32-6.35-3.49-9.69-.18-.23-.17-.39.16-.48ZM26.93,46.95c-.49-1.31-2.01-7.02-3.49-4.92.9,2.91,2.19,6.03,3.18,8.73.3.82.37,2.34,1.59,2.38.04-.12.13-.18.32-.16.23-1.39-.64-3.5-1.59-6.04ZM30.58,41.87c.21,2.7,1.37,6.07,2.06,8.74.24.91.21,2.29,1.27,2.54,1.43-1.21-.11-3.76-.63-5.72-.58-2.15-.67-4.89-2.06-6.04-.3.07-.68.06-.63.48ZM38.2,47.74c.15,1,.47,5.39,1.59,5.4,1.33,0,.26-4.23,0-5.88-.33-2.03-.64-7.24-2.22-5.4-.09,1.81.26,3.48.64,5.88ZM44.4,41.71c-.11,1.99.21,4.48.32,6.67.08,1.71-.48,4.15,1.11,4.76,1.1-1.57.29-5.25.16-8.1-.07-1.61.2-3.01-.63-3.65-.5-.08-.62.23-.95.32ZM51.7,41.39c0,.32-.43.2-.32.64-.34,2.44-.36,6.1-.48,8.58-.04.97-.62,2.44.79,2.54,1.12-1.18.7-3.55.79-5.56.1-2.16.52-4.3.16-6.03-.37,0-.47-.27-.95-.16ZM58.69,41.39c-.04.23-.26.27-.32.48-.49,1.41-.62,3.93-.95,6.04-.29,1.86-1.47,4.3,0,5.24,1.25-1.08,1.29-3.47,1.59-5.4.33-2.12.71-4.37.64-6.19-.37,0-.47-.27-.95-.16ZM65.68,41.39c0,.21-.28.15-.32.32-.63,1.74-1.06,3.83-1.59,5.88-.5,1.93-1.75,4.2-.64,5.56,1.01-.11,1.21-1.42,1.43-2.22.81-2.95,1.45-6.2,2.22-9.05-.38-.15-.42-.64-1.11-.48ZM72.51,41.39c-.84,1.71-1.61,4.01-2.38,6.19-.62,1.74-2.2,4.25-1.11,5.56,1.64-1.05,2.01-3.5,2.7-5.4.73-2.01,1.85-4.14,1.75-6.19-.19-.18-.56-.18-.95-.16Z"/>
    <path class="f" d="M28.52,52.98c-.18-.03-.28.04-.32.16-1.22-.04-1.29-1.57-1.59-2.38-.99-2.71-2.27-5.82-3.18-8.73,1.48-2.09,3,3.61,3.49,4.92.95,2.53,1.82,4.64,1.59,6.04Z"/>
    <path class="f" d="M31.22,41.39c1.4,1.14,1.49,3.88,2.06,6.04.52,1.96,2.06,4.51.63,5.72-1.06-.25-1.03-1.63-1.27-2.54-.69-2.66-1.85-6.03-2.06-8.74-.05-.42.33-.41.63-.48Z"/>
    <path class="f" d="M37.57,41.87c1.58-1.84,1.9,3.37,2.22,5.4.26,1.64,1.33,5.88,0,5.88-1.11,0-1.43-4.4-1.59-5.4-.37-2.4-.73-4.07-.64-5.88Z"/>
    <path class="f" d="M45.35,41.39c.84.65.56,2.04.63,3.65.13,2.85.94,6.53-.16,8.1-1.59-.62-1.03-3.05-1.11-4.76-.11-2.19-.43-4.68-.32-6.67.33-.09.45-.39.95-.32Z"/>
    <path class="f" d="M52.66,41.55c.36,1.74-.06,3.88-.16,6.03-.09,2.01.32,4.38-.79,5.56-1.42-.1-.84-1.57-.79-2.54.12-2.48.14-6.13.48-8.58-.12-.43.32-.32.32-.64.49-.11.58.16.95.16Z"/>
    <path class="f" d="M59.64,41.55c.07,1.82-.3,4.07-.64,6.19-.3,1.93-.33,4.32-1.59,5.4-1.47-.94-.29-3.38,0-5.24.33-2.1.46-4.63.95-6.04.06-.21.28-.25.32-.48.49-.11.58.16.95.16Z"/>
    <path class="f" d="M66.79,41.87c-.78,2.85-1.41,6.1-2.22,9.05-.22.81-.42,2.12-1.43,2.22-1.12-1.36.14-3.63.64-5.56.53-2.05.96-4.13,1.59-5.88.04-.17.32-.11.32-.32.69-.16.73.33,1.11.48Z"/>
    <path class="f" d="M73.46,41.55c.1,2.05-1.02,4.19-1.75,6.19-.69,1.9-1.06,4.35-2.7,5.4-1.09-1.31.49-3.82,1.11-5.56.77-2.18,1.54-4.49,2.38-6.19.39-.02.76-.02.95.16Z"/>
  </g>
  <g id="b" data-name="Carriage">
    <rect class="d" x="22" y="59" width="55" height="4"/>
    <path class="c" d="M39.24,64c0-2.04-1.66-3.7-3.7-3.7s-3.7,1.66-3.7,3.7,1.66,3.7,3.7,3.7,3.7-1.66,3.7-3.7Z"/>
    <path class="c" d="M66.24,64c0-2.04-1.66-3.7-3.7-3.7s-3.7,1.66-3.7,3.7,1.66,3.7,3.7,3.7,3.7-1.66,3.7-3.7Z"/>
  </g>
</svg>