<?xml version="1.0" encoding="UTF-8"?>
<svg id="a" data-name="PostFinal" xmlns="http://www.w3.org/2000/svg" width="253" height="83" viewBox="0 0 253 83">
  <defs>
    <style>
      .b {
        fill: #000;
        fill-rule: evenodd;
        stroke-width: 0px;
      }
    </style>
  </defs>
  <path class="b" d="M192.63,23.62c3.81-.39,9.29-.08,13.73-.08,3.33,0,5.51.06,6.43,2.38.45,1.15.32,2.59.32,4.36s.03,3.41-1.27,3.41c-2.66,0-.29-5.99-1.59-7.3-.61-.61-3.17-.32-4.44-.32h-9.52c-1.29,0-3.92-.2-4.44.32-.46.46-.32,2.31-.32,3.49v22.85c0,1.34-.13,3.04.32,3.49.62.62,3.39.32,4.44.32h9.52c1.38,0,3.87.25,4.44-.32.59-.59.32-2.62.32-4.05,0-1.07-.32-3.13,1.11-3.25,1.53-.13,1.43,1.58,1.43,3.25,0,3.41-.07,5.83-2.46,6.66-1.06.37-2.98.24-4.68.24h-9.84c-3.33,0-6.02.05-6.9-2.46-.57-1.63-.24-5.08-.24-7.54v-15.55c0-4.57-.77-9.87,3.49-9.92.05,0,.11,0,.16,0Z"/>
  <path class="b" d="M220.24,42.58h-18.01c-1.85,0-4.72.39-4.92-1.03-.29-2.07,2.83-1.51,4.6-1.51h18.25c-.56-.62-1.39-1.47-2.3-2.38-.76-.76-2.13-1.49-2.14-2.62,0-.59.54-1.27,1.11-1.27,1,0,1.66,1.03,2.22,1.59,1.42,1.42,2.31,2.31,3.81,3.81.71.71,1.67,1.37,1.67,2.14,0,1.19-2.86,3.34-3.57,4.05-.57.57-1.25,1.25-1.9,1.9-.45.45-1.22,1.62-2.14,1.59-.57-.02-1.14-.57-1.19-1.11-.1-1.16,1.37-2.09,2.06-2.78.93-.93,1.68-1.6,2.46-2.38Z"/>
</svg>