<?xml version="1.0" encoding="UTF-8"?>
<svg id="a" data-name="Slicer" xmlns="http://www.w3.org/2000/svg" width="267.25" height="355.36" xmlns:xlink="http://www.w3.org/1999/xlink" viewBox="0 0 267.25 355.36">
  <defs>
    <style>
      .f {
        filter: url(#d);
      }

      .f, .g, .h {
        stroke-width: 0px;
      }

      .f, .h {
        fill: #000;
        fill-rule: evenodd;
      }

      .g {
        fill: #f2f2f2;
        filter: url(#b);
      }
    </style>
    <filter id="b" data-name="drop-shadow-1" filterUnits="userSpaceOnUse">
      <feOffset dx="5" dy="5"/>
      <feGaussianBlur result="c" stdDeviation="3"/>
      <feFlood flood-color="#494949" flood-opacity="1"/>
      <feComposite in2="c" operator="in"/>
      <feComposite in="SourceGraphic"/>
    </filter>
    <filter id="d" data-name="drop-shadow-2" filterUnits="userSpaceOnUse">
      <feOffset dx="5" dy="5"/>
      <feGaussianBlur result="e" stdDeviation="3"/>
      <feFlood flood-color="#494949" flood-opacity="1"/>
      <feComposite in2="e" operator="in"/>
      <feComposite in="SourceGraphic"/>
    </filter>
  </defs>
  <g>
    <rect class="g" x="63.25" y="21" width="164" height="236"/>
    <g>
      <path class="h" d="M61.85,16.56c-5.39.17-4.3,7.33-4.3,13.86,0,74.45-.4,147.06,0,220.73.03,5.98.24,10.03,5.73,10.03,4.66,0,5.67-3.16,5.73-9.55.85-81.35-.23-151.1-.47-230.76-.14-2.34-1.69-4.46-6.69-4.3Z"/>
      <path class="f" d="M231.37,18.47c-2.28-3.03-6.47-1.44-6.49-1.43-5.35,1.49-3.63,8.65-3.63,12.9v217.38c0,8.61-1.3,15.21,6.93,13.85,4.31-.71,4.07-4.83,4.07-10.99V33.28c0-2.26.57-12.88-.88-14.81Z"/>
    </g>
  </g>
  <path class="h" d="M81.43,17.86h127.56v9.08H80.96v-7.64c-.04-.68-.08-1.35.48-1.43Z"/>
  <g>
    <path class="h" d="M81.25,57.88v55.05c3,1.5,7,2.94,11,4.3v-59.24c-4-.05-7.73-.11-11-.11Z"/>
    <path class="h" d="M197.25,57.99v98.9c4,2.14,8,3.12,12,4.78V58c-2,.02-8.05-.01-12-.01Z"/>
    <path class="h" d="M104.58,122.01c4.08,1.01,6.67,3.08,11.67,3.82V58h-11.41c-1.12,20,.05,42.83-.27,64.01Z"/>
    <path class="h" d="M127.3,130.61c4.07,1.34,7.95,3.19,11.95,4.29V58h-11.47c-1.11,23-.16,48.57-.47,72.61Z"/>
    <path class="h" d="M150.51,139.69c4.27,1.14,7.74,2.95,11.74,4.29V58h-11.06c-1.12,26-.36,54.62-.68,81.69Z"/>
    <path class="h" d="M173.95,148.29c3.73,1.52,7.3,3.13,11.3,4.29V58h-10.65c-1.11,29-.33,60.35-.65,90.29Z"/>
  </g>
  <g>
    <path class="h" d="M81.25,246h11v-74.87c-4-1.24-7-2.66-11-3.74v78.6Z"/>
    <path class="h" d="M104.25,246h12v-66.98c-4-1.43-8-2.85-12-3.74v70.71Z"/>
    <path class="h" d="M127.25,246h12v-59.5c-4-1.14-8-2.67-12-3.74v63.24Z"/>
    <path class="h" d="M150.25,246h12v-51.61c-3-1.34-7-2.85-12-3.74v55.35Z"/>
    <path class="h" d="M174.25,246h11v-44.13c-4-1.21-7-2.54-11-3.74v47.87Z"/>
    <path class="h" d="M197.25,206.02v39.98h12v-36.24c-4-1.41-8-2.7-12-3.74Z"/>
  </g>
</svg>