<?xml version="1.0" encoding="UTF-8"?>
<svg id="a" data-name="Lights &amp;amp; Camera" xmlns="http://www.w3.org/2000/svg" width="398.97" height="490" xmlns:xlink="http://www.w3.org/1999/xlink" viewBox="0 0 398.97 490">
  <defs>
    <style>
      .o {
        filter: url(#c);
      }

      .p, .q, .r, .s, .t, .u, .v {
        stroke-width: 0px;
      }

      .p, .v {
        fill: #000;
      }

      .q {
        fill: #ccc;
      }

      .q, .r, .s, .t, .u, .v {
        fill-rule: evenodd;
      }

      .r {
        fill: #66a8de;
      }

      .s {
        fill: #fff;
      }

      .w {
        fill: #ffc;
        stroke: #000;
        stroke-miterlimit: 10;
      }

      .t {
        filter: url(#k);
      }

      .t, .u {
        fill: url(#g);
      }

      .u {
        filter: url(#h);
      }
    </style>
    <filter id="c" data-name="drop-shadow-1" filterUnits="userSpaceOnUse">
      <feOffset dx="0" dy="2"/>
      <feGaussianBlur result="d" stdDeviation="6"/>
      <feFlood flood-color="#666" flood-opacity=".75"/>
      <feComposite in2="d" operator="in"/>
      <feComposite in="SourceGraphic"/>
    </filter>
    <linearGradient id="g" x1="71.75" y1="81.05" x2="117.96" y2="121.23" gradientTransform="translate(8.17 -5.61) rotate(3.74)" gradientUnits="userSpaceOnUse">
      <stop offset="0" stop-color="#fff"/>
      <stop offset=".04" stop-color="#f5fffe"/>
      <stop offset=".13" stop-color="#e1fffc"/>
      <stop offset=".25" stop-color="#d3fffa"/>
      <stop offset=".38" stop-color="#cbfffa"/>
      <stop offset=".62" stop-color="#c9fffa"/>
    </linearGradient>
    <filter id="h" data-name="drop-shadow-2" filterUnits="userSpaceOnUse">
      <feOffset dx="7" dy="7"/>
      <feGaussianBlur result="i" stdDeviation="4"/>
      <feFlood flood-color="#a0a0a0" flood-opacity=".79"/>
      <feComposite in2="i" operator="in"/>
      <feComposite in="SourceGraphic"/>
    </filter>
    <filter id="k" data-name="drop-shadow-3" filterUnits="userSpaceOnUse">
      <feOffset dx="7" dy="7"/>
      <feGaussianBlur result="l" stdDeviation="22"/>
      <feFlood flood-color="#03f3ff" flood-opacity=".75"/>
      <feComposite in2="l" operator="in"/>
      <feComposite in="SourceGraphic"/>
    </filter>
  </defs>
  <g id="b" data-name="Light">
    <g id="e" data-name="Light Off" class="o">
      <path id="f" data-name="Light Body" class="v" d="M78.37,55.76c.06.03.39.3.47.47.37.78-.16,1.37-.93,2.17-1.31,1.37-3.11,2.96-4.34,4.19-5.18,5.18-10.01,10.34-15.66,15.66-.48.46-.94,1.22-1.7,1.09-.07-.01-.49-.33-.62-.47-.4-.42-1.46-3.73-1.71-4.34-.02-.06-.49-1.33-.62-1.71-.47-1.35-.92-2.52-1.4-4.19-.5-.03-.59.59-.78.93-.91,1.64-1.67,3.64-2.79,5.43-.44.7-.73,1.61-2.02,1.24-.41-.55-.67-.79-.62-1.39,0-.09.27-.24.31-.31.03-.06-.05-.27,0-.31.06-.05.29-.26.31-.31.03-.06-.05-.27,0-.31.44-.36,1.05-1.93,1.4-2.64.87-1.75,1.91-3.53,2.64-5.12-.16-.49-.61-.91-.93-1.24-2.47-2.53-4.88-4.89-7.6-7.6-1.96-1.96-4.27-4.27-6.51-6.51-.81-.81-1.86-1.58-1.86-2.33,0-1.1,12.35-12.87,13.96-14.42.59-.61,17.44,16.86,17.99,16.9,2.54-1.09,4.87-2.45,7.44-3.72.79-.39,1.65-1.06,2.64-.77.47.57.53,1.02.47,1.39-.12.67-.73.83-1.39,1.24-1.77,1.08-4.49,1.98-6.2,3.26M52.47,63.04c2.77-2.6,5.21-5.21,7.91-7.91.32-.32,2.88-2.5,2.87-2.86,0,.01-.22-.23-.23-.24-4.99-4.99-10.74-10.96-15.35-15.35-3.28,3.34-6.86,7.01-10.08,10.23-.44.44-1.31.84-1.09,1.39,2.58,2.49,5.07,5.07,7.6,7.6,1.93,1.93,3.91,3.91,5.74,5.74.64.64,1.48,1.13,1.86,2.01q.55-.4.78-.62ZM65.34,53.59c-3.6,3.94-8,7.77-11.48,11.63-.15.17-.77.36-.46.78,1.08,3.32,2.41,6.37,3.41,9.77.59-.09.84-.7,1.24-1.09,5.45-5.32,11.13-10.89,16.28-16.28.38-.4,1.2-.72.93-1.24-3.38-1.11-6.65-2.35-9.92-3.56Z"/>
      <path class="q" d="M51.88,63.66c-.72-.8-1.4-1.37-2.04-2.01-1.83-1.83-3.8-3.8-5.74-5.74-2.53-2.53-5.02-5.11-7.6-7.6-.22-.55.64-.95,1.09-1.39,3.22-3.22,6.8-6.89,10.08-10.23,4.61,4.39,10.37,10.36,15.35,15.35,0,.01.26.28.27.27-.14.22-2.58,2.51-2.91,2.83-2.7,2.7-5.14,5.31-7.91,7.91-.23.21.19-.18-.6.61Z"/>
    </g>
    <path class="r" d="M51.88,63.66c-.72-.8-1.4-1.37-2.04-2.01-1.83-1.83-3.8-3.8-5.74-5.74-2.53-2.53-5.02-5.11-7.6-7.6-.22-.55.64-.95,1.09-1.39,3.22-3.22,6.8-6.89,10.08-10.23,4.61,4.39,10.37,10.36,15.35,15.35,0,.01.26.28.27.27-.14.22-2.58,2.51-2.91,2.83-2.7,2.7-5.14,5.31-7.91,7.91-.23.21.19-.18-.6.61Z"/>
    <path class="s" d="M75.27,57.15c.27.52-.55.84-.93,1.24-5.15,5.39-10.83,10.96-16.28,16.28-.4.39-.65.99-1.24,1.09-1-3.4-2.33-6.45-3.41-9.77-.31-.41.18-.47.46-.78,3.55-3.79,7.88-7.69,11.48-11.63,3.28,1.22,6.54,2.45,9.92,3.56Z"/>
    <path id="j" data-name="Rays" class="u" d="M136.05,72.63c-1.3,1.51-2.34,1.12-4.33.57-.79-.22-2.15-.52-3.46-.86-.75-.2-1.18-.35-2.02-.58-1.24-.34-3.81-.99-5.48-1.44-2.45-.67-5-1.31-7.57-1.95.02,0,.03-.02.05-.03-1.13-.95-1.24-1.75-1.15-2.46.4-3.04,3.42-1.42,4.79-1.06.39.1,1.11.27,1.11.45v.04c3,.61,5.52,1.24,8.25,1.84.12.03.6.27.9.29.89.05,2.07.54,3.3.87,2.25.58,6.49.58,5.6,4.33ZM102.49,126.08c-.21-.22-.21-.56-.28-.66-1.57-2.31-2.6-4.16-4.36-6.66.01-.01.02-.02.03-.03.12-.13-.65-1.09-.86-1.43-.75-1.21-2.2-4.8-4.57-2.87-.56.45-1.03,1.1-.86,2.58-.02,0-.03,0-.05,0,1.43,2.23,2.84,4.45,4.16,6.62.9,1.48,2.32,3.71,2.99,4.81.45.74.67,1.15,1.07,1.81.72,1.15,1.5,2.31,1.92,3,1.07,1.76,1.56,2.76,3.54,2.55,3.21-2.11.23-4.94-1.01-6.91-.68-1.08-1.11-2.17-1.72-2.81ZM93.47,80.04s.02-.05.03-.07c.62-1.42,1.34-2.7,2.2-3.93l-8.38-5.42c-.46-.27-2.16-.65-2.29-.61-1.05.34-1.84,1.23-1.75,2.63.04.53,4.56,3.68,10.19,7.41ZM123.94,94.27c-.34-.21-.89-.56-1.48-.93-.09.08-.18.16-.26.25-.11.13-.32.4-.37.46-.13.18-.26.36-.39.54-.65.84-1.13,1.5-2.02,2.07,2.3,1.5,4.72,3.07,4.82,3.09,1.5.19,2.14-.31,2.6-.87,1.94-2.37-1.68-3.86-2.89-4.61ZM114.63,89c-.81,0-1.93-1.65-2.5-2.02-.35-.22-.9-.77-1.5-1.16,0,0-.01-.08-.02-.08-.17-.11-.98-.27-1.16-.38-1.29-.81-2.46-1.69-4.46-2.5,0,0,0,0,0,0,0-.39-.51-.74-.85-.97-1.21-.79-3.81-3.49-5.19-.63-.32.68-.35,1.49.46,2.81.05.08,2.63,1.63,5,3.11,1.21.77,2.41,1.51,3.51,2.2,2.14,1.44,4.24,2.83,4.33,2.85,1.53.2,2.21.08,2.69-.5,1.08-1.28.58-.74-.32-2.74h0ZM98.27,64.56c1.68.46,3.38.88,5.08,1.31-.02.02-.03.04-.04.06,2.69.76,5.51,1.55,5.61,1.54,1.51-.27,1.98-.95,2.26-1.63,1.16-2.89-2.8-3.24-4.2-3.6-.04-.01-.12-.03-.17-.04,0-.02,0-.05,0-.07-3.65-.97-7.14-1.9-10.56-2.75-.07-.02-.22-.02-.29,0-1.75.38-2.48,2.55-1.44,3.75.84.98,2.5,1.1,3.75,1.44ZM85,100.61c-1.54-2.47-3.11-4.85-4.61-7.21-1.28-2.01-2.77-4.49-4.04-6.34-.33-.49-.56-1.12-.87-1.45-.24-.24-.09-.23-.29-.58-.55-.92-1.8-2.03-2.59-2.02-.36,0-1.77.61-1.73.58-.08.07.04.47,0,.58-.04.12-.54.41-.58.58-.3,1.27,2.28,4.8,2.89,5.77.4.63,1.28,2.14,1.44,2.3.23.25.34.63.58.87.23.23.09.26.29.58.81,1.28,1.62,2.36,2.31,3.46.39.62,1.2,2.05,1.44,2.31.45.46.59,1.01.86,1.44.35.55.78,1.15,1.16,1.74,1.31,2.06,2.92,4.52,4.03,6.34.26.43.61,1.18.87,1.44.72.76,1.05,1.53,2.02,1.74.51.1.89-.08,1.73,0,.16-.42.45-.71.86-.87.56-2.33-1.37-4.32-2.31-5.77-1.29-2-2.25-3.56-3.46-5.48ZM66.42,104.51c-.43-1.52-.87-3.07-1.31-4.77-.69-2.64-.65-5.79-3.17-6.06-.35-.04-.42.24-.58.28-.82.25-1.25.43-1.44.87-.48,1.09.12,2.51.29,3.17.23.91.41,1.72.58,2.5-.02,0-.04,0-.05,0,.58,2.69,1.2,5.51,1.26,5.58.94,1.19,1.74,1.28,2.46,1.21,1.76-.19,1.92-2.79,1.97-2.78ZM75.2,137.81c-.16-.59-.45-1.23-.58-1.73-.2-.76-.39-1.5-.58-2.24-.49-2.16-.94-4.06-.98-4.12-.96-1.19-1.78-1.28-2.5-1.2-3.09.37-1.5,4.68-1.15,6.07.1.4.26.4.43,2.4h.15c1.08,5,2.16,7.71,3.2,11.87.22.88,1.52,1.29,2.59,1.1,3.08-.54.96-5.32.58-6.85-.48-1.91-.72-3.71-1.15-5.32ZM69.86,126.06c.68-.27,1.36-.71,1.64-2.22.02-.09-.75-2.88-1.48-5.56-.01-.05-.02-.09-.03-.14.01,0,.02,0,.04,0-.62-2.72-1.27-5.57-1.33-5.64-.96-1.19-1.78-1.28-2.5-1.2-2.8.33-1.76,3.35-1.28,4.95.09.33,1.29,5.14,1.39,5.54.35,1.4.67,5.39,3.56,4.25Z"/>
    <path id="m" data-name="Rays" class="t" d="M136.05,72.63c-1.3,1.51-2.34,1.12-4.33.57-.79-.22-2.15-.52-3.46-.86-.75-.2-1.18-.35-2.02-.58-1.24-.34-3.81-.99-5.48-1.44-2.45-.67-5-1.31-7.57-1.95.02,0,.03-.02.05-.03-1.13-.95-1.24-1.75-1.15-2.46.4-3.04,3.42-1.42,4.79-1.06.39.1,1.11.27,1.11.45v.04c3,.61,5.52,1.24,8.25,1.84.12.03.6.27.9.29.89.05,2.07.54,3.3.87,2.25.58,6.49.58,5.6,4.33ZM102.49,126.08c-.21-.22-.21-.56-.28-.66-1.57-2.31-2.6-4.16-4.36-6.66.01-.01.02-.02.03-.03.12-.13-.65-1.09-.86-1.43-.75-1.21-2.2-4.8-4.57-2.87-.56.45-1.03,1.1-.86,2.58-.02,0-.03,0-.05,0,1.43,2.23,2.84,4.45,4.16,6.62.9,1.48,2.32,3.71,2.99,4.81.45.74.67,1.15,1.07,1.81.72,1.15,1.5,2.31,1.92,3,1.07,1.76,1.56,2.76,3.54,2.55,3.21-2.11.23-4.94-1.01-6.91-.68-1.08-1.11-2.17-1.72-2.81ZM93.47,80.04s.02-.05.03-.07c.62-1.42,1.34-2.7,2.2-3.93l-8.38-5.42c-.46-.27-2.16-.65-2.29-.61-1.05.34-1.84,1.23-1.75,2.63.04.53,4.56,3.68,10.19,7.41ZM123.94,94.27c-.34-.21-.89-.56-1.48-.93-.09.08-.18.16-.26.25-.11.13-.32.4-.37.46-.13.18-.26.36-.39.54-.65.84-1.13,1.5-2.02,2.07,2.3,1.5,4.72,3.07,4.82,3.09,1.5.19,2.14-.31,2.6-.87,1.94-2.37-1.68-3.86-2.89-4.61ZM114.63,89c-.81,0-1.93-1.65-2.5-2.02-.35-.22-.9-.77-1.5-1.16,0,0-.01-.08-.02-.08-.17-.11-.98-.27-1.16-.38-1.29-.81-2.46-1.69-4.46-2.5,0,0,0,0,0,0,0-.39-.51-.74-.85-.97-1.21-.79-3.81-3.49-5.19-.63-.32.68-.35,1.49.46,2.81.05.08,2.63,1.63,5,3.11,1.21.77,2.41,1.51,3.51,2.2,2.14,1.44,4.24,2.83,4.33,2.85,1.53.2,2.21.08,2.69-.5,1.08-1.28.58-.74-.32-2.74h0ZM98.27,64.56c1.68.46,3.38.88,5.08,1.31-.02.02-.03.04-.04.06,2.69.76,5.51,1.55,5.61,1.54,1.51-.27,1.98-.95,2.26-1.63,1.16-2.89-2.8-3.24-4.2-3.6-.04-.01-.12-.03-.17-.04,0-.02,0-.05,0-.07-3.65-.97-7.14-1.9-10.56-2.75-.07-.02-.22-.02-.29,0-1.75.38-2.48,2.55-1.44,3.75.84.98,2.5,1.1,3.75,1.44ZM85,100.61c-1.54-2.47-3.11-4.85-4.61-7.21-1.28-2.01-2.77-4.49-4.04-6.34-.33-.49-.56-1.12-.87-1.45-.24-.24-.09-.23-.29-.58-.55-.92-1.8-2.03-2.59-2.02-.36,0-1.77.61-1.73.58-.08.07.04.47,0,.58-.04.12-.54.41-.58.58-.3,1.27,2.28,4.8,2.89,5.77.4.63,1.28,2.14,1.44,2.3.23.25.34.63.58.87.23.23.09.26.29.58.81,1.28,1.62,2.36,2.31,3.46.39.62,1.2,2.05,1.44,2.31.45.46.59,1.01.86,1.44.35.55.78,1.15,1.16,1.74,1.31,2.06,2.92,4.52,4.03,6.34.26.43.61,1.18.87,1.44.72.76,1.05,1.53,2.02,1.74.51.1.89-.08,1.73,0,.16-.42.45-.71.86-.87.56-2.33-1.37-4.32-2.31-5.77-1.29-2-2.25-3.56-3.46-5.48ZM66.42,104.51c-.43-1.52-.87-3.07-1.31-4.77-.69-2.64-.65-5.79-3.17-6.06-.35-.04-.42.24-.58.28-.82.25-1.25.43-1.44.87-.48,1.09.12,2.51.29,3.17.23.91.41,1.72.58,2.5-.02,0-.04,0-.05,0,.58,2.69,1.2,5.51,1.26,5.58.94,1.19,1.74,1.28,2.46,1.21,1.76-.19,1.92-2.79,1.97-2.78ZM75.2,137.81c-.16-.59-.45-1.23-.58-1.73-.2-.76-.39-1.5-.58-2.24-.49-2.16-.94-4.06-.98-4.12-.96-1.19-1.78-1.28-2.5-1.2-3.09.37-1.5,4.68-1.15,6.07.1.4.26.4.43,2.4h.15c1.08,5,2.16,7.71,3.2,11.87.22.88,1.52,1.29,2.59,1.1,3.08-.54.96-5.32.58-6.85-.48-1.91-.72-3.71-1.15-5.32ZM69.86,126.06c.68-.27,1.36-.71,1.64-2.22.02-.09-.75-2.88-1.48-5.56-.01-.05-.02-.09-.03-.14.01,0,.02,0,.04,0-.62-2.72-1.27-5.57-1.33-5.64-.96-1.19-1.78-1.28-2.5-1.2-2.8.33-1.76,3.35-1.28,4.95.09.33,1.29,5.14,1.39,5.54.35,1.4.67,5.39,3.56,4.25Z"/>
    <g>
      <path class="w" d="M69.25,34.46c0-3.91,3.17-7.08,7.09-7.08s7.08,3.17,7.08,7.08-3.17,7.08-7.08,7.08-7.09-3.17-7.09-7.08Z"/>
      <path id="n" data-name="cls" class="p" d="M75.65,34.8l-2.59-3.66h1.3l1.98,2.88,1.97-2.88h1.29l-2.59,3.66,2.73,3.84h-1.3l-2.1-3.06-2.11,3.06h-1.29l2.71-3.84Z"/>
    </g>
  </g>
</svg>