<?xml version="1.0" encoding="UTF-8"?>
<svg id="a" data-name="HoldBay" xmlns="http://www.w3.org/2000/svg" width="253" height="250" viewBox="0 0 253 250">
  <defs>
    <style>
      .b {
        fill: #fff;
        stroke-miterlimit: 10;
      }

      .b, .c, .d, .e, .f, .g {
        stroke: #000;
      }

      .h {
        fill-rule: evenodd;
        stroke-width: 0px;
      }

      .h, .c {
        fill: #da00f9;
      }

      .d {
        fill: #8fff3c;
      }

      .e {
        fill: #8fffff;
      }

      .f {
        fill: #da0000;
      }

      .g {
        fill: #ffff3c;
      }
    </style>
  </defs>
  <g>
    <path class="b" d="M25.7,118.88c0-55.22,44.77-99.99,99.99-99.99s99.99,44.77,99.99,99.99-44.77,99.99-99.99,99.99S25.7,174.1,25.7,118.88Z"/>
    <path class="g" d="M34.45,95.05c0-16.7,13.54-30.24,30.24-30.24s30.24,13.54,30.24,30.24-13.54,30.24-30.24,30.24-30.24-13.54-30.24-30.24Z"/>
    <path class="f" d="M95.96,53.71c0-16.7,13.54-30.24,30.24-30.24s30.24,13.54,30.24,30.24-13.54,30.24-30.24,30.24-30.24-13.54-30.24-30.24Z"/>
    <path class="e" d="M156.44,98.07c0-16.7,13.54-30.24,30.24-30.24s30.24,13.54,30.24,30.24-13.54,30.24-30.24,30.24-30.24-13.54-30.24-30.24Z"/>
    <path class="c" d="M137.3,168.66c0-16.71,13.54-30.24,30.24-30.24s30.24,13.54,30.24,30.24-13.54,30.24-30.24,30.24-30.24-13.54-30.24-30.24Z"/>
    <path class="d" d="M53.62,167.63c0-16.7,13.54-30.24,30.24-30.24s30.24,13.54,30.24,30.24-13.54,30.24-30.24,30.24-30.24-13.54-30.24-30.24Z"/>
  </g>
  <g>
    <path class="h" d="M125,102.6h1.93c.01.05.06.08.13.07,7.2.72,12.18,4.63,14.58,10.32,1.28,3.05,1.72,7.11.87,10.65-.79,3.28-2.46,5.99-4.46,7.99.89,1.23,2.4,2.21,3.12,3.39h-8.38v-8.45c.45.43.86.79,1.4,1.33.26.26,1.1,1.41,1.4,1.4.09,0,.64-.69.8-.87,1.84-2.14,3.22-5.18,3.19-8.85-.06-8.93-7.95-15.03-17.04-13.18v-3.46c.79-.14,1.65-.21,2.46-.33Z"/>
    <path class="h" d="M126.87,136.68h-1.93c-9.46-1.24-14.81-6.57-16.04-16.04v-2c.22-4.02,2-7.53,4.06-9.98.25-.3.93-1.01.93-1.07,0-.08-.69-.69-.8-.8-.85-.85-1.88-1.73-2.4-2.46h8.39v8.45c-1.01-.86-1.81-1.92-2.86-2.73-2.18,2.43-3.93,5.31-3.93,9.58,0,8.91,7.9,15.13,17.04,13.25v3.46c-.78.14-1.65.21-2.46.33Z"/>
  </g>
</svg>