<?xml version="1.0" encoding="UTF-8"?>
<svg id="a" data-name="HoldBay" xmlns="http://www.w3.org/2000/svg" width="253" height="250" viewBox="0 0 253 250">
  <defs>
    <style>
      .b {
        fill: #fff;
        stroke-miterlimit: 10;
      }

      .b, .c, .d, .e, .f, .g {
        stroke: #000;
      }

      .c {
        fill: #da00f9;
      }

      .d {
        fill: #8fff3c;
      }

      .e {
        fill: #8fffff;
      }

      .f {
        fill: #da0000;
      }

      .g {
        fill: #ffff3c;
      }
    </style>
  </defs>
  <path class="b" d="M25.7,118.88c0-55.22,44.77-99.99,99.99-99.99s99.99,44.77,99.99,99.99-44.77,99.99-99.99,99.99S25.7,174.1,25.7,118.88Z"/>
  <path class="g" d="M34.45,95.05c0-16.7,13.54-30.24,30.24-30.24s30.24,13.54,30.24,30.24-13.54,30.24-30.24,30.24-30.24-13.54-30.24-30.24Z"/>
  <path class="f" d="M95.96,53.71c0-16.7,13.54-30.24,30.24-30.24s30.24,13.54,30.24,30.24-13.54,30.24-30.24,30.24-30.24-13.54-30.24-30.24Z"/>
  <path class="e" d="M156.44,98.07c0-16.7,13.54-30.24,30.24-30.24s30.24,13.54,30.24,30.24-13.54,30.24-30.24,30.24-30.24-13.54-30.24-30.24Z"/>
  <path class="c" d="M137.3,168.66c0-16.71,13.54-30.24,30.24-30.24s30.24,13.54,30.24,30.24-13.54,30.24-30.24,30.24-30.24-13.54-30.24-30.24Z"/>
  <path class="d" d="M53.62,167.63c0-16.7,13.54-30.24,30.24-30.24s30.24,13.54,30.24,30.24-13.54,30.24-30.24,30.24-30.24-13.54-30.24-30.24Z"/>
</svg>