<?xml version="1.0" encoding="UTF-8"?>
<svg id="a" data-name="Lights &amp;amp; Camera" xmlns="http://www.w3.org/2000/svg" width="371.97" height="471" xmlns:xlink="http://www.w3.org/1999/xlink" viewBox="0 0 371.97 471">
  <defs>
    <style>
      .h {
        filter: url(#c);
      }

      .i {
        fill: #ccc;
      }

      .i, .j, .k {
        fill-rule: evenodd;
        stroke-width: 0px;
      }

      .j {
        fill: #66a8de;
      }

      .k {
        fill: #000;
      }
    </style>
    <filter id="c" data-name="drop-shadow-1" filterUnits="userSpaceOnUse">
      <feOffset dx="0" dy="2"/>
      <feGaussianBlur result="d" stdDeviation="6"/>
      <feFlood flood-color="#666" flood-opacity=".75"/>
      <feComposite in2="d" operator="in"/>
      <feComposite in="SourceGraphic"/>
    </filter>
  </defs>
  <g id="b" data-name="Light">
    <g id="e" data-name="Light Off" class="h">
      <path id="f" data-name="Light Body" class="k" d="M51.37,30.76c.06.03.39.3.47.47.37.78-.16,1.37-.93,2.17-1.31,1.37-3.11,2.96-4.34,4.19-5.18,5.18-10.01,10.34-15.66,15.66-.48.46-.94,1.22-1.7,1.09-.07-.01-.49-.33-.62-.47-.4-.42-1.46-3.73-1.71-4.34-.02-.06-.49-1.33-.62-1.71-.47-1.35-.92-2.52-1.4-4.19-.5-.03-.59.59-.78.93-.91,1.64-1.67,3.64-2.79,5.43-.44.7-.73,1.61-2.02,1.24-.41-.55-.67-.79-.62-1.39,0-.09.27-.24.31-.31.03-.06-.05-.27,0-.31.06-.05.29-.26.31-.31.03-.06-.05-.27,0-.31.44-.36,1.05-1.93,1.4-2.64.87-1.75,1.91-3.53,2.64-5.12-.16-.49-.61-.91-.93-1.24-2.47-2.53-4.88-4.89-7.6-7.6-1.96-1.96-4.27-4.27-6.51-6.51-.81-.81-1.86-1.58-1.86-2.33,0-1.1,12.35-12.87,13.96-14.42.59-.61,17.44,16.86,17.99,16.9,2.54-1.09,4.87-2.45,7.44-3.72.79-.39,1.65-1.06,2.64-.77.47.57.53,1.02.47,1.39-.12.67-.73.83-1.39,1.24-1.77,1.08-4.49,1.98-6.2,3.26M25.47,38.04c2.77-2.6,5.21-5.21,7.91-7.91.32-.32,2.88-2.5,2.87-2.86,0,.01-.22-.23-.23-.24-4.99-4.99-10.74-10.96-15.35-15.35-3.28,3.34-6.86,7.01-10.08,10.23-.44.44-1.31.84-1.09,1.39,2.58,2.49,5.07,5.07,7.6,7.6,1.93,1.93,3.91,3.91,5.74,5.74.64.64,1.48,1.13,1.86,2.01q.55-.4.78-.62ZM38.34,28.59c-3.6,3.94-8,7.77-11.48,11.63-.15.17-.77.36-.46.78,1.08,3.32,2.41,6.37,3.41,9.77.59-.09.84-.7,1.24-1.09,5.45-5.32,11.13-10.89,16.28-16.28.38-.4,1.2-.72.93-1.24-3.38-1.11-6.65-2.35-9.92-3.56Z"/>
      <path class="i" d="M24.88,38.66c-.72-.8-1.4-1.37-2.04-2.01-1.83-1.83-3.8-3.8-5.74-5.74-2.53-2.53-5.02-5.11-7.6-7.6-.22-.55.64-.95,1.09-1.39,3.22-3.22,6.8-6.89,10.08-10.23,4.61,4.39,10.37,10.36,15.35,15.35,0,.01.26.28.27.27-.14.22-2.58,2.51-2.91,2.83-2.7,2.7-5.14,5.31-7.91,7.91-.23.21.19-.18-.6.61Z"/>
    </g>
    <path id="g" data-name="Light Body" class="k" d="M51.37,30.76c.06.03.39.3.47.47.37.78-.16,1.37-.93,2.17-1.31,1.37-3.11,2.96-4.34,4.19-5.18,5.18-10.01,10.34-15.66,15.66-.48.46-.94,1.22-1.7,1.09-.07-.01-.49-.33-.62-.47-.4-.42-1.46-3.73-1.71-4.34-.02-.06-.49-1.33-.62-1.71-.47-1.35-.92-2.52-1.4-4.19-.5-.03-.59.59-.78.93-.91,1.64-1.67,3.64-2.79,5.43-.44.7-.73,1.61-2.02,1.24-.41-.55-.67-.79-.62-1.39,0-.09.27-.24.31-.31.03-.06-.05-.27,0-.31.06-.05.29-.26.31-.31.03-.06-.05-.27,0-.31.44-.36,1.05-1.93,1.4-2.64.87-1.75,1.91-3.53,2.64-5.12-.16-.49-.61-.91-.93-1.24-2.47-2.53-4.88-4.89-7.6-7.6-1.96-1.96-4.27-4.27-6.51-6.51-.81-.81-1.86-1.58-1.86-2.33,0-1.1,12.35-12.87,13.96-14.42.59-.61,17.44,16.86,17.99,16.9,2.54-1.09,4.87-2.45,7.44-3.72.79-.39,1.65-1.06,2.64-.77.47.57.53,1.02.47,1.39-.12.67-.73.83-1.39,1.24-1.77,1.08-4.49,1.98-6.2,3.26M25.47,38.04c2.77-2.6,5.21-5.21,7.91-7.91.32-.32,2.88-2.5,2.87-2.86,0,.01-.22-.23-.23-.24-4.99-4.99-10.74-10.96-15.35-15.35-3.28,3.34-6.86,7.01-10.08,10.23-.44.44-1.31.84-1.09,1.39,2.58,2.49,5.07,5.07,7.6,7.6,1.93,1.93,3.91,3.91,5.74,5.74.64.64,1.48,1.13,1.86,2.01q.55-.4.78-.62ZM38.34,28.59c-3.6,3.94-8,7.77-11.48,11.63-.15.17-.77.36-.46.78,1.08,3.32,2.41,6.37,3.41,9.77.59-.09.84-.7,1.24-1.09,5.45-5.32,11.13-10.89,16.28-16.28.38-.4,1.2-.72.93-1.24-3.38-1.11-6.65-2.35-9.92-3.56Z"/>
    <path class="j" d="M24.88,38.66c-.72-.8-1.4-1.37-2.04-2.01-1.83-1.83-3.8-3.8-5.74-5.74-2.53-2.53-5.02-5.11-7.6-7.6-.22-.55.64-.95,1.09-1.39,3.22-3.22,6.8-6.89,10.08-10.23,4.61,4.39,10.37,10.36,15.35,15.35,0,.01.26.28.27.27-.14.22-2.58,2.51-2.91,2.83-2.7,2.7-5.14,5.31-7.91,7.91-.23.21.19-.18-.6.61Z"/>
  </g>
</svg>