<?xml version="1.0" encoding="UTF-8"?>
<svg xmlns="http://www.w3.org/2000/svg" width="226" height="226" xmlns:xlink="http://www.w3.org/1999/xlink" viewBox="0 0 226 226">
  <defs>
    <style>
      .l {
        fill: #da0000;
      }

      .l, .m, .n, .o, .p, .q, .r, .s, .t, .u, .v, .w, .x, .y, .z, .aa, .ab {
        stroke-width: 0px;
      }

      .m {
        fill: #ff0;
      }

      .n {
        fill: url(#b);
        filter: url(#c);
      }

      .o {
        fill: #979797;
      }

      .p {
        fill: blue;
      }

      .q {
        fill: #998675;
      }

      .r, .y {
        fill: #000;
      }

      .s {
        fill: #e4e4e4;
      }

      .t {
        fill: #22b573;
      }

      .u {
        fill: red;
      }

      .v {
        fill: #006837;
      }

      .w {
        fill: #da00f9;
      }

      .x {
        fill: #f1f1f1;
      }

      .y {
        filter: url(#e);
      }

      .z {
        fill: url(#h);
      }

      .aa {
        fill: url(#g);
      }

      .ab {
        fill: #f0f;
      }
    </style>
    <linearGradient id="b" x1="71.06" y1="11.33" x2="139.92" y2="65.13" gradientUnits="userSpaceOnUse">
      <stop offset="0" stop-color="#000"/>
      <stop offset=".03" stop-color="#1a1a1a"/>
      <stop offset=".1" stop-color="#494949"/>
      <stop offset=".17" stop-color="#757575"/>
      <stop offset=".24" stop-color="#9a9a9a"/>
      <stop offset=".32" stop-color="#b9b9b9"/>
      <stop offset=".41" stop-color="#d3d3d3"/>
      <stop offset=".51" stop-color="#e6e6e6"/>
      <stop offset=".62" stop-color="#f4f4f4"/>
      <stop offset=".75" stop-color="#fcfcfc"/>
      <stop offset="1" stop-color="#fff"/>
    </linearGradient>
    <filter id="c" data-name="drop-shadow-1" filterUnits="userSpaceOnUse">
      <feOffset dx="2" dy="1"/>
      <feGaussianBlur result="d" stdDeviation="3"/>
      <feFlood flood-color="#000" flood-opacity=".75"/>
      <feComposite in2="d" operator="in"/>
      <feComposite in="SourceGraphic"/>
    </filter>
    <filter id="e" data-name="drop-shadow-2" filterUnits="userSpaceOnUse">
      <feOffset dx="4" dy="4"/>
      <feGaussianBlur result="f" stdDeviation="6"/>
      <feFlood flood-color="#000" flood-opacity=".75"/>
      <feComposite in2="f" operator="in"/>
      <feComposite in="SourceGraphic"/>
    </filter>
    <linearGradient id="g" x1="93.58" y1="121.62" x2="143.51" y2="192.93" gradientUnits="userSpaceOnUse">
      <stop offset="0" stop-color="#000"/>
      <stop offset=".05" stop-color="#060606"/>
      <stop offset=".11" stop-color="#171717"/>
      <stop offset=".18" stop-color="#343434"/>
      <stop offset=".26" stop-color="#5b5b5b"/>
      <stop offset=".34" stop-color="#8e8e8e"/>
      <stop offset=".43" stop-color="#ccc"/>
      <stop offset=".5" stop-color="#fff"/>
      <stop offset=".59" stop-color="#fff"/>
      <stop offset=".61" stop-color="#fff"/>
      <stop offset=".75" stop-color="#fff"/>
      <stop offset=".78" stop-color="#fff"/>
      <stop offset=".8" stop-color="#d6d6d6"/>
      <stop offset=".86" stop-color="#8b8b8b"/>
      <stop offset=".91" stop-color="#4f4f4f"/>
      <stop offset=".95" stop-color="#242424"/>
      <stop offset=".98" stop-color="#090909"/>
      <stop offset="1" stop-color="#000"/>
    </linearGradient>
    <linearGradient id="h" x1="194.93" y1="101.42" x2="194.93" y2="130.76" gradientUnits="userSpaceOnUse">
      <stop offset="0" stop-color="#000"/>
      <stop offset=".06" stop-color="#020202"/>
      <stop offset=".09" stop-color="#090909"/>
      <stop offset=".11" stop-color="#151515"/>
      <stop offset=".12" stop-color="#272727"/>
      <stop offset=".14" stop-color="#3f3f3f"/>
      <stop offset=".15" stop-color="#5b5b5b"/>
      <stop offset=".16" stop-color="#7e7e7e"/>
      <stop offset=".17" stop-color="#a5a5a5"/>
      <stop offset=".18" stop-color="#d1d1d1"/>
      <stop offset=".19" stop-color="#fff"/>
      <stop offset=".4" stop-color="#000"/>
      <stop offset=".45" stop-color="#070707"/>
      <stop offset=".53" stop-color="#1d1d1d"/>
      <stop offset=".63" stop-color="#404040"/>
      <stop offset=".74" stop-color="#727272"/>
      <stop offset=".86" stop-color="#b0b0b0"/>
      <stop offset="1" stop-color="#fcfcfc"/>
      <stop offset="1" stop-color="#fff"/>
    </linearGradient>
  </defs>
  <g id="a" data-name="PreFinal">
    <g>
      <polygon class="n" points="60.38 25 95.98 86 123.62 86 159.21 25 60.38 25"/>
      <path class="y" d="M162.03,22h0s-.03,0-.03,0H57c-1.66,0-3,1.34-3,3s1.34,3,3,3h4.07l33.95,58h29.54l33.95-58h3.48c1.66,0,3-1.34,3-3s-1.33-2.98-2.97-3ZM122.67,83h-25.74l-31.98-55h89.7l-31.98,55Z"/>
      <g>
        <polygon class="aa" points="63.05 143 98.64 205 126.28 205 161.88 143 63.05 143"/>
        <path class="r" d="M127.23,205h-29.54l-37.47-66h104.47l-37.47,66ZM99.59,201h25.74l33.72-58h-93.19l33.72,58Z"/>
      </g>
      <g>
        <rect class="z" x="164.29" y="101.42" width="61.27" height="29.34"/>
        <path class="x" d="M112.72,63.61c-26.87,0-48.65,21.79-48.65,48.66s21.78,48.66,48.65,48.66,48.66-21.78,48.66-48.66-21.79-48.66-48.66-48.66Z"/>
        <path class="r" d="M168.66,130c1.92-5,2.96-11.36,2.96-17.82,0-3.71-.34-7.18-1-10.18h55.38v-8h-57.33c-7.75-23-29.86-40.54-55.95-40.54-32.53,0-58.9,26.32-58.9,58.85,0,32.53,26.37,58.69,58.9,58.69,23.16,0,43.19-13.01,52.82-33.01h60.46v-8h-57.34ZM112.72,160.93c-26.87,0-48.65-21.78-48.65-48.66s21.78-48.66,48.65-48.66,48.66,21.79,48.66,48.66-21.79,48.66-48.66,48.66Z"/>
        <path class="w" d="M188.27,137.46c2.22-.33,3.85,4.68,4.7,5.88,1.69,2.37,4.99,6.04,9.57,4.53,3.51-1.15,6.32-5.38,8.14-9.5h3.79c-2.29,5.88-7.49,15.62-16.8,13.03-3.41-.95-6.32-3.79-8.23-6.72-.87-1.34-4.31-6.75-1.17-7.22Z"/>
        <path class="w" d="M176.52,108.92c2.62-.88,4.16,3.9,6.04,4.53.33-7.55,1.36-13.43,3.53-19.3,2.29-6.2,6.88-14.91,15.61-13.94,5.96.66,10.35,7.21,12.76,13.26.04.11.09.23.13.34h-3.8c-1.84-4.24-4.68-8.55-8.08-9.74-1.88-.66-4.21-.18-5.71.67-4.19,2.4-6.23,6.94-7.89,11.75-1.72,4.98-2.66,10.66-3.02,16.62,2.58-.87,2.83-4.78,5.7-4.36.75.11,1.44,1.04,1.51,1.51.27,1.87-2.7,3.71-4.03,5.03-1.57,1.57-3.17,4.14-4.87,4.2-2.06.07-5.86-5.02-7.39-6.55-1.03-1.03-2.83-3.26-.5-4.03Z"/>
      </g>
    </g>
  </g>
  <g id="i" data-name="Ingredients">
    <polygon class="m" points="76.54 121.31 78.85 119.32 79.03 122.37 81.64 123.95 78.8 125.06 78.1 128.03 76.16 125.67 73.12 125.93 74.77 123.35 73.59 120.54 76.54 121.31"/>
    <polygon class="r" points="126.53 144.63 129.23 143.21 128.71 146.21 130.9 148.35 127.88 148.79 126.53 151.52 125.18 148.79 122.15 148.35 124.34 146.21 123.83 143.21 126.53 144.63"/>
    <polygon class="ab" points="138.26 79.77 141.25 79.14 139.94 81.89 141.46 84.54 138.44 84.14 136.39 86.41 135.83 83.41 133.04 82.17 135.73 80.71 136.05 77.67 138.26 79.77"/>
    <path class="u" d="M139.45,136.3c0,.95-.77,1.72-1.72,1.72s-1.72-.77-1.72-1.72.77-1.72,1.72-1.72,1.72.77,1.72,1.72Z"/>
    <path class="q" d="M102.07,80.13c0,.95-.77,1.72-1.72,1.72s-1.72-.77-1.72-1.72.77-1.72,1.72-1.72,1.72.77,1.72,1.72Z"/>
    <rect class="p" x="78.97" y="83.21" width="4.8" height="4.8" transform="translate(-36.7 82.6) rotate(-45)"/>
    <polygon class="ab" points="72.84 99.97 74.27 97.8 75.12 100.25 77.63 100.94 75.55 102.51 75.67 105.11 73.54 103.63 71.11 104.54 71.86 102.05 70.24 100.02 72.84 99.97"/>
    <polygon class="t" points="120.33 81.62 122.31 80.58 121.93 82.78 123.54 84.34 121.32 84.66 120.33 86.67 119.34 84.66 117.13 84.34 118.73 82.78 118.35 80.58 120.33 81.62"/>
    <path class="v" d="M88.88,94.34c0,.95-.77,1.72-1.72,1.72s-1.72-.77-1.72-1.72.77-1.72,1.72-1.72,1.72.77,1.72,1.72Z"/>
    <path class="u" d="M104.47,142.71c0,.95-.77,1.72-1.72,1.72s-1.72-.77-1.72-1.72.77-1.72,1.72-1.72,1.72.77,1.72,1.72Z"/>
    <path class="u" d="M82.88,110.33c0,.95-.77,1.72-1.72,1.72s-1.72-.77-1.72-1.72.77-1.72,1.72-1.72,1.72.77,1.72,1.72Z"/>
    <rect class="p" x="147.52" y="126" width="4.8" height="4.8" transform="translate(-46.88 143.62) rotate(-45)"/>
    <g id="j" data-name="Valve Close">
      <g>
        <path class="s" d="M112.48,193.2c-5.07,0-9.18-4.11-9.18-9.18s4.11-9.18,9.18-9.18,9.18,4.11,9.18,9.18-4.11,9.18-9.18,9.18Z"/>
        <path class="o" d="M122.01,184.02c0,5.26-4.28,9.53-9.53,9.53s-9.53-4.28-9.53-9.53,4.28-9.53,9.53-9.53,9.53,4.28,9.53,9.53ZM103.64,184.02c0,4.87,3.96,8.83,8.84,8.83s8.84-3.96,8.84-8.83-3.96-8.84-8.84-8.84-8.84,3.96-8.84,8.84Z"/>
      </g>
      <path class="l" d="M117.9,186.33c.78,0,1.41-.97,1.41-1.75s-.63-1.51-1.41-1.51c-.04,0-.08-.08-.12-.08h-11.79v4h11.79s.08-.67.12-.67Z"/>
    </g>
    <g id="k" data-name="Valve Close">
      <g>
        <path class="s" d="M112.48,50.65c-5.32,0-9.64-4.31-9.64-9.64s4.31-9.64,9.64-9.64,9.63,4.31,9.63,9.64-4.31,9.64-9.63,9.64Z"/>
        <path class="o" d="M122.47,41.02c0,5.51-4.49,10-10,10s-10-4.49-10-10,4.49-10,10-10,10,4.49,10,10ZM103.2,41.02c0,5.11,4.16,9.27,9.27,9.27s9.27-4.16,9.27-9.27-4.16-9.27-9.27-9.27-9.27,4.16-9.27,9.27Z"/>
      </g>
      <path class="l" d="M118.17,43.38c.82,0,1.48-.98,1.48-1.8s-.67-1.54-1.48-1.54c-.04,0-.08-.04-.12-.04h-13.05v4h13.05s.08-.62.12-.62Z"/>
    </g>
  </g>
</svg>