<?xml version="1.0" encoding="UTF-8"?>
<svg id="b" data-name="Ingredients" xmlns="http://www.w3.org/2000/svg" width="226" height="226" viewBox="0 0 226 226">
  <defs>
    <style>
      .d {
        fill: #da0000;
      }

      .d, .e, .f {
        stroke-width: 0px;
      }

      .e {
        fill: #979797;
      }

      .f {
        fill: #e4e4e4;
      }
    </style>
  </defs>
  <g id="c" data-name="Valve Close">
    <g>
      <path class="f" d="M121.66,184.02c0,5.07-4.11,9.18-9.18,9.18s-9.18-4.11-9.18-9.18,4.11-9.18,9.18-9.18,9.18,4.11,9.18,9.18Z"/>
      <path class="e" d="M112.47,174.49c5.26,0,9.53,4.28,9.53,9.53s-4.28,9.53-9.53,9.53-9.53-4.28-9.53-9.53,4.28-9.53,9.53-9.53ZM112.47,192.85c4.87,0,8.84-3.96,8.84-8.84s-3.96-8.84-8.83-8.84-8.84,3.96-8.84,8.84,3.96,8.84,8.83,8.84Z"/>
    </g>
    <path class="d" d="M114.79,178.59c0-.78-.97-1.41-1.75-1.41s-1.51.63-1.51,1.41c0,.04-.08.08-.08.12v11.79s3,0,3,0v-11.79c1-.04.33-.08.33-.12Z"/>
  </g>
</svg>