<?xml version="1.0" encoding="UTF-8"?>
<svg id="b" data-name="Ingredients" xmlns="http://www.w3.org/2000/svg" width="226" height="226" viewBox="0 0 226 226">
  <defs>
    <style>
      .d {
        fill: #da0000;
      }

      .d, .e, .f {
        stroke-width: 0px;
      }

      .e {
        fill: #979797;
      }

      .f {
        fill: #e4e4e4;
      }
    </style>
  </defs>
  <g id="c" data-name="Valve Close">
    <g>
      <path class="f" d="M112.48,193.2c-5.07,0-9.18-4.11-9.18-9.18s4.11-9.18,9.18-9.18,9.18,4.11,9.18,9.18-4.11,9.18-9.18,9.18Z"/>
      <path class="e" d="M122.01,184.02c0,5.26-4.28,9.53-9.53,9.53s-9.53-4.28-9.53-9.53,4.28-9.53,9.53-9.53,9.53,4.28,9.53,9.53ZM103.64,184.02c0,4.87,3.96,8.83,8.84,8.83s8.84-3.96,8.84-8.83-3.96-8.84-8.84-8.84-8.84,3.96-8.84,8.84Z"/>
    </g>
    <path class="d" d="M117.9,186.33c.78,0,1.41-.97,1.41-1.75s-.63-1.51-1.41-1.51c-.04,0-.08-.08-.12-.08h-11.79v4h11.79s.08-.67.12-.67Z"/>
  </g>
</svg>