<?xml version="1.0" encoding="UTF-8"?>
<svg id="a" data-name="Portioner" xmlns="http://www.w3.org/2000/svg" width="267.25" height="355.36" viewBox="0 0 267.25 355.36">
  <defs>
    <style>
      .c {
        fill: #8fff3c;
      }

      .c, .d {
        stroke-width: 0px;
      }

      .d {
        fill: #000;
      }
    </style>
  </defs>
  <g>
    <polygon class="c" points="92.25 274 92.25 260 80.25 260 80.25 274 71.82 274 88.07 291.71 104.33 274 92.25 274"/>
    <path class="d" d="M88.07,293.13l-18.48-20.13h10.65v-14h14v14h12.3l-18.47,20.13ZM74.04,274l14.04,15.29,14.04-15.29h-9.86v-14h-10v14h-8.21Z"/>
  </g>
  <g>
    <polygon class="c" points="195.25 274 195.25 260 183.25 260 183.25 274 175.17 274 191.43 291.71 207.69 274 195.25 274"/>
    <path class="d" d="M191.43,293.13l-18.48-20.13h10.29v-14h14v14h12.66l-18.47,20.13ZM177.39,274l14.04,15.29,14.04-15.29h-10.22v-14h-10v14h-7.86Z"/>
  </g>
  <g>
    <polygon class="c" points="142.25 274 142.25 260 131.25 260 131.25 274 122.52 274 138.78 291.71 155.03 274 142.25 274"/>
    <path class="d" d="M138.78,293.13l-18.47-20.13h10.95v-14h13v14h13l-18.47,20.13ZM124.74,274l14.04,15.29,14.04-15.29h-10.56v-14h-9v14h-8.51Z"/>
  </g>
</svg>