<?xml version="1.0" encoding="UTF-8"?>
<svg id="a" data-name="Hopper-1" xmlns="http://www.w3.org/2000/svg" width="398.97" height="490" xmlns:xlink="http://www.w3.org/1999/xlink" viewBox="0 0 398.97 490">
  <defs>
    <style>
      .bg, .bh, .bi {
        fill: #a67c52;
        fill-rule: evenodd;
      }

      .bg, .bj, .bk, .bl {
        stroke-width: 0px;
      }

      .bh, .bm, .bn, .bo, .bp, .bq, .bi, .br, .bs, .bt {
        stroke-miterlimit: 10;
      }

      .bh, .bp {
        stroke: #754c24;
      }

      .bm {
        fill: url(#f);
        filter: url(#g);
      }

      .bm, .br {
        stroke: red;
      }

      .bu {
        filter: url(#ao);
      }

      .bn {
        fill: url(#t);
        filter: url(#u);
      }

      .bn, .bo, .bq, .bi, .bs, .bt {
        stroke: #8c6239;
      }

      .bo {
        fill: url(#m);
        filter: url(#n);
      }

      .bp, .br, .bl {
        fill: #fff;
      }

      .bv {
        font-family: MyriadPro-Regular, 'Myriad Pro';
        font-size: 12px;
      }

      .bv, .bj {
        fill: #000;
      }

      .bq {
        fill: url(#as);
      }

      .bj {
        filter: url(#be);
      }

      .bk {
        fill: url(#b);
      }

      .bl {
        filter: url(#bc);
      }

      .bs {
        fill: url(#ai);
        filter: url(#aj);
      }

      .bt {
        fill: url(#ab);
        filter: url(#ac);
      }
    </style>
    <linearGradient id="b" x1="170.93" y1="281.1" x2="69.25" y2="109.59" gradientUnits="userSpaceOnUse">
      <stop offset=".18" stop-color="#fff"/>
      <stop offset=".67" stop-color="#dffffc"/>
      <stop offset=".99" stop-color="#c9fffa"/>
    </linearGradient>
    <linearGradient id="f" x1="64.5" y1="352.61" x2="248.74" y2="352.61" gradientUnits="userSpaceOnUse">
      <stop offset="0" stop-color="#9e005d"/>
      <stop offset=".05" stop-color="#b60045"/>
      <stop offset=".16" stop-color="#dd001f"/>
      <stop offset=".24" stop-color="#f60008"/>
      <stop offset=".28" stop-color="red"/>
      <stop offset=".29" stop-color="#fe0404"/>
      <stop offset=".37" stop-color="#f46363"/>
      <stop offset=".44" stop-color="#ecaaaa"/>
      <stop offset=".48" stop-color="#e7d5d5"/>
      <stop offset=".51" stop-color="#e6e6e6"/>
      <stop offset=".54" stop-color="#e5dadb"/>
      <stop offset=".59" stop-color="#e5babf"/>
      <stop offset=".65" stop-color="#e58792"/>
      <stop offset=".73" stop-color="#e44154"/>
      <stop offset=".8" stop-color="#e4001a"/>
      <stop offset="1" stop-color="#9e005d"/>
    </linearGradient>
    <filter id="g" data-name="drop-shadow-1" filterUnits="userSpaceOnUse">
      <feOffset dx="0" dy="-3"/>
      <feGaussianBlur result="h" stdDeviation="4"/>
      <feFlood flood-color="#000" flood-opacity=".75"/>
      <feComposite in2="h" operator="in"/>
      <feComposite in="SourceGraphic"/>
    </filter>
    <linearGradient id="m" x1="64.92" y1="339.82" x2="249" y2="339.82" gradientUnits="userSpaceOnUse">
      <stop offset="0" stop-color="#603813"/>
      <stop offset=".02" stop-color="rgba(106, 65, 28, 1)" stop-opacity="1"/>
      <stop offset=".08" stop-color="rgba(132, 91, 51, .98)" stop-opacity=".98"/>
      <stop offset=".15" stop-color="rgba(151, 109, 68, .98)" stop-opacity=".98"/>
      <stop offset=".22" stop-color="rgba(162, 120, 78, .97)" stop-opacity=".97"/>
      <stop offset=".31" stop-color="#a67c52" stop-opacity=".97"/>
      <stop offset=".48" stop-color="#c69c6d"/>
      <stop offset=".68" stop-color="#c69c6d"/>
      <stop offset=".74" stop-color="#c19768"/>
      <stop offset=".81" stop-color="#b3895c"/>
      <stop offset=".88" stop-color="#9c7348"/>
      <stop offset=".95" stop-color="#7c532c"/>
      <stop offset="1" stop-color="#603813"/>
    </linearGradient>
    <filter id="n" data-name="drop-shadow-2" filterUnits="userSpaceOnUse">
      <feOffset dx="0" dy="-3"/>
      <feGaussianBlur result="o" stdDeviation="4"/>
      <feFlood flood-color="#000" flood-opacity=".75"/>
      <feComposite in2="o" operator="in"/>
      <feComposite in="SourceGraphic"/>
    </filter>
    <linearGradient id="t" y1="327.32" y2="327.32" xlink:href="#m"/>
    <filter id="u" data-name="drop-shadow-3" filterUnits="userSpaceOnUse">
      <feOffset dx="0" dy="-3"/>
      <feGaussianBlur result="v" stdDeviation="4"/>
      <feFlood flood-color="#000" flood-opacity=".75"/>
      <feComposite in2="v" operator="in"/>
      <feComposite in="SourceGraphic"/>
    </filter>
    <linearGradient id="ab" x1="64.5" y1="315.11" x2="248.74" y2="315.11" xlink:href="#m"/>
    <filter id="ac" data-name="drop-shadow-4" filterUnits="userSpaceOnUse">
      <feOffset dx="0" dy="-3"/>
      <feGaussianBlur result="ad" stdDeviation="4"/>
      <feFlood flood-color="#000" flood-opacity=".75"/>
      <feComposite in2="ad" operator="in"/>
      <feComposite in="SourceGraphic"/>
    </filter>
    <linearGradient id="ai" x1="64.5" y1="302.61" x2="248.74" y2="302.61" xlink:href="#m"/>
    <filter id="aj" data-name="drop-shadow-5" filterUnits="userSpaceOnUse">
      <feOffset dx="0" dy="-3"/>
      <feGaussianBlur result="ak" stdDeviation="4"/>
      <feFlood flood-color="#000" flood-opacity=".75"/>
      <feComposite in2="ak" operator="in"/>
      <feComposite in="SourceGraphic"/>
    </filter>
    <filter id="ao" data-name="drop-shadow-6" filterUnits="userSpaceOnUse">
      <feOffset dx="0" dy="-3"/>
      <feGaussianBlur result="ap" stdDeviation="4"/>
      <feFlood flood-color="#000" flood-opacity=".75"/>
      <feComposite in2="ap" operator="in"/>
      <feComposite in="SourceGraphic"/>
    </filter>
    <linearGradient id="as" x1="64.5" y1="289.37" x2="248.74" y2="289.37" xlink:href="#m"/>
    <filter id="bc" data-name="drop-shadow-7" filterUnits="userSpaceOnUse">
      <feOffset dx="3" dy="3"/>
      <feGaussianBlur result="bd" stdDeviation="5"/>
      <feFlood flood-color="#494949" flood-opacity=".75"/>
      <feComposite in2="bd" operator="in"/>
      <feComposite in="SourceGraphic"/>
    </filter>
    <filter id="be" data-name="drop-shadow-8" filterUnits="userSpaceOnUse">
      <feOffset dx="3" dy="3"/>
      <feGaussianBlur result="bf" stdDeviation="5"/>
      <feFlood flood-color="#494949" flood-opacity=".75"/>
      <feComposite in2="bf" operator="in"/>
      <feComposite in="SourceGraphic"/>
    </filter>
  </defs>
  <path id="c" data-name="Lights On" class="bk" d="M150,396h-12.87c2.99-26-20.84-25.89-32.71-37.16,7.82.08,12.42.16,14.14.12l-.13-12.96h-53.43v-70h36v-12.21l-36-30.65v-36.72c0-1.05.02-1.45,0-3.42h36v-11.74l-36-30.65v-35.98c0-1.05-1.95-1.63-1.11-1.63h23.11v-13.19c-6,.01-12.11.03-18.23.09,27.56-15.72,57.31-29.31,85.67-44.21,31.41,12.53,59.39,29.31,89.2,43.47-5.42.16-10.63.28-15.63.39v13.45h21v37.61l-36,30.65v11.74h36v40.14l-36,30.65v12.21h15.64c3.76,0,4.98,0,4.93,0h15.42v70h-54v12.23c4,0,8.48.05,12.9-.01-10.76,12.65-36.31,8.78-33.06,37.78h-24.84ZM65,359h12v48h-12v-48ZM249,407h-14v-48h14v48Z"/>
  <g id="d" data-name="20">
    <g id="e" data-name="Level">
      <path id="i" data-name="20" class="bm" d="M248.69,323.5h.06c-.04-3-.06-3.41-.06-3.41,0-12.39-10.83,4.23-12.91-6.97-6.8-4.37-8.17-.82-13.02-.06l-12.06,5.8c-3.31-.17-19.72-.49-15.3-.63-29.81-14.17-6.96,5.36-38.38-7.17-28.36,14.9-5.49-13.06-33.04,2.66,5.4-.05-17.51,2.47-18.75,3.05l-15.93-2.53c-7.84,0-4.52-2-11.49.79-.78.31.74,9.15-3.95,0-5.42-10.57-8.5-7.12-8.5,4.82,0,0-.02.64-.04,3.64h.04s-.59,3.46-.59,5.6c-.18.28-.25.08-.25.23v21.17h53.92l-1.05,7.04c-1.72.04-2.71-.91-3.94-.88.3-.08-4.32,2.09-12.14,2.01,11.87,11.08,38.83,11.83,35.84,37.83h37.71c-3.25-29,23.72-26.26,34.48-38.69-4.41.06-10.81-1.13-14.81-1.12v-6.19h54v-21.65c0-3.83.22-5.35.19-5.35Z"/>
      <g id="j" data-name="Label Qty">
        <path class="br" d="M193.74,320.07c0-4.32,3.5-7.82,7.82-7.82s7.82,3.5,7.82,7.82-3.5,7.82-7.82,7.82-7.82-3.5-7.82-7.82Z"/>
        <text id="k" data-name="30" class="bv" transform="translate(195.41 324.2)"><tspan x="0" y="0">20</tspan></text>
      </g>
    </g>
  </g>
  <g id="l" data-name="30">
    <path class="bo" d="M248.69,298h.06c-.04-2.13-.06-3.16-.06-3.16,0-12.39-12.91,4.16-12.91-6.84-1.85-3.03-4.07-3.54-13.02,0l-12.06,5.83c-3.31-.17-19.72-.48-15.3-.61-29.81-14.17-6.96,5.36-38.38-7.17-28.36,14.9-5.49-13.05-33.04,2.66,5.4-.04-17.51,2.47-18.75,3.06l-15.93-2.53c-7.84,0-3.33-3.42-11.49.79-.75.39.74,9.15-3.95,0-5.42-10.57-8.5-7.37-8.5,4.57,0,0-.02,1.26-.04,3.39h.04c-.04.95-.34,7.13-.34,11.25-.18.54,0,.64,0,.92v40.83h52.87l-.03,7.04c-1.74.04-3.21.25-4.46.29.3-.08-1.77-.16-9.7-.24,12.04,11.5,36.2,11.91,33.17,37.91h38.24c-3.29-30,22.84-25.64,33.75-38.55-4.47.06-8.86.03-12.86.04v-6.49h53v-41.75c0-7.36-.28-10.78-.31-11.25Z"/>
    <g id="p" data-name="Level">
      <g id="q" data-name="Label Qty">
        <path class="bp" d="M193.74,295.07c0-4.32,3.5-7.82,7.82-7.82s7.82,3.5,7.82,7.82-3.5,7.82-7.82,7.82-7.82-3.5-7.82-7.82Z"/>
        <text id="r" data-name="30" class="bv" transform="translate(195.41 299.2)"><tspan x="0" y="0">30</tspan></text>
      </g>
    </g>
  </g>
  <g id="s" data-name="40">
    <path class="bn" d="M248.69,273h.06c-.04-2.13-.06-3.16-.06-3.16,0-12.39-12.91,4.16-12.91-6.84h-13.02l-12.06,5.83c-3.31-.17-19.72-.48-15.3-.61-29.81-14.17-6.96,5.36-38.38-7.17-28.36,14.9-5.49-13.05-33.04,2.66,5.4-.04-17.51,2.47-18.75,3.06l-15.93-2.53c-7.84,0-3.65.79-11.49.79-.85,0,.74,9.15-3.95,0-5.42-10.57-8.5-7.37-8.5,4.57,0,0-.02,1.26-.04,3.39h.04c-.04,1.4-.34,10.53-.34,16.61-.18.79,0,.95,0,1.36v60.03h52.87l-.03,7.04c-1.74.04-3.21.25-4.46.29.3-.08-1.77-.16-9.7-.24,12.04,11.5,36.2,11.91,33.17,37.91h38.24c-3.29-30,22.84-25.64,33.75-38.55-4.47.06-8.86.03-12.86.04v-6.49h53v-61.39c0-10.86-.28-15.92-.31-16.61Z"/>
    <g id="w" data-name="Level">
      <g id="x" data-name="Label Qty">
        <path class="bp" d="M193.74,270.07c0-4.32,3.5-7.82,7.82-7.82s7.82,3.5,7.82,7.82-3.5,7.82-7.82,7.82-7.82-3.5-7.82-7.82Z"/>
        <text id="y" data-name="40" class="bv" transform="translate(195.41 274.2)"><tspan x="0" y="0">40</tspan></text>
      </g>
    </g>
  </g>
  <g id="z" data-name="50">
    <g id="aa" data-name="Level">
      <path class="bt" d="M248.69,248.5h.06c-.04-3-.06-3.41-.06-3.41,0-12.39-12.91,4.03-12.91-6.97-7.65-3.5-9.87-1.73-13.02-.06l-12.06,5.8c-3.31-.17-19.72-.49-15.3-.63-29.81-14.17-6.96,5.36-38.38-7.17-28.36,14.9-5.49-13.06-33.04,2.66,5.4-.05-17.51,2.47-18.75,3.05l-15.93-2.53c-7.84,0-3.67-4.75-11.49.79-.69.49.74,9.15-3.95,0-5.42-10.57-8.5-7.12-8.5,4.82,0,0-.02.64-.04,3.64h.04c-.04,1-.59,13.67-.59,21.69-.18,1.05-.25,1-.25,1.55v79.76h53.37l-.03,6.79c-1.74.04-3.21.13-4.46.16.3-.08-1.77.03-9.7-.05,12.04,11.5,36.2,12.1,33.17,38.1h38.24c-3.29-30,22.59-25.89,33.5-38.8-4.47.06-9.11-.22-13.11-.21v-5.99h53v-81.55c0-14.36.22-21.45.19-21.45Z"/>
      <g id="ae" data-name="Label Qty">
        <circle class="bp" cx="201.56" cy="245.07" r="7.82"/>
        <text id="af" data-name="50" class="bv" transform="translate(195.41 249.2)"><tspan x="0" y="0">50</tspan></text>
      </g>
    </g>
  </g>
  <g id="ag" data-name="60">
    <g id="ah" data-name="Level">
      <path id="al" data-name="60" class="bs" d="M248.69,223.5h.06c-.04-3-.06-3.41-.06-3.41,0-12.39-12.91,4.03-12.91-6.97-.49-3.12-3.39-3.52-13.02-.06l-12.06,5.8c-3.31-.17-19.72-.49-15.3-.63-29.81-14.17-6.96,5.36-38.38-7.17-28.36,14.9-5.49-13.06-33.04,2.66,5.4-.05-17.51,2.47-18.75,3.05l-15.93-2.53c-7.84,0-7.18-6.14-11.49.79-1.57,2.52.74,9.15-3.95,0-5.42-10.57-8.5-7.12-8.5,4.82,0,0-.02.64-.04,3.64h.04c-.04,2-.59,17.13-.59,27.15-.18,1.3-.25,1.31-.25,1.99v98.85h53.37l-.03,6.79c-1.74.04-3.21.13-4.46.16.3-.08-1.77.03-9.7-.05,12.04,11.5,36.2,12.1,33.17,38.1h38.24c-3.29-30,22.59-25.89,33.5-38.8-4.47.06-9.11-.22-13.11-.21v-5.99h53v-101.09c0-17.93.22-25.91.19-26.91Z"/>
      <g id="am" data-name="Label Qty">
        <circle class="bp" cx="201.56" cy="220.07" r="7.82"/>
        <text id="an" data-name="60" class="bv" transform="translate(195.41 224.2)"><tspan x="0" y="0">60</tspan></text>
      </g>
    </g>
  </g>
  <g id="aq" data-name="70" class="bu">
    <g id="ar" data-name="Level">
      <path class="bq" d="M248.69,198.5h.06c-.04-3-.06-3.16-.06-3.16,0-12.39-12.91,4.16-12.91-6.84h-13.02l-12.06,5.58c-3.31-.17-19.72-.6-15.3-.73-29.81-14.17-6.96,5.3-38.38-7.23-28.36,14.9-5.49-13.09-33.04,2.63,5.4-.05-17.51,2.46-18.75,3.04l-15.93-2.53c-7.84,0-3.65.79-11.49.79-.85,0,.44,6.96-4.25-2.19-5.42-10.57-8.8-5.01-8.8,6.93,0,0,.74,1.07-.26,3.21v150.52h53.38l-.04,9.79c-1.74.04-3.21.13-4.46.16.3-.08-1.77.03-9.7-.05,12.04,11.5,36.2,12.1,33.17,38.1h38.24c-3.29-30,22.59-25.89,33.5-38.8-4.47.06-9.11-.22-13.11-.21v-8.99h53v-118.16c0-21.15.22-30.84.19-31.84Z"/>
      <g id="at" data-name="Label Qty">
        <circle class="bp" cx="201.56" cy="195.07" r="7.82"/>
        <text id="au" data-name="70" class="bv" transform="translate(195.41 199.2)"><tspan x="0" y="0">70</tspan></text>
      </g>
    </g>
  </g>
  <g id="av" data-name="Flow">
    <polygon id="aw" data-name="flow8" class="bh" points="159.13 404.18 152.83 403.04 154.02 396.26 160.32 397.4 159.13 404.18"/>
    <polygon id="ax" data-name="flow7" class="bi" points="159.69 410.94 153.75 410.34 154.34 404.31 160.28 404.91 159.69 410.94"/>
    <polygon id="ay" data-name="flow6" class="bg" points="156.71 417.52 151.92 416.74 152.68 411.88 157.47 412.65 156.71 417.52"/>
    <polygon id="az" data-name="flow5" class="bg" points="163.09 420.69 158.08 423.22 155.59 418.14 160.59 415.6 163.09 420.69"/>
    <polygon id="ba" data-name="flow4" class="bg" points="159.8 434.37 153.62 433.74 154.24 427.47 160.41 428.09 159.8 434.37"/>
    <polygon id="bb" data-name="flow3" class="bg" points="157.09 447.35 151.39 446.43 152.3 440.63 158.01 441.55 157.09 447.35"/>
  </g>
  <path class="bl" d="M249,407h-14v-48h14v48Z"/>
  <path class="bj" d="M124.8,386.27c-2.06,17.29,4.25,20.78,18.25,21.45v42.28h7v-54h-12.87c2.99-26-20.84-25.89-32.71-37.16,7.82.08,12.42.16,14.14.12l-.13-12.96h-53.43v-70h36v-12.21l-36-30.65v-36.72c0-1.05.02-1.45,0-3.42h36v-11.74l-36-30.65v-35.98c0-1.05-1.95-1.63-1.11-1.63h23.11v-13.19c-6,.01-12.11.03-18.23.09,27.56-15.72,57.31-29.31,85.67-44.21,31.41,12.53,59.39,29.31,89.2,43.47-5.42.16-10.63.28-15.63.39v13.45h21v37.61l-36,30.65v11.74h36v40.14l-36,30.65v12.21h15.64c3.76,0,4.98,0,4.93,0h15.42v70h-54v12.23c4,0,8.48.05,12.9-.01-10.76,12.65-36.31,8.78-33.06,37.78h-10.84v54h7v-42.54c12-1.17,19.45-5.5,16.19-21.67,12.59-6.61,25.03-18.01,36.96-22.83.33,14.29.38,57.05.38,57.05h35.68s-.22-200.37-.22-282.53c0-14.72.12-31.76-.89-39.79-.96-7.65-8.45-9.18-22.92-16.05-27.45-13.04-49.58-25.63-76.58-39.63h-7.25c-23.66,12-51.52,26.53-77.59,39.63-9,4.53-19.85,9.62-22.43,15.76-3.02,7.19-.12,300.05-.12,322.07,6.04,0,35.09-.06,35.09-.06,0,0,.81-39.3.52-56.97,12.77,7.41,25.19,15.38,36.93,23.83ZM249.05,407h-14v-48h14v48ZM77.05,407h-12v-48h12v48Z"/>
</svg>