<?xml version="1.0" encoding="UTF-8"?>
<svg id="a" data-name="Hopper-1" xmlns="http://www.w3.org/2000/svg" width="398.97" height="490" xmlns:xlink="http://www.w3.org/1999/xlink" viewBox="0 0 398.97 490">
  <defs>
    <style>
      .cc, .cd, .ce {
        fill: #a67c52;
        fill-rule: evenodd;
      }

      .cc, .cf, .cg, .ch {
        stroke-width: 0px;
      }

      .cd, .ci, .cj, .ck, .cl, .cm, .cn, .co, .ce, .cp, .cq, .cr, .cs {
        stroke-miterlimit: 10;
      }

      .cd, .cl {
        stroke: #754c24;
      }

      .ci {
        fill: url(#f);
        filter: url(#g);
      }

      .ci, .cp {
        stroke: red;
      }

      .ct {
        filter: url(#av);
      }

      .cu {
        filter: url(#ao);
      }

      .cv {
        filter: url(#bl);
      }

      .cj {
        fill: url(#t);
        filter: url(#u);
      }

      .cj, .ck, .cm, .cn, .co, .ce, .cq, .cr, .cs {
        stroke: #8c6239;
      }

      .ck {
        fill: url(#m);
        filter: url(#n);
      }

      .cl, .cp, .ch {
        fill: #fff;
      }

      .cw {
        font-family: MyriadPro-Regular, 'Myriad Pro';
        font-size: 12px;
      }

      .cw, .cf {
        fill: #000;
      }

      .cm {
        fill: url(#ay);
      }

      .cn {
        fill: url(#bp);
      }

      .co {
        fill: url(#as);
      }

      .cf {
        filter: url(#ca);
      }

      .cg {
        fill: url(#b);
      }

      .ch {
        filter: url(#by);
      }

      .cq {
        fill: url(#be);
        filter: url(#bf);
      }

      .cr {
        fill: url(#ai);
        filter: url(#aj);
      }

      .cs {
        fill: url(#ab);
        filter: url(#ac);
      }
    </style>
    <linearGradient id="b" x1="170.93" y1="281.1" x2="69.25" y2="109.59" gradientUnits="userSpaceOnUse">
      <stop offset=".18" stop-color="#fff"/>
      <stop offset=".67" stop-color="#dffffc"/>
      <stop offset=".99" stop-color="#c9fffa"/>
    </linearGradient>
    <linearGradient id="f" x1="64.5" y1="352.61" x2="248.74" y2="352.61" gradientUnits="userSpaceOnUse">
      <stop offset="0" stop-color="#9e005d"/>
      <stop offset=".05" stop-color="#b60045"/>
      <stop offset=".16" stop-color="#dd001f"/>
      <stop offset=".24" stop-color="#f60008"/>
      <stop offset=".28" stop-color="red"/>
      <stop offset=".29" stop-color="#fe0404"/>
      <stop offset=".37" stop-color="#f46363"/>
      <stop offset=".44" stop-color="#ecaaaa"/>
      <stop offset=".48" stop-color="#e7d5d5"/>
      <stop offset=".51" stop-color="#e6e6e6"/>
      <stop offset=".54" stop-color="#e5dadb"/>
      <stop offset=".59" stop-color="#e5babf"/>
      <stop offset=".65" stop-color="#e58792"/>
      <stop offset=".73" stop-color="#e44154"/>
      <stop offset=".8" stop-color="#e4001a"/>
      <stop offset="1" stop-color="#9e005d"/>
    </linearGradient>
    <filter id="g" data-name="drop-shadow-1" filterUnits="userSpaceOnUse">
      <feOffset dx="0" dy="-3"/>
      <feGaussianBlur result="h" stdDeviation="4"/>
      <feFlood flood-color="#000" flood-opacity=".75"/>
      <feComposite in2="h" operator="in"/>
      <feComposite in="SourceGraphic"/>
    </filter>
    <linearGradient id="m" x1="64.92" y1="339.82" x2="249" y2="339.82" gradientUnits="userSpaceOnUse">
      <stop offset="0" stop-color="#603813"/>
      <stop offset=".02" stop-color="rgba(106, 65, 28, 1)" stop-opacity="1"/>
      <stop offset=".08" stop-color="rgba(132, 91, 51, .98)" stop-opacity=".98"/>
      <stop offset=".15" stop-color="rgba(151, 109, 68, .98)" stop-opacity=".98"/>
      <stop offset=".22" stop-color="rgba(162, 120, 78, .97)" stop-opacity=".97"/>
      <stop offset=".31" stop-color="#a67c52" stop-opacity=".97"/>
      <stop offset=".48" stop-color="#c69c6d"/>
      <stop offset=".68" stop-color="#c69c6d"/>
      <stop offset=".74" stop-color="#c19768"/>
      <stop offset=".81" stop-color="#b3895c"/>
      <stop offset=".88" stop-color="#9c7348"/>
      <stop offset=".95" stop-color="#7c532c"/>
      <stop offset="1" stop-color="#603813"/>
    </linearGradient>
    <filter id="n" data-name="drop-shadow-2" filterUnits="userSpaceOnUse">
      <feOffset dx="0" dy="-3"/>
      <feGaussianBlur result="o" stdDeviation="4"/>
      <feFlood flood-color="#000" flood-opacity=".75"/>
      <feComposite in2="o" operator="in"/>
      <feComposite in="SourceGraphic"/>
    </filter>
    <linearGradient id="t" y1="327.32" y2="327.32" xlink:href="#m"/>
    <filter id="u" data-name="drop-shadow-3" filterUnits="userSpaceOnUse">
      <feOffset dx="0" dy="-3"/>
      <feGaussianBlur result="v" stdDeviation="4"/>
      <feFlood flood-color="#000" flood-opacity=".75"/>
      <feComposite in2="v" operator="in"/>
      <feComposite in="SourceGraphic"/>
    </filter>
    <linearGradient id="ab" x1="64.5" y1="315.11" x2="248.74" y2="315.11" xlink:href="#m"/>
    <filter id="ac" data-name="drop-shadow-4" filterUnits="userSpaceOnUse">
      <feOffset dx="0" dy="-3"/>
      <feGaussianBlur result="ad" stdDeviation="4"/>
      <feFlood flood-color="#000" flood-opacity=".75"/>
      <feComposite in2="ad" operator="in"/>
      <feComposite in="SourceGraphic"/>
    </filter>
    <linearGradient id="ai" x1="64.5" y1="302.61" x2="248.74" y2="302.61" xlink:href="#m"/>
    <filter id="aj" data-name="drop-shadow-5" filterUnits="userSpaceOnUse">
      <feOffset dx="0" dy="-3"/>
      <feGaussianBlur result="ak" stdDeviation="4"/>
      <feFlood flood-color="#000" flood-opacity=".75"/>
      <feComposite in2="ak" operator="in"/>
      <feComposite in="SourceGraphic"/>
    </filter>
    <filter id="ao" data-name="drop-shadow-6" filterUnits="userSpaceOnUse">
      <feOffset dx="0" dy="-3"/>
      <feGaussianBlur result="ap" stdDeviation="4"/>
      <feFlood flood-color="#000" flood-opacity=".75"/>
      <feComposite in2="ap" operator="in"/>
      <feComposite in="SourceGraphic"/>
    </filter>
    <linearGradient id="as" x1="64.5" y1="289.37" x2="248.74" y2="289.37" xlink:href="#m"/>
    <filter id="av" data-name="drop-shadow-7" filterUnits="userSpaceOnUse">
      <feOffset dx="0" dy="-3"/>
      <feGaussianBlur result="aw" stdDeviation="4"/>
      <feFlood flood-color="#000" flood-opacity=".75"/>
      <feComposite in2="aw" operator="in"/>
      <feComposite in="SourceGraphic"/>
    </filter>
    <linearGradient id="ay" x1="64.5" y1="277.61" x2="248.74" y2="277.61" xlink:href="#m"/>
    <linearGradient id="be" x1="64.5" y1="265.11" x2="248.74" y2="265.11" xlink:href="#m"/>
    <filter id="bf" data-name="drop-shadow-8" filterUnits="userSpaceOnUse">
      <feOffset dx="0" dy="-3"/>
      <feGaussianBlur result="bg" stdDeviation="4"/>
      <feFlood flood-color="#000" flood-opacity=".75"/>
      <feComposite in2="bg" operator="in"/>
      <feComposite in="SourceGraphic"/>
    </filter>
    <filter id="bl" data-name="drop-shadow-9" filterUnits="userSpaceOnUse">
      <feOffset dx="0" dy="-3"/>
      <feGaussianBlur result="bm" stdDeviation="4"/>
      <feFlood flood-color="#000" flood-opacity=".75"/>
      <feComposite in2="bm" operator="in"/>
      <feComposite in="SourceGraphic"/>
    </filter>
    <linearGradient id="bp" x1="64.5" y1="256.11" x2="248.74" y2="256.11" xlink:href="#m"/>
    <filter id="by" data-name="drop-shadow-10" filterUnits="userSpaceOnUse">
      <feOffset dx="3" dy="3"/>
      <feGaussianBlur result="bz" stdDeviation="5"/>
      <feFlood flood-color="#494949" flood-opacity=".75"/>
      <feComposite in2="bz" operator="in"/>
      <feComposite in="SourceGraphic"/>
    </filter>
    <filter id="ca" data-name="drop-shadow-11" filterUnits="userSpaceOnUse">
      <feOffset dx="3" dy="3"/>
      <feGaussianBlur result="cb" stdDeviation="5"/>
      <feFlood flood-color="#494949" flood-opacity=".75"/>
      <feComposite in2="cb" operator="in"/>
      <feComposite in="SourceGraphic"/>
    </filter>
  </defs>
  <path id="c" data-name="Lights On" class="cg" d="M150,396h-12.87c2.99-26-20.84-25.89-32.71-37.16,7.82.08,12.42.16,14.14.12l-.13-12.96h-53.43v-70h36v-12.21l-36-30.65v-36.72c0-1.05.02-1.45,0-3.42h36v-11.74l-36-30.65v-35.98c0-1.05-1.95-1.63-1.11-1.63h23.11v-13.19c-6,.01-12.11.03-18.23.09,27.56-15.72,57.31-29.31,85.67-44.21,31.41,12.53,59.39,29.31,89.2,43.47-5.42.16-10.63.28-15.63.39v13.45h21v37.61l-36,30.65v11.74h36v40.14l-36,30.65v12.21h15.64c3.76,0,4.98,0,4.93,0h15.42v70h-54v12.23c4,0,8.48.05,12.9-.01-10.76,12.65-36.31,8.78-33.06,37.78h-24.84ZM65,359h12v48h-12v-48ZM249,407h-14v-48h14v48Z"/>
  <g id="d" data-name="20">
    <g id="e" data-name="Level">
      <path id="i" data-name="20" class="ci" d="M248.69,323.5h.06c-.04-3-.06-3.41-.06-3.41,0-12.39-10.83,4.23-12.91-6.97-6.8-4.37-8.17-.82-13.02-.06l-12.06,5.8c-3.31-.17-19.72-.49-15.3-.63-29.81-14.17-6.96,5.36-38.38-7.17-28.36,14.9-5.49-13.06-33.04,2.66,5.4-.05-17.51,2.47-18.75,3.05l-15.93-2.53c-7.84,0-4.52-2-11.49.79-.78.31.74,9.15-3.95,0-5.42-10.57-8.5-7.12-8.5,4.82,0,0-.02.64-.04,3.64h.04s-.59,3.46-.59,5.6c-.18.28-.25.08-.25.23v21.17h53.92l-1.05,7.04c-1.72.04-2.71-.91-3.94-.88.3-.08-4.32,2.09-12.14,2.01,11.87,11.08,38.83,11.83,35.84,37.83h37.71c-3.25-29,23.72-26.26,34.48-38.69-4.41.06-10.81-1.13-14.81-1.12v-6.19h54v-21.65c0-3.83.22-5.35.19-5.35Z"/>
      <g id="j" data-name="Label Qty">
        <path class="cp" d="M193.74,320.07c0-4.32,3.5-7.82,7.82-7.82s7.82,3.5,7.82,7.82-3.5,7.82-7.82,7.82-7.82-3.5-7.82-7.82Z"/>
        <text id="k" data-name="30" class="cw" transform="translate(195.41 324.2)"><tspan x="0" y="0">20</tspan></text>
      </g>
    </g>
  </g>
  <g id="l" data-name="30">
    <path class="ck" d="M248.69,298h.06c-.04-2.13-.06-3.16-.06-3.16,0-12.39-12.91,4.16-12.91-6.84-1.85-3.03-4.07-3.54-13.02,0l-12.06,5.83c-3.31-.17-19.72-.48-15.3-.61-29.81-14.17-6.96,5.36-38.38-7.17-28.36,14.9-5.49-13.05-33.04,2.66,5.4-.04-17.51,2.47-18.75,3.06l-15.93-2.53c-7.84,0-3.33-3.42-11.49.79-.75.39.74,9.15-3.95,0-5.42-10.57-8.5-7.37-8.5,4.57,0,0-.02,1.26-.04,3.39h.04c-.04.95-.34,7.13-.34,11.25-.18.54,0,.64,0,.92v40.83h52.87l-.03,7.04c-1.74.04-3.21.25-4.46.29.3-.08-1.77-.16-9.7-.24,12.04,11.5,36.2,11.91,33.17,37.91h38.24c-3.29-30,22.84-25.64,33.75-38.55-4.47.06-8.86.03-12.86.04v-6.49h53v-41.75c0-7.36-.28-10.78-.31-11.25Z"/>
    <g id="p" data-name="Level">
      <g id="q" data-name="Label Qty">
        <path class="cl" d="M193.74,295.07c0-4.32,3.5-7.82,7.82-7.82s7.82,3.5,7.82,7.82-3.5,7.82-7.82,7.82-7.82-3.5-7.82-7.82Z"/>
        <text id="r" data-name="30" class="cw" transform="translate(195.41 299.2)"><tspan x="0" y="0">30</tspan></text>
      </g>
    </g>
  </g>
  <g id="s" data-name="40">
    <path class="cj" d="M248.69,273h.06c-.04-2.13-.06-3.16-.06-3.16,0-12.39-12.91,4.16-12.91-6.84h-13.02l-12.06,5.83c-3.31-.17-19.72-.48-15.3-.61-29.81-14.17-6.96,5.36-38.38-7.17-28.36,14.9-5.49-13.05-33.04,2.66,5.4-.04-17.51,2.47-18.75,3.06l-15.93-2.53c-7.84,0-3.65.79-11.49.79-.85,0,.74,9.15-3.95,0-5.42-10.57-8.5-7.37-8.5,4.57,0,0-.02,1.26-.04,3.39h.04c-.04,1.4-.34,10.53-.34,16.61-.18.79,0,.95,0,1.36v60.03h52.87l-.03,7.04c-1.74.04-3.21.25-4.46.29.3-.08-1.77-.16-9.7-.24,12.04,11.5,36.2,11.91,33.17,37.91h38.24c-3.29-30,22.84-25.64,33.75-38.55-4.47.06-8.86.03-12.86.04v-6.49h53v-61.39c0-10.86-.28-15.92-.31-16.61Z"/>
    <g id="w" data-name="Level">
      <g id="x" data-name="Label Qty">
        <path class="cl" d="M193.74,270.07c0-4.32,3.5-7.82,7.82-7.82s7.82,3.5,7.82,7.82-3.5,7.82-7.82,7.82-7.82-3.5-7.82-7.82Z"/>
        <text id="y" data-name="40" class="cw" transform="translate(195.41 274.2)"><tspan x="0" y="0">40</tspan></text>
      </g>
    </g>
  </g>
  <g id="z" data-name="50">
    <g id="aa" data-name="Level">
      <path class="cs" d="M248.69,248.5h.06c-.04-3-.06-3.41-.06-3.41,0-12.39-12.91,4.03-12.91-6.97-7.65-3.5-9.87-1.73-13.02-.06l-12.06,5.8c-3.31-.17-19.72-.49-15.3-.63-29.81-14.17-6.96,5.36-38.38-7.17-28.36,14.9-5.49-13.06-33.04,2.66,5.4-.05-17.51,2.47-18.75,3.05l-15.93-2.53c-7.84,0-3.67-4.75-11.49.79-.69.49.74,9.15-3.95,0-5.42-10.57-8.5-7.12-8.5,4.82,0,0-.02.64-.04,3.64h.04c-.04,1-.59,13.67-.59,21.69-.18,1.05-.25,1-.25,1.55v79.76h53.37l-.03,6.79c-1.74.04-3.21.13-4.46.16.3-.08-1.77.03-9.7-.05,12.04,11.5,36.2,12.1,33.17,38.1h38.24c-3.29-30,22.59-25.89,33.5-38.8-4.47.06-9.11-.22-13.11-.21v-5.99h53v-81.55c0-14.36.22-21.45.19-21.45Z"/>
      <g id="ae" data-name="Label Qty">
        <circle class="cl" cx="201.56" cy="245.07" r="7.82"/>
        <text id="af" data-name="50" class="cw" transform="translate(195.41 249.2)"><tspan x="0" y="0">50</tspan></text>
      </g>
    </g>
  </g>
  <g id="ag" data-name="60">
    <g id="ah" data-name="Level">
      <path id="al" data-name="60" class="cr" d="M248.69,223.5h.06c-.04-3-.06-3.41-.06-3.41,0-12.39-12.91,4.03-12.91-6.97-.49-3.12-3.39-3.52-13.02-.06l-12.06,5.8c-3.31-.17-19.72-.49-15.3-.63-29.81-14.17-6.96,5.36-38.38-7.17-28.36,14.9-5.49-13.06-33.04,2.66,5.4-.05-17.51,2.47-18.75,3.05l-15.93-2.53c-7.84,0-7.18-6.14-11.49.79-1.57,2.52.74,9.15-3.95,0-5.42-10.57-8.5-7.12-8.5,4.82,0,0-.02.64-.04,3.64h.04c-.04,2-.59,17.13-.59,27.15-.18,1.3-.25,1.31-.25,1.99v98.85h53.37l-.03,6.79c-1.74.04-3.21.13-4.46.16.3-.08-1.77.03-9.7-.05,12.04,11.5,36.2,12.1,33.17,38.1h38.24c-3.29-30,22.59-25.89,33.5-38.8-4.47.06-9.11-.22-13.11-.21v-5.99h53v-101.09c0-17.93.22-25.91.19-26.91Z"/>
      <g id="am" data-name="Label Qty">
        <circle class="cl" cx="201.56" cy="220.07" r="7.82"/>
        <text id="an" data-name="60" class="cw" transform="translate(195.41 224.2)"><tspan x="0" y="0">60</tspan></text>
      </g>
    </g>
  </g>
  <g id="aq" data-name="70" class="cu">
    <g id="ar" data-name="Level">
      <path class="co" d="M248.69,198.5h.06c-.04-3-.06-3.16-.06-3.16,0-12.39-12.91,4.16-12.91-6.84h-13.02l-12.06,5.58c-3.31-.17-19.72-.6-15.3-.73-29.81-14.17-6.96,5.3-38.38-7.23-28.36,14.9-5.49-13.09-33.04,2.63,5.4-.05-17.51,2.46-18.75,3.04l-15.93-2.53c-7.84,0-3.65.79-11.49.79-.85,0,.44,6.96-4.25-2.19-5.42-10.57-8.8-5.01-8.8,6.93,0,0,.74,1.07-.26,3.21v150.52h53.38l-.04,9.79c-1.74.04-3.21.13-4.46.16.3-.08-1.77.03-9.7-.05,12.04,11.5,36.2,12.1,33.17,38.1h38.24c-3.29-30,22.59-25.89,33.5-38.8-4.47.06-9.11-.22-13.11-.21v-8.99h53v-118.16c0-21.15.22-30.84.19-31.84Z"/>
      <g id="at" data-name="Label Qty">
        <circle class="cl" cx="201.56" cy="195.07" r="7.82"/>
        <text id="au" data-name="70" class="cw" transform="translate(195.41 199.2)"><tspan x="0" y="0">70</tspan></text>
      </g>
    </g>
  </g>
  <g id="ax" data-name="80" class="ct">
    <path class="cm" d="M248.69,173.5h.06c-.04-3-.06-3.16-.06-3.16,0-12.39-12.91,4.16-12.91-6.84h-13.02l-12.06,5.58c-3.31-.17-19.72-.6-15.3-.73-29.81-14.17-6.96,5.3-38.38-7.23-28.36,14.9-5.49-13.09-33.04,2.63,5.4-.05-17.51,2.46-18.75,3.04l-15.93-2.53c-7.84,0-3.65.79-11.49.79-.85,0,.74,9.15-3.95,0-5.42-10.57-8.5-7.12-8.5,4.82,0,0-.02.64-.04,3.64h.04c-.04,3-.59,23.97-.59,37.93-.18,1.82-.25,1.92-.25,2.88v136.2h53.37l-.03,7.79c-1.74.04-3.21.13-4.46.16.3-.08-1.77.03-9.7-.05,12.04,11.5,36.2,12.1,33.17,38.1h38.24c-3.29-30,22.59-25.89,33.5-38.8-4.47.06-9.11-.22-13.11-.21v-6.99h53v-139.3c0-24.98.22-36.7.19-37.7Z"/>
    <g id="az" data-name="Level">
      <g id="ba" data-name="Label Qty">
        <circle class="cl" cx="201.56" cy="170.07" r="7.82"/>
        <text id="bb" data-name="80" class="cw" transform="translate(195.41 174.2)"><tspan x="0" y="0">80</tspan></text>
      </g>
    </g>
  </g>
  <g id="bc" data-name="90">
    <g id="bd" data-name="Level">
      <path id="bh" data-name="90" class="cq" d="M248.69,148.5h.06c-.04-3-.06-3.41-.06-3.41,0-12.39-12.91,4.03-12.91-6.97-1-2.87-4.75-4.43-13.02-.06l-12.06,5.8c-3.31-.17-19.72-.49-15.3-.63-29.81-14.17-6.96,5.36-38.38-7.17-28.36,14.9-5.49-13.06-33.04,2.66,5.4-.05-17.51,2.47-18.75,3.05l-15.93-2.53c-7.84,0-6.15-4.58-11.49.79-1.74,1.75.74,9.15-3.95,0-5.42-10.57-8.5-7.12-8.5,4.82,0,0-.02.64-.04,3.64h.04c-.04,3-.59,27.37-.59,43.29-.18,2.07-.25,2.23-.25,3.31v155.39h53.37l-.03,7.79c-1.74.04-3.21.13-4.46.16.3-.08-1.77.03-9.7-.05,12.04,11.5,36.2,12.1,33.17,38.1h38.24c-3.29-30,22.59-25.89,33.5-38.8-4.47.06-9.11-.22-13.11-.21v-6.99h53v-158.94c0-28.49.22-42.06.19-43.06Z"/>
      <g id="bi" data-name="Label Qty">
        <circle class="cl" cx="201.56" cy="145.07" r="7.82"/>
        <text id="bj" data-name="80" class="cw" transform="translate(195.41 149.2)"><tspan x="0" y="0">90</tspan></text>
      </g>
    </g>
  </g>
  <g id="bk" data-name="99">
    <g id="bn" data-name="Level" class="cv">
      <g id="bo" data-name="Label Qty">
        <path id="bq" data-name="99" class="cn" d="M248.7,130.5h.04c-.04-3-.06-3.41-.06-3.41,0-12.39-12.91,4.03-12.91-6.97-.53-1.5-5.53-1.94-13.02-.06l-12.06,5.8c-3.31-.17-19.72-.49-15.3-.63-29.81-14.17-6.96,5.36-38.38-7.17-28.36,14.9-5.49-13.06-33.04,2.66,5.4-.05-17.51,2.47-18.75,3.05l-15.93-2.53c-7.84,0-4.55-2.93-11.49.79-1.55.84.74,9.15-3.95,0-5.42-10.57-8.5-7.12-8.5,4.82,0,0-.02.64-.04,3.64h.03c-.07,6-.58,30.04-.58,46.37-.18,2.27-.25,2.46-.25,3.65v169.99h53.37l-.03,7.79c-1.74.04-3.21.13-4.46.16.3-.08-1.77.03-9.7-.05,12.04,11.5,36.2,12.1,33.17,38.1h38.24c-3.29-30,22.59-25.89,33.5-38.8-4.47.06-9.11-.22-13.11-.21v-6.99h53v-173.86c0-28.01.28-42.14.2-46.14Z"/>
        <circle class="cl" cx="201.56" cy="127.07" r="7.82"/>
        <text class="cw" transform="translate(195.27 131.2)"><tspan x="0" y="0">99</tspan></text>
      </g>
    </g>
  </g>
  <g id="br" data-name="Flow">
    <polygon id="bs" data-name="flow8" class="cd" points="159.13 404.18 152.83 403.04 154.02 396.26 160.32 397.4 159.13 404.18"/>
    <polygon id="bt" data-name="flow7" class="ce" points="159.69 410.94 153.75 410.34 154.34 404.31 160.28 404.91 159.69 410.94"/>
    <polygon id="bu" data-name="flow6" class="cc" points="156.71 417.52 151.92 416.74 152.68 411.88 157.47 412.65 156.71 417.52"/>
    <polygon id="bv" data-name="flow5" class="cc" points="163.09 420.69 158.08 423.22 155.59 418.14 160.59 415.6 163.09 420.69"/>
    <polygon id="bw" data-name="flow4" class="cc" points="159.8 434.37 153.62 433.74 154.24 427.47 160.41 428.09 159.8 434.37"/>
    <polygon id="bx" data-name="flow3" class="cc" points="157.09 447.35 151.39 446.43 152.3 440.63 158.01 441.55 157.09 447.35"/>
  </g>
  <path class="ch" d="M249,407h-14v-48h14v48Z"/>
  <path class="cf" d="M124.8,386.27c-2.06,17.29,4.25,20.78,18.25,21.45v42.28h7v-54h-12.87c2.99-26-20.84-25.89-32.71-37.16,7.82.08,12.42.16,14.14.12l-.13-12.96h-53.43v-70h36v-12.21l-36-30.65v-36.72c0-1.05.02-1.45,0-3.42h36v-11.74l-36-30.65v-35.98c0-1.05-1.95-1.63-1.11-1.63h23.11v-13.19c-6,.01-12.11.03-18.23.09,27.56-15.72,57.31-29.31,85.67-44.21,31.41,12.53,59.39,29.31,89.2,43.47-5.42.16-10.63.28-15.63.39v13.45h21v37.61l-36,30.65v11.74h36v40.14l-36,30.65v12.21h15.64c3.76,0,4.98,0,4.93,0h15.42v70h-54v12.23c4,0,8.48.05,12.9-.01-10.76,12.65-36.31,8.78-33.06,37.78h-10.84v54h7v-42.54c12-1.17,19.45-5.5,16.19-21.67,12.59-6.61,25.03-18.01,36.96-22.83.33,14.29.38,57.05.38,57.05h35.68s-.22-200.37-.22-282.53c0-14.72.12-31.76-.89-39.79-.96-7.65-8.45-9.18-22.92-16.05-27.45-13.04-49.58-25.63-76.58-39.63h-7.25c-23.66,12-51.52,26.53-77.59,39.63-9,4.53-19.85,9.62-22.43,15.76-3.02,7.19-.12,300.05-.12,322.07,6.04,0,35.09-.06,35.09-.06,0,0,.81-39.3.52-56.97,12.77,7.41,25.19,15.38,36.93,23.83ZM249.05,407h-14v-48h14v48ZM77.05,407h-12v-48h12v48Z"/>
</svg>